<?xml version="1.0" encoding="UTF-8" standalone="no"?>
<svg
   xmlns:dc="http://purl.org/dc/elements/1.1/"
   xmlns:cc="http://creativecommons.org/ns#"
   xmlns:rdf="http://www.w3.org/1999/02/22-rdf-syntax-ns#"
   xmlns:svg="http://www.w3.org/2000/svg"
   xmlns="http://www.w3.org/2000/svg"
   id="svg210"
   version="1.2"
   width="542.28571"
   height="555.33557">
  <metadata
     id="metadata216">
    <rdf:RDF>
      <cc:Work
         rdf:about="">
        <dc:format>image/svg+xml</dc:format>
        <dc:type
           rdf:resource="http://purl.org/dc/dcmitype/StillImage" />
        <dc:title></dc:title>
      </cc:Work>
    </rdf:RDF>
  </metadata>
  <defs
     id="defs214" />
  <style
     id="style2">.s0{fill:#666;}.s1{fill:#e9ddaf;}.s2{fill:#decd87;}.s3{fill:#d2427c;}.s4{fill:#bd3a6f;}.s5{fill:#f1eacc;stroke-width:2.20000005;stroke:#4b4b4b;}.s6{fill:#4d4d4d;}.s7{fill:#ff8080;}.s8{fill:#d35f5f;}.s9{fill:#e6e6e6;}.s10{fill:#3e6a92;}.s11{fill:#4776a1;}.s12{fill:#507ca3;}.s13{fill:#526372;}.s14{fill:#dce2e7;}.s15{fill:#788796;}.s16{fill:#ffc177;}.s17{fill:#60605f;}.s18{fill:#f1eacc;}.s19{fill:#454748;}</style>
  <g
     id="g4"
     transform="translate(-211.15944,-406.2055)" />
  <g
     id="g6"
     transform="translate(-211.15944,-97.9375)" />
  <g
     id="g10"
     transform="translate(-241.16167,-97.349221)">
    <path
       style="fill:#1a1a1a"
       id="path8"
       d="m 520.25224,108.70234 c -17.78071,0 -35.45381,8.66377 -46.69954,22.28877 -5.53495,6.70598 -3.35105,15.43434 -6.5677,24.23162 -3.26407,8.92695 -0.8973,16.15932 -0.26873,26.44641 0.96898,15.85804 13.16764,25.26748 -0.87606,36.00387 3.89616,4.25641 6.76805,8.44226 17.59061,10.07397 9.71319,0.50011 9.75626,-0.75609 16.07142,-1.60714 h 37.5 c 8.10386,1.83162 10.05181,2.89087 18.39286,2.32143 8.96863,-1.97427 11.51859,-5.08035 17.52678,-9.64286 -14.79184,-5.38882 -12.72516,-22.24285 -2.3692,-37.73755 4.32109,-6.46528 -0.43967,-16.74558 -2.34644,-23.79304 -2.48653,-9.19026 0.0485,-17.15726 -5.75046,-23.91895 -5.52412,-6.44118 -3.44106,-9.13413 -9.83649,-14.49878 -8.80333,-7.38446 -20.56159,-10.16775 -32.36705,-10.16775 z" />
  </g>
  <g
     id="g14"
     transform="translate(-211.15944,-97.9375)">
    <rect
       id="rect12"
       fill="#e9ddaf"
       width="29.763803"
       height="24.243662"
       x="472.01331"
       y="213.25932" />
  </g>
  <g
     id="g18"
     transform="translate(-211.15944,-97.9375)">
    <path
       id="path16"
       fill="#decd87"
       d="m472.05344 209.8125c-0.0447 0.12536-0.0837 0.24845-0.12276 0.375l0 5.125c2.05922 6.66426 11.95993 11.71875 23.89911 11.71875 2.08436 0 4.08502-0.17902 6.01571-0.46875l0-16.75-29.79206 0z" />
  </g>
  <g
     id="g24"
     transform="translate(-211.15944,-97.9375)">
    <rect
       id="rect20"
       fill="#e9ddaf"
       width="60.974297"
       height="55.480072"
       ry="13.217121"
       x="492.68393"
       y="194.67365"
       transform="matrix(0.96117284,0.27594703,-0.39823215,0.91728466,0,0)" />
    <rect
       id="rect22"
       fill="#e9ddaf"
       width="60.974297"
       height="55.480072"
       ry="13.217121"
       x="-406.32529"
       y="467.59256"
       transform="matrix(-0.96117284,0.27594703,0.39823215,0.91728466,0,0)" />
  </g>
  <g
     id="g34"
     transform="translate(-211.15944,-97.9375)">
    <rect
       id="rect26"
       fill="#e9ddaf"
       width="141.42133"
       height="111.11675"
       ry="32.324871"
       x="415.19302"
       y="232.95731" />
    <path
       style="fill:#333333"
       id="path28"
       fill="#d2427c"
       d="m447.53125 232.96875c-17.90798 0-32.34375 14.40452-32.34375 32.3125l0 46.46875c0 17.90798 14.43577 32.3125 32.34375 32.3125l76.75 0c17.90798 0 32.34375-14.40452 32.34375-32.3125l0-46.46875c0-17.7215-14.13287-32.01655-31.78125-32.3125-0.70024 7.85142-17.36771 14.125-37.84375 14.125-20.47604 0-37.14351-6.27358-37.84375-14.125l-1.625 0zM431.0625 242.25 431.0625 242.25 431.0625 242.25 431.0625 242.25 431.0625 242.25" />
    <path
       style="fill:#333333"
       id="path30"
       fill="#d2427c"
       d="m431.0625 242.25c-5.64642 0.22616-10.95251 3.86171-13.21875 9.65625l-35.375 90.46875c-0.6509 1.66429-0.96365 3.35431-1.03125 5.03125 3.98323-2.26153 9.20503-3.65625 14.9375-3.65625 5.8017 0 11.06185 1.40824 15.0625 3.71875l33.25-85.0625c3.02165-7.72605-0.53294-16.31061-7.96875-19.21875-1.85895-0.72704-3.77411-1.01289-5.65625-0.9375z" />
    <path
       style="fill:#333333"
       id="path32"
       fill="#d2427c"
       d="m541.72579 244.51542c5.64642 0.22616 10.95251 3.86171 13.21875 9.65625l35.375 90.46875c0.6509 1.66429 0.96365 3.35431 1.03125 5.03125-3.98323-2.26153-9.20503-3.65625-14.9375-3.65625-5.8017 0-11.06185 1.40824-15.0625 3.71875l-33.25-85.0625c-3.02165-7.72605 0.53294-16.31061 7.96875-19.21875 1.85895-0.72704 3.77411-1.01289 5.65625-0.9375z" />
  </g>
  <g
     id="g40"
     transform="translate(-211.15944,-97.9375)">
    <path
       style="fill:#1a1a1a"
       id="path36"
       fill="#bd3a6f"
       d="m437.44477 271.56138-9.53985 41.05511 16.21282 2.74828zM532.84352 269.18394l9.53985 41.05511-16.21282 2.74828M532.84352 269.18394l9.53985 41.05511-16.21282 2.74828M532.84352 269.18394l9.53985 41.05511-16.21282 2.74828M532.84352 269.18394l9.53985 41.05511-16.21282 2.74828M532.84352 269.18394l9.53985 41.05511-16.21282 2.74828" />
    <path
       style="fill:#1a1a1a"
       id="path38"
       fill="#bd3a6f"
       d="m532.84352 269.18394 9.53985 41.05511-16.21282 2.74828z" />
  </g>
  <g
     id="g44"
     transform="translate(-211.15944,-97.9375)">
    <path
       id="path42"
       fill="#e9ddaf"
       d="m532.85714 156.23734a42.857143 45 0 1 1-85.71428 0 42.857143 45 0 1 1 85.71428 0z"
       transform="translate(-1.4285714,14.285714)" />
  </g>
  <g
     id="g62"
     transform="translate(-211.15944,-97.9375)">
    <path
       id="path46"
       class="s5"
       d="m485.35713 173.8885c-0.32735 3.6727-0.26021 8.06421-3.67427 10.16388-2.51196 1.54487-7.95091 1.32782-11.5043 1.32782-3.81463 0-9.88911 0.2663-12.55563-1.48321-3.19333-2.09517-2.62294-6.50572-2.62294-9.94536 0-4.70359-2.017-7.33334 3.43252-7.36946 1.91546-0.0127 9.6994 0.048 11.83534 0.048 2.63793 0 1.64918-0.0882 10.50273 0.15263 1.54386 0.042 2.46908 0.23056 3.34387 0.92547 0.71072 0.56459 1.00279 1.37505 1.08986 1.85915 0.29536 1.64216 0.37886 1.78507 0.15282 4.32105z" />
    <path
       id="path48"
       fill="#4d4d4d"
       d="m471.42858 175.34448a1.9642857 1.9642857 0 1 1-3.92857 0 1.9642857 1.9642857 0 1 1 3.92857 0zM486.42857 168.3802l1.09048-0.39401 1.3872-0.16403 1.46527 0.18057 1.05705 0.37747M486.42857 168.3802l1.09048-0.39401 1.3872-0.16403 1.46527 0.18057 1.05705 0.37747M486.42857 168.3802l1.09048-0.39401 1.3872-0.16403 1.46527 0.18057 1.05705 0.37747M486.42857 168.3802l1.09048-0.39401 1.3872-0.16403 1.46527 0.18057 1.05705 0.37747M486.42857 168.3802l1.09048-0.39401 1.3872-0.16403 1.46527 0.18057 1.05705 0.37747"
       transform="translate(1.4285715,0.35714286)" />
    <path
       id="path50"
       fill="#4d4d4d"
       d="m486.42857 168.3802 1.09048-0.39401 1.3872-0.16403 1.46527 0.18057 1.05705 0.37747c0.74533 0.26616 1.42857 0.63715 1.42857 1.42857 0 0.79143-0.63714 1.42858-1.42857 1.42858l-1.00446-0.53571-1.47322-0.2009-1.3616 0.24554-1.16072 0.49107C485.69969 171.54572 485 170.6002 485 169.80877c0-0.79142 1.42857-1.42857 1.42857-1.42857z" />
    <rect
       id="rect52"
       fill="#decd87"
       width="10.357142"
       height="2.8571429"
       ry="1.4285715"
       x="483.92856"
       y="187.66591" />
    <rect
       id="rect54"
       fill="#ff8080"
       width="11.428572"
       height="6.0714273"
       ry="3.0357137"
       x="483.31891"
       y="199.45163" />
    <rect
       id="rect56"
       fill="#d35f5f"
       width="11.743023"
       height="1.6414979"
       ry="0.82074893"
       x="483.23172"
       y="201.6732" />
    <path
       id="path58"
       class="s5"
       d="m492.64154 173.89729c0.32735 3.6727 0.26021 8.06421 3.67427 10.16388 2.51196 1.54487 7.95091 1.32782 11.5043 1.32782 3.81463 0 7.99507 0.2663 10.66159-1.48321 3.19333-2.09517 4.51698-6.50572 4.51698-9.94536 0-4.70359 2.017-7.33334-3.43252-7.36946-1.91546-0.0127-9.6994 0.048-11.83534 0.048-2.63793 0-1.64918-0.0882-10.50273 0.15263-1.54386 0.042-2.46908 0.23056-3.34387 0.92547-0.71072 0.56459-1.00279 1.37505-1.08986 1.85915-0.29536 1.64216-0.37886 1.78507-0.15282 4.32105z" />
    <path
       id="path60"
       fill="#4d4d4d"
       d="m471.42858 175.34448a1.9642857 1.9642857 0 1 1-3.92857 0 1.9642857 1.9642857 0 1 1 3.92857 0z"
       transform="matrix(-1,0,0,1,976.39154,0.36593495)" />
  </g>
  <g
     id="g84"
     transform="translate(-211.15944,-97.9375)">
    <rect
       id="rect78"
       fill="#e6e6e6"
       width="164.28572"
       height="104.28571"
       ry="8.5714283"
       x="404.85715"
       y="294.09448" />
    <path
       id="path80"
       fill="#fff"
       d="m505.71427 342.66592a14.285714 10 0 1 1-28.57143 0 14.285714 10 0 1 1 28.57143 0z"
       transform="matrix(0.7,0,0,1,145.14285,2)" />
    <rect
       id="rect82"
       fill="#ccc"
       width="162.85713"
       height="5.1658897"
       ry="0.57399768"
       x="406.89032"
       y="395.62628" />
  </g>
  <g
     id="g92"
     transform="translate(-211.15944,-97.9375)">
    <path
       id="path86"
       fill="#3e6a92"
       d="m407.57946 408.71875c-0.30951 1.70737-0.47477 3.44657-0.47477 5.22735l0 6.45578c0 19.27756 18.7826 34.788 42.12708 34.788l75.32865 0c23.34448 0 42.12708-15.51044 42.12708-34.788l0-6.45578c0-1.78068-0.16528-3.52008-0.47476-5.22735l-158.63328 0z" />
    <path
       id="path88"
       fill="#4776a1"
       d="m451.4289 414.13545c-20.56994 0-37.28043 16.94605-37.28043 37.83741 0 1.42083 0.10967 2.81576 0.25992 4.19591l74.00389 0c0.15024-1.38015 0.25993-2.77508 0.25993-4.19591 0-20.89136-16.67336-37.83741-37.24331-37.83741z" />
    <path
       id="path90"
       fill="#507ca3"
       d="m523.5762 415.32367c-20.56995 0-37.2433 16.90892-37.2433 37.80028 0 1.01673 0.0339 2.04833 0.11133 3.04482l74.26381 0c0.0775-0.99649 0.11134-2.02809 0.11134-3.04482 0-20.89136-16.67335-37.80028-37.2433-37.80028z" />
  </g>
  <g
     id="g96"
     transform="translate(-211.15944,-97.9375)">
    <path
       id="path94"
       fill="#526372"
       d="m376.28125 444.59375 0 7.0625c0 6.99532 5.62968 12.625 12.625 12.625l193.4375 0c6.99532 0 12.625-5.62968 12.625-12.625l0-7.0625-218.6875 0z" />
  </g>
  <g
     id="g106"
     transform="translate(-211.15944,-97.9375)">
    <path
       id="path98"
       fill="#4776a1"
       d="m464.84375 422.8125c-11.89989 0-21.46875 11.29063-21.46875 25.28125l0 157.5625c0 2.79477 0.38705 5.49094 1.09375 8l40.78125 0c0.7067-2.50906 1.09375-5.20523 1.09375-8l0-157.5625c0-13.99062-9.60011-25.28125-21.5-25.28125z" />
    <path
       id="path100"
       fill="#507ca3"
       d="m509.53125 423.84375c-11.89989 0-21.46875 11.25938-21.46875 25.25l0 157.59375c0 2.42899 0.30421 4.74885 0.84375 6.96875l41.28125 0C530.72649 611.43738 531 609.11522 531 606.6875l0-157.59375c0-13.99062-9.56886-25.25-21.46875-25.25z" />
    <rect
       id="rect102"
       fill="#e9ddaf"
       width="32.829956"
       height="29.482368"
       ry="0"
       x="450.65433"
       y="613.66003" />
    <rect
       id="rect104"
       fill="#e9ddaf"
       width="32.829956"
       height="29.482368"
       ry="0"
       x="490.39212"
       y="613.60754" />
  </g>
  <g
     id="g112"
     transform="translate(-211.15944,-99.9375)">
    <path
       style="fill:#5d536c"
       id="path108"
       d="m 457.01548,637.28379 c -7.2349,0 -13.04673,6.12511 -13.04673,13.75 v 1.375 h 42.16466 v -1.375 c 0,-7.62489 -5.81183,-13.75 -13.04673,-13.75 z m 44.17606,0 v 0 0 0 0" />
    <path
       style="fill:#5d536c"
       id="path110"
       d="m 501.19154,637.28379 c -7.36489,0 -13.28115,6.12511 -13.28115,13.75 v 1.375 h 42.92227 v -1.375 c 0,-7.62489 -5.91625,-13.75 -13.28115,-13.75 z" />
  </g>
  <g
     id="g122"
     transform="translate(-211.15944,-97.9375)">
    <rect
       id="rect114"
       fill="#788796"
       width="17.142857"
       height="241.42857"
       ry="0"
       x="259.42859"
       y="411.23734" />
    <rect
       id="rect116"
       fill="#788796"
       width="16.964312"
       height="247.32141"
       ry="0.65599734"
       x="696"
       y="405.52304" />
    <rect
       id="rect118"
       fill="#526372"
       width="15.714279"
       height="241.25003"
       ry="0"
       x="305.14285"
       y="411.41592" />
    <rect
       id="rect120"
       fill="#526372"
       width="16.071411"
       height="241.96428"
       ry="0"
       x="650.57141"
       y="411.30878" />
  </g>
  <g
     id="g126"
     transform="translate(-211.15944,-97.9375)">
    <rect
       id="rect124"
       fill="#deaa87"
       width="524.28571"
       height="11.428572"
       ry="0.65599734"
       x="220.15944"
       y="400.73227" />
  </g>
  <g
     id="layer1">
    <path
       id="path1026"
       d="m 481.13886,279.87383 c -1.89253,-6.19888 -4.18612,-12.19722 -5.36805,-18.7514 l 6.91228,18.31019 c -1.34447,-7.80619 3.42538,6.08361 -4.04442,-23.45763 3.90124,5.1276 5.2811,13.0058 7.13289,20.36917 l -0.51475,-16.03061 c 1.46449,2.54065 1.91218,5.28465 2.42665,8.0153 1.33352,-0.58527 3.16848,-0.88932 4.11795,-3.97089 2.66966,-3.02292 2.53936,-4.29739 3.60322,-5.95632 l 2.42665,-4.11795 -1.54423,8.97125 -0.29414,6.39754 2.79432,-6.98581 3.52967,-5.66219 -3.01492,11.98619 -0.51475,8.16237 4.19149,-10.9567 0.66182,3.67675 c 1.34781,-3.76401 3.09467,-12.46075 5.51512,-11.39792 -2.00959,2.42109 -3.21016,9.36211 -3.45615,13.01568 l -0.4412,4.6327 c 2.18153,-1.8874 1.77136,-5.28662 6.5446,-5.66219 1.78606,0.15036 2.63217,1.24068 3.67675,2.13252 -1.4707,-0.19754 -2.9414,-0.45869 -4.4121,0.29414 -2.44536,2.15041 -2.99427,4.93297 -4.39674,7.43101 z"
       style="fill:#87de87;fill-opacity:1;stroke:none;stroke-width:1px;stroke-linecap:butt;stroke-linejoin:miter;stroke-opacity:1" />
  </g>
  <g
     id="g202"
     transform="translate(-211.15944,-97.9375)">
    <rect
       id="rect164"
       fill="#dce2e7"
       width="45.503448"
       height="37.94854"
       ry="18.97427"
       x="281.43942"
       y="360.4682" />
    <rect
       id="rect166"
       fill="#dce2e7"
       width="45.444118"
       height="20.990852"
       ry="0"
       x="281.48859"
       y="359.63818" />
    <path
       style="fill:#d3dce3;stroke-width:0.89221662"
       id="path168"
       d="m 277.72265,396.40746 c -0.0378,0.23314 -0.0639,0.47545 -0.0639,0.72301 0,0.2204 0.0338,0.43352 0.0639,0.64268 z m 0,1.36569 c 0.24045,1.67044 1.39136,2.9456 2.7925,2.9456 h 46.89695 c 1.40115,0 2.53073,-1.27516 2.77119,-2.9456 z" />
    <path
       id="path170"
       fill="#dce2e7"
       d="m278.52825 362.143c-5.91568 0-10.71128 5.08477-10.71128 11.38074 0 6.29597 4.7956 11.40751 10.71128 11.40751 5.91568 0 10.71128-5.11154 10.71128-11.40751 0-6.29597-4.7956-11.38074-10.71128-11.38074zm1.44602 4.28451c4.18323 0 7.57824 3.28077 7.57824 7.33723 0 4.05647-3.39501 7.33723-7.57824 7.33723-4.18322 0-7.55145-3.28076-7.55145-7.33723 0-4.05646 3.36823-7.33723 7.55145-7.33723z" />
    <rect
       id="rect172"
       fill="#788796"
       width="82.990089"
       height="15.714272"
       ry="2.7008936"
       x="591.65283"
       y="384.80878" />
    <rect
       id="rect174"
       fill="#f9f9f9"
       width="80.957726"
       height="10.590821"
       ry="0"
       x="591.39636"
       y="387.3187" />
    <path
       id="path176"
       fill="#bd3a6f"
       d="m664.98893 392.00645 0 6.42395 1.88317-3.4724 2.35396 3.4724-0.2354-6.42395z" />
    <rect
       id="rect178"
       fill="#bd3a6f"
       width="4.0088754"
       height="4.9481707"
       x="664.99603"
       y="387.89572" />
    <rect
       style="fill:#e6e6e6;stroke-width:0.52751279"
       id="rect180"
       width="27.042889"
       height="20.612619"
       ry="10.30631"
       x="690.77246"
       y="380.03" />
    <rect
       style="fill:#e6e6e6;stroke-width:0.49516335"
       id="rect182"
       width="27.057711"
       height="12.122595"
       ry="0"
       x="690.77252"
       y="378.25653" />
    <flowRoot
       id="flowRoot190"
       style="fill:#d35f5f;font-family:Sans;font-size:40px;letter-spacing:0px;line-height:125%;word-spacing:0px"
       transform="matrix(2.5961471,0,0,3.2043867,-1133.1216,-845.07755)"
       xml:space="preserve"><flowRegion
         id="flowRegion186"><rect
           id="rect184"
           fill="#d35f5f"
           width="18.303589"
           height="16.160709"
           x="703.57141"
           y="375.16592" /></flowRegion><flowPara
         id="flowPara188"
         style="-inkscape-font-specification:Arial Bold;fill:#d35f5f;font-family:Arial;font-size:8px;font-weight:bold">{;}</flowPara></flowRoot>    <path
       id="path192"
       fill="#f1eacc"
       d="m85.862966 242.18828c0 0 1.907423 1.84618 2.055847 4.76806 0.0621 1.22259-0.600403 2.68559-1.171963 4.19705-1.420527 3.7565-2.083439 4.73509-1.641498 7.70241 0.419654 2.81768 0.631345 2.77792 0.631345 2.77792 0 0-0.287455-2.87491 0.07926-5.25955 0.273602-1.77915 1.093287-2.9635 1.688507-4.21063 1.325825-2.77792 2.04197-5.89504 0.526741-7.88733-1.102404-1.44949 0.04147-0.2886-2.168239-2.08793zM299.29525 333.30725 299.29525 333.30725 299.29525 333.30725 299.29525 333.30725 299.29525 333.30725"
       transform="translate(211.15944,97.9375)" />
    <path
       id="path194"
       fill="#f1eacc"
       d="m299.29525 333.30725c0 0 7.5175 8.68062 5.11839 13.60512-2.39912 4.92449-2.71928 6.21913-2.08793 8.99705 0.63134 2.77792 0.63134 2.77792 0.63134 2.77792 0 0-0.25254-6.98944 1.76777-9.51482 2.0203-2.52538 1.29703-8.31182-0.25254-10.18316-1.653-1.99625-1.61721-2.01636-5.17703-5.68211z" />
    <path
       id="path196"
       fill="#f1eacc"
       d="m309.90185 339.99951c0 0 3.50621 4.17454 1.1071 9.09904-2.39912 4.92449-2.49606 4.79056-1.86471 7.56848 0.63134 2.77792 0.63134 2.77792 0.63134 2.77792 0 0-1.36861-5.02516 0.6517-7.55054 2.0203-2.52538 2.13125-3.93075 2.26781-7.30697 0.0736-1.81959-1.91199-3.73468-2.79324-4.58793z" />
    <path
       id="path198"
       fill="#f1eacc"
       d="m289.95134 338.98936c0 0 3.50621 4.17454 1.1071 9.09904-2.39912 4.92449-2.49606 4.79056-1.86471 7.56848 0.63134 2.77792 0.63134 2.77792 0.63134 2.77792 0 0-1.36861-5.02516 0.6517-7.55054 2.0203-2.52538 2.13125-3.93075 2.26781-7.30697 0.0736-1.81959-1.91199-3.73468-2.79324-4.58793z" />
    <path
       id="path200"
       fill="#f1eacc"
       d="m317.22546 337.85294c0 0 1.90742 1.84618 2.05584 4.76806 0.0621 1.22259-0.6004 2.68559-1.17196 4.19705-1.42053 3.7565-2.08344 4.73509-1.6415 7.70241 0.41966 2.81768 0.63135 2.77792 0.63135 2.77792 0 0-0.28746-2.87491 0.0793-5.25955 0.2736-1.77915 1.09328-2.9635 1.6885-4.21063 1.32583-2.77792 2.04197-5.89504 0.52675-7.88733-1.10241-1.44949 0.0415-0.2886-2.16824-2.08793z" />
    <path
       id="path1023"
       d="m 690.77252,378.25653 c -2.27007,-1.08177 -2.19045,-2.52504 -2.79008,-3.8638 -2.00102,-6.35049 -2.11688,-9.27923 -2.71568,-13.03056 l 1.76947,2.13147 c 0.58561,1.82779 1.23723,1.31385 2.08207,5.99312 0.87014,5.12326 2.95564,6.19533 4.57355,8.82603 -2.90886,-5.25059 -4.00331,-9.24516 -4.93874,-15.39917 -0.71299,-4.69067 -2.38691,-7.17833 -3.32878,-11.95126 3.22021,3.95752 5.92375,7.41253 6.5928,13.50815 0.64593,5.88489 2.69729,9.45354 4.37857,13.63429 l -2.3952,-8.8137 c -0.0157,-3.56998 0.37197,-6.85764 -0.94682,-11.33981 l -2.06567,-6.78094 c 4.6939,6.2948 7.15382,15.96752 8.11153,26.72647 l -0.9947,-16.27597 c -0.19011,-6.53006 0.77594,-6.35435 1.20269,-9.30657 l 0.72457,10.97165 c 1.65528,6.49486 1.06594,10.56565 1.35531,14.4029 l 0.11815,-12.87986 c 0.41325,-13.51091 1.74818,-11.54595 2.5857,-17.27842 -0.33802,8.03209 -0.33949,13.70055 0.49263,18.6097 0.83058,4.90007 0.18194,8.16071 -0.28464,11.75657 0.47337,-3.71165 1.38682,-6.10309 1.10862,-12.06945 -0.5015,-5.71493 0.38807,-9.84005 0.76327,-14.55303 0.68412,4.76739 1.8085,4.14167 1.99788,14.96962 0.26578,4.60804 -0.68397,8.00054 -1.16593,11.86084 1.18743,-4.57966 1.50382,-12.51044 2.45225,-18.58929 0.59197,-3.7941 1.74756,-5.62887 2.53947,-9.28111 -0.23729,14.21446 -0.81581,23.22576 -2.91184,27.8704 l 3.02079,-10.04857 1.34696,-8.04639 c 0.40724,5.82483 -0.19928,11.78483 -1.87189,17.88698 l 3.35265,-13.78534 c 0.22022,-3.3623 0.59767,-9.70745 2.26303,-13.20112 0.21258,7.95525 -0.24794,21.19018 -4.47174,30.73025 1.60649,-5.29196 2.97583,-9.69282 4.72391,-16.09085 0.35165,-1.85918 2.88196,-5.80868 3.64761,-6.83985 -1.86283,6.04355 -2.71248,8.32922 -2.84296,9.6754 -0.80906,8.12781 -1.98664,5.92327 -2.92871,9.92748 4.72813,-6.45255 5.10876,-14.26573 7.17559,-26.46648 0.14485,1.28042 0.67756,2.51852 0.68576,6.10145 0.006,2.48374 -0.76784,5.0072 -1.15177,8.15869 -0.67147,4.41461 -1.87169,8.56485 -4.20194,12.15008 z"
       style="fill:#afe9af;fill-opacity:1;stroke:none;stroke-width:1px;stroke-linecap:butt;stroke-linejoin:miter;stroke-opacity:1" />
  </g>
  <g
     id="g208"
     transform="translate(52.622298,-112.56485)">
    <rect
       style="fill:#454748"
       id="rect204"
       width="40"
       height="5.4438052"
       ry="0.90901279"
       x="353.21429"
       y="395.07925" />
    <rect
       style="fill:#454748"
       id="rect206"
       width="0.25253814"
       height="1.7844001"
       ry="0.074179515"
       x="393.20187"
       y="396.85455" />
  </g>
  <path
     id="path1028"
     d="m 500.41939,279.95932 c 0.46583,2.08349 -0.0206,4.16698 -0.29414,6.25047 1.13386,-1.06532 2.75219,-2.56607 2.42665,-5.95633 z"
     style="fill:#afe9af;fill-opacity:1;stroke:none;stroke-width:1px;stroke-linecap:butt;stroke-linejoin:miter;stroke-opacity:1" />
  <path
     id="path1030"
     d="m 140.28798,301.90206 h 29.32633 c -2.66494,-7.36245 -7.53507,-9.66454 -15.59911,-11.02337 -8.08186,0.1109 -12.37818,3.95322 -13.72722,11.02337 z"
     style="fill:#1f241c;fill-opacity:1;stroke:none;stroke-width:1px;stroke-linecap:butt;stroke-linejoin:miter;stroke-opacity:1" />
  <rect
     ry="0.23399551"
     y="301.93359"
     x="126.20227"
     height="0.8839367"
     width="67.413116"
     id="rect1032"
     style="opacity:1;fill:#374837;fill-opacity:1;stroke:none;stroke-width:4.74321604;stroke-linejoin:round;stroke-miterlimit:4;stroke-dasharray:none;stroke-dashoffset:96.94488525;stroke-opacity:1" />
  <path
     id="rect1034"
     d="m 153.08751,290.97577 0.94194,-0.0643 c 0.15064,-0.0103 0.34702,0.0139 0.50989,0.0467 0.12513,0.0252 0.25229,0.0224 0.3302,0.10663 0.1672,0.18083 0.14945,0.52805 0.14945,0.79025 v 6.39559 c 0,0.53293 -0.42904,0.96197 -0.96197,0.96197 h -0.9879 c -0.53293,0 -0.96196,-0.42904 -0.96196,-0.96197 V 291.855 c 0,-0.21595 -0.0428,-0.74533 0.11172,-0.8718 0.0165,-0.0135 0.17221,-0.0475 0.24542,-0.0563 0.18302,-0.022 0.38128,-0.008 0.49283,-0.008 0.14784,-7.5e-4 -0.0234,0.0675 0.13038,0.057 z"
     style="opacity:1;fill:#00ff00;fill-opacity:1;stroke:none;stroke-width:4.78110218;stroke-linejoin:round;stroke-miterlimit:4;stroke-dasharray:none;stroke-dashoffset:96.94488525;stroke-opacity:1" />
  <rect
     ry="0.59798801"
     y="290.6514"
     x="152.77023"
     height="8.0075407"
     width="1.5599037"
     id="rect1036"
     style="opacity:1;fill:#666666;fill-opacity:1;stroke:none;stroke-width:4.78110218;stroke-linejoin:round;stroke-miterlimit:4;stroke-dasharray:none;stroke-dashoffset:96.94488525;stroke-opacity:1" />
  <path
     id="rect1039"
     d="m 224.27095,60.652293 c 4.8886,0 6.3345,3.287774 6.3345,8.176374 v 17.060096 c 0,4.888601 -3.93558,8.824189 -8.82418,8.824189 -11.06179,-11.415294 -4.34667,-33.420286 2.48968,-34.060659 z"
     style="opacity:1;fill:#4d4d4d;fill-opacity:1;stroke:none;stroke-width:4.78110218;stroke-linejoin:round;stroke-miterlimit:4;stroke-dasharray:none;stroke-dashoffset:96.94488525;stroke-opacity:1" />
  <path
     id="rect1041"
     d="m 330.51432,62.010339 c 3.80102,8.528424 4.8381,20.686723 0.29414,31.211011 -4.32408,0 -7.80519,-2.845811 -7.80519,-6.380742 V 66.467407 c 0,-3.534931 3.18697,-4.457068 7.51105,-4.457068 z"
     style="opacity:1;fill:#4d4d4d;fill-opacity:1;stroke:none;stroke-width:4.32286692;stroke-linejoin:round;stroke-miterlimit:4;stroke-dasharray:none;stroke-dashoffset:96.94488525;stroke-opacity:1" />
  <path
     id="path1043"
     d="M 224.27095,60.652293 C 224.17114,35.534336 235.63858,18.70652 256.7072,10.4811 c 32.43576,-9.19301 60.35,3.098295 71.49901,37.552752 0.64594,2.910852 1.70041,6.355886 1.28909,15.081675 l -4.85539,2.236003 C 325.72573,56.219514 318.76203,33.906239 307.80661,26.826238 293.47851,15.326183 268.6971,10.530233 247.508,26.23796 c -7.17885,3.260075 -19.36247,22.685206 -18.87694,36.006868 z"
     style="fill:#4d4d4d;fill-opacity:1;stroke:none;stroke-width:1px;stroke-linecap:butt;stroke-linejoin:miter;stroke-opacity:1" />
  <path
     id="path1047"
     d="m 292.96305,30.002239 c 0.18601,4.898835 3.60853,4.795712 -8.23591,20.295632 -14.25273,13.618594 -33.12279,17.503127 -51.1803,19.707354 l 1.4707,-15.883539 8.82419,-18.824934 21.17805,-13.236283 16.76596,0.29414 17.0601,4.117954 14.41284,11.471445 6.17693,15.883539 2.35312,13.530421 -1.5196,5.227586 C 315.33049,68.045107 310.72406,67.99664 301.14849,58.819262 293.3751,52.437815 290.02464,38.669217 292.96305,30.002239 Z"
     style="fill:#1a1a1a;fill-opacity:1;stroke:none;stroke-width:1px;stroke-linecap:butt;stroke-linejoin:miter;stroke-opacity:1" />
  <rect
     ry="6.838747"
     y="60.592754"
     x="214.84373"
     height="34.267262"
     width="13.261518"
     id="rect1049"
     style="opacity:1;fill:#333333;fill-opacity:1;stroke:none;stroke-width:4.70783663;stroke-linejoin:round;stroke-miterlimit:4;stroke-dasharray:none;stroke-dashoffset:96.94488525;stroke-opacity:1" />
  <rect
     ry="6.2677054"
     y="61.335499"
     x="325.81009"
     height="32.30183"
     width="12.252899"
     id="rect1051"
     style="opacity:1;fill:#333333;fill-opacity:1;stroke:none;stroke-width:4.91129398;stroke-linejoin:round;stroke-miterlimit:4;stroke-dasharray:none;stroke-dashoffset:96.94488525;stroke-opacity:1" />
  <rect
     ry="0.99088341"
     y="550.39777"
     x="232.09975"
     height="4.9232717"
     width="43.380383"
     id="rect1080"
     style="opacity:1;fill:#cccccc;fill-opacity:1;stroke:none;stroke-width:4.96958208;stroke-linejoin:round;stroke-miterlimit:4;stroke-dasharray:none;stroke-dashoffset:96.94488525;stroke-opacity:1" />
  <rect
     style="opacity:1;fill:#cccccc;fill-opacity:1;stroke:none;stroke-width:5.01405811;stroke-linejoin:round;stroke-miterlimit:4;stroke-dasharray:none;stroke-dashoffset:96.94488525;stroke-opacity:1"
     id="rect1082"
     width="44.160339"
     height="4.9232717"
     x="276.1618"
     y="550.41931"
     ry="0.99088341" />
  <rect
     ry="0.95595312"
     y="61.9641"
     x="332.39127"
     height="30.9025"
     width="1.7039076"
     id="rect1088"
     style="opacity:1;fill:#00ff00;fill-opacity:1;stroke:none;stroke-width:3.91535378;stroke-linejoin:round;stroke-miterlimit:4;stroke-dasharray:none;stroke-dashoffset:96.94488525;stroke-opacity:1" />
  <rect
     style="opacity:1;fill:#00ff00;fill-opacity:1;stroke:none;stroke-width:4.0161705;stroke-linejoin:round;stroke-miterlimit:4;stroke-dasharray:none;stroke-dashoffset:96.94488525;stroke-opacity:1"
     id="rect1090"
     width="1.7039076"
     height="32.514408"
     x="219.81738"
     y="61.34248"
     ry="1.0058167" />
</svg>
