<?xml version="1.0" encoding="UTF-8" standalone="no"?>
<svg
   xmlns:dc="http://purl.org/dc/elements/1.1/"
   xmlns:cc="http://creativecommons.org/ns#"
   xmlns:rdf="http://www.w3.org/1999/02/22-rdf-syntax-ns#"
   xmlns:svg="http://www.w3.org/2000/svg"
   xmlns="http://www.w3.org/2000/svg"
   id="svg8"
   version="1.1"
   viewBox="0 0 218.60222 64.333633"
   height="64.333633mm"
   width="218.60222mm">
  <defs
     id="defs2" />
  <metadata
     id="metadata5">
    <rdf:RDF>
      <cc:Work
         rdf:about="">
        <dc:format>image/svg+xml</dc:format>
        <dc:type
           rdf:resource="http://purl.org/dc/dcmitype/StillImage" />
        <dc:title></dc:title>
      </cc:Work>
    </rdf:RDF>
  </metadata>
  <g
     transform="translate(-434.09935,96.130287)"
     id="layer1">
    <path
       id="path835"
       d="m 437.69643,-35.988653 c 13.36336,-8.641588 26.72698,-17.283343 44.5932,-14.354312 17.86623,2.92903 40.23488,17.428518 60.90993,17.463747 20.67506,0.03523 39.65692,-14.393499 56.848,-17.32232 17.19108,-2.928821 32.59031,5.641909 47.98998,14.212885"
       style="fill:none;stroke:#000000;stroke-width:2.16499996;stroke-linecap:butt;stroke-linejoin:miter;stroke-miterlimit:4;stroke-dasharray:none;stroke-opacity:1" />
    <path
       style="fill:none;stroke:#000000;stroke-width:2.16499996;stroke-linecap:butt;stroke-linejoin:miter;stroke-miterlimit:4;stroke-dasharray:none;stroke-opacity:1"
       d="m 435.05059,-49.822621 c 14.11931,-8.893569 28.23889,-17.787311 46.48309,-14.98427 18.2442,2.803041 40.61285,17.302524 61.2879,17.337753 20.67506,0.03523 39.65692,-14.393499 57.60396,-17.133333 17.94704,-2.739834 34.85813,6.208862 51.76973,15.157827"
       id="path839" />
    <path
       id="path843"
       d="m 434.67262,-64.941671 c 14.2453,-8.89357 28.49087,-17.787311 46.79807,-14.98427 18.30719,2.803041 40.67584,17.302524 61.35089,17.337753 20.67506,0.03523 39.65692,-14.393499 57.47796,-17.322326 17.82105,-2.928826 34.48016,5.641902 51.13978,14.212891"
       style="fill:none;stroke:#000000;stroke-width:2.16499996;stroke-linecap:butt;stroke-linejoin:miter;stroke-miterlimit:4;stroke-dasharray:none;stroke-opacity:1" />
    <path
       style="fill:none;stroke:#000000;stroke-width:2.16499996;stroke-linecap:butt;stroke-linejoin:miter;stroke-miterlimit:4;stroke-dasharray:none;stroke-opacity:1"
       d="m 436.94048,-80.060713 c 13.36336,-8.641588 26.72698,-17.283341 44.5932,-14.354311 17.86623,2.929031 40.23488,17.428518 60.90993,17.463747 20.67506,0.03523 39.65692,-14.393499 57.03699,-17.448316 17.38007,-3.054818 33.15726,5.263932 48.93492,13.582928"
       id="path847" />
  </g>
</svg>
