<?xml version="1.0" encoding="UTF-8" standalone="no"?>
<!-- Created with Inkscape (http://www.inkscape.org/) -->

<svg
   xmlns:dc="http://purl.org/dc/elements/1.1/"
   xmlns:cc="http://creativecommons.org/ns#"
   xmlns:rdf="http://www.w3.org/1999/02/22-rdf-syntax-ns#"
   xmlns:svg="http://www.w3.org/2000/svg"
   xmlns="http://www.w3.org/2000/svg"
   xmlns:sodipodi="http://sodipodi.sourceforge.net/DTD/sodipodi-0.dtd"
   xmlns:inkscape="http://www.inkscape.org/namespaces/inkscape"
   width="531.90399mm"
   height="196.90172mm"
   viewBox="0 0 531.90399 196.90172"
   version="1.1"
   id="svg8"
   inkscape:version="0.92.2 5c3e80d, 2017-08-06"
   sodipodi:docname="imagineer_banner.svg">
  <defs
     id="defs2" />
  <sodipodi:namedview
     id="base"
     pagecolor="#ffffff"
     bordercolor="#666666"
     borderopacity="1.0"
     inkscape:pageopacity="0.0"
     inkscape:pageshadow="2"
     inkscape:zoom="0.35"
     inkscape:cx="782.81205"
     inkscape:cy="12.541071"
     inkscape:document-units="mm"
     inkscape:current-layer="flowRoot815"
     showgrid="false"
     showguides="true"
     inkscape:guide-bbox="true"
     fit-margin-top="10"
     fit-margin-left="10"
     fit-margin-right="10"
     fit-margin-bottom="10"
     inkscape:window-width="1440"
     inkscape:window-height="855"
     inkscape:window-x="0"
     inkscape:window-y="1"
     inkscape:window-maximized="1" />
  <metadata
     id="metadata5">
    <rdf:RDF>
      <cc:Work
         rdf:about="">
        <dc:format>image/svg+xml</dc:format>
        <dc:type
           rdf:resource="http://purl.org/dc/dcmitype/StillImage" />
        <dc:title></dc:title>
      </cc:Work>
    </rdf:RDF>
  </metadata>
  <g
     inkscape:label="Layer 1"
     inkscape:groupmode="layer"
     id="layer1"
     transform="translate(98.524056,593.10151)">
    <g
       aria-label="gination"
       transform="matrix(0.48671041,0,0,0.48671041,238.22764,480.82015)"
       style="font-style:normal;font-weight:normal;font-size:40px;line-height:1.25;font-family:sans-serif;letter-spacing:0px;word-spacing:0px;fill:#000000;fill-opacity:1;stroke:none"
       id="flowRoot815">
      <path
         d="m -291.93227,-2037.0001 q -6.336,0 -10.56,-2.688 -4.224,-2.688 -6.912,-6.912 -2.496,-4.224 -3.648,-9.408 -0.96,-5.376 -0.96,-10.752 0,-5.568 1.152,-10.56 1.344,-5.184 4.032,-9.024 2.88,-4.032 6.912,-6.336 4.224,-2.304 9.984,-2.304 6.72,0 11.136,2.496 4.416,2.496 7.104,6.72 2.688,4.224 3.84,9.792 1.152,5.376 1.152,11.52 0,5.376 -1.536,10.368 -1.344,4.8 -4.224,8.64 -2.88,3.84 -7.296,6.144 -4.416,2.304 -10.176,2.304 z m 49.152,17.088 v -92.928 h -25.92 v 13.248 h -0.384 q -4.992,-8.64 -12.48,-12.288 -7.296,-3.648 -17.088,-3.648 -10.368,0 -18.432,4.032 -7.872,4.032 -13.248,10.944 -5.376,6.72 -8.256,15.744 -2.688,8.832 -2.688,18.432 0,10.176 2.304,19.392 2.496,9.024 7.68,15.936 5.184,6.72 13.248,10.752 8.064,3.84 19.2,3.84 9.024,0 17.088,-3.648 8.256,-3.84 12.672,-11.712 h 0.384 v 13.056 q 0.192,10.56 -5.184,17.472 -5.184,6.912 -16.704,6.912 -7.296,0 -12.864,-3.072 -5.568,-2.88 -7.488,-10.56 h -27.072 q 0.576,8.448 4.608,14.4 4.224,6.144 10.368,9.984 6.336,3.84 13.824,5.568 7.68,1.92 14.976,1.92 17.088,0 27.264,-4.608 10.176,-4.608 15.552,-11.328 5.376,-6.528 6.912,-14.208 1.728,-7.68 1.728,-13.632 z"
         style="fill:#e6e6e6"
         id="path942" />
      <path
         d="m -192.79727,-2128.2001 v -22.464 h -27.264 v 22.464 z m -27.264,15.36 v 99.264 h 27.264 v -99.264 z"
         style="fill:#e6e6e6"
         id="path944" />
      <path
         d="m -171.32927,-2112.8401 v 99.264 h 27.264 v -52.032 q 0,-15.168 4.992,-21.696 4.992,-6.72 16.128,-6.72 9.792,0 13.632,6.144 3.84,5.952 3.84,18.24 v 56.064 h 27.264004 v -61.056 q 0,-9.216 -1.728,-16.704 -1.536,-7.68 -5.568,-12.864 -4.032,-5.376 -11.136,-8.256 -6.912004,-3.072 -17.856004,-3.072 -8.64,0 -16.896,4.032 -8.256,3.84 -13.44,12.48 h -0.576 v -13.824 z"
         style="fill:#e6e6e6"
         id="path946" />
      <path
         d="m -58.481266,-2082.3121 q 0.576,-9.6 4.8,-15.936 4.224,-6.336 10.752,-10.176 6.528,-3.84 14.592,-5.376 8.256,-1.728 16.512,-1.728 7.4880004,0 15.1680004,1.152 7.6799996,0.96 14.0159996,4.032 6.336,3.072 10.368,8.64 4.032,5.376 4.032,14.4 v 51.648 q 0,6.72 0.768,12.864 0.768,6.144 2.688,9.216 H 7.5667344 q -0.768,-2.304 -1.344,-4.608 -0.384,-2.496 -0.576,-4.992 -6.52800002,6.72 -15.36,9.408 -8.8320004,2.688 -18.0480004,2.688 -7.104,0 -13.248,-1.728 -6.144,-1.728 -10.752,-5.376 -4.608,-3.648 -7.296,-9.216 -2.496,-5.568 -2.496,-13.248 0,-8.448 2.88,-13.824 3.072,-5.568 7.68,-8.832 4.8,-3.264 10.752,-4.8 6.144,-1.728 12.288,-2.688 6.144,-0.96 12.096,-1.536 5.9520004,-0.576 10.5600004,-1.728 4.60799998,-1.152 7.296,-3.264 2.688,-2.304 2.496,-6.528 0,-4.416 -1.536,-6.912 -1.344,-2.688 -3.84000002,-4.032 -2.30399998,-1.536 -5.56799998,-1.92 -3.072,-0.576 -6.7200004,-0.576 -8.064,0 -12.672,3.456 -4.608,3.456 -5.376,11.52 z m 62.9760004,20.16 q -1.728,1.536 -4.41600003,2.496 -2.49599997,0.768 -5.56799997,1.344 -2.88,0.576 -6.1440004,0.96 -3.264,0.384 -6.528,0.96 -3.072,0.576 -6.144,1.536 -2.88,0.96 -5.184,2.688 -2.112,1.536 -3.456,4.032 -1.344,2.496 -1.344,6.336 0,3.648 1.344,6.144 1.344,2.496 3.648,4.032 2.304,1.344 5.376,1.92 3.072,0.576 6.336,0.576 8.0640004,0 12.4800004,-2.688 4.41599998,-2.688 6.528,-6.336 2.112,-3.84 2.496,-7.68 0.576,-3.84 0.576,-6.144 z"
         style="fill:#e6e6e6"
         id="path948" />
      <path
         d="m 87.480734,-2112.8401 v -29.76 h -27.264 v 29.76 h -16.512 v 18.24 h 16.512 v 58.56 q 0,7.488 2.496,12.096 2.496,4.608 6.72,7.104 4.416,2.496 9.984,3.264 5.76,0.96 12.096,0.96 4.032,0 8.256,-0.192 4.223996,-0.192 7.679996,-0.768 v -21.12 q -1.92,0.384 -4.032,0.576 -2.112,0.192 -4.415996,0.192 -6.912,0 -9.216,-2.304 -2.304,-2.304 -2.304,-9.216 v -49.152 h 19.967996 v -18.24 z"
         style="fill:#e6e6e6"
         id="path950" />
      <path
         d="m 148.45273,-2128.2001 v -22.464 h -27.264 v 22.464 z m -27.264,15.36 v 99.264 h 27.264 v -99.264 z"
         style="fill:#e6e6e6"
         id="path952" />
      <path
         d="m 194.11273,-2063.1121 q 0,-5.952 1.152,-11.712 1.152,-5.76 3.84,-10.176 2.88,-4.416 7.488,-7.104 4.608,-2.88 11.52,-2.88 6.912,0 11.52,2.88 4.8,2.688 7.488,7.104 2.88,4.416 4.032,10.176 1.152,5.76 1.152,11.712 0,5.952 -1.152,11.712 -1.152,5.568 -4.032,10.176 -2.688,4.416 -7.488,7.104 -4.608,2.688 -11.52,2.688 -6.912,0 -11.52,-2.688 -4.608,-2.688 -7.488,-7.104 -2.688,-4.608 -3.84,-10.176 -1.152,-5.76 -1.152,-11.712 z m -27.264,0 q 0,11.904 3.648,21.504 3.648,9.6 10.368,16.512 6.72,6.72 16.128,10.368 9.408,3.648 21.12,3.648 11.712,0 21.12,-3.648 9.6,-3.648 16.32,-10.368 6.72,-6.912 10.368,-16.512 3.648,-9.6 3.648,-21.504 0,-11.904 -3.648,-21.504 -3.648,-9.792 -10.368,-16.512 -6.72,-6.912 -16.32,-10.56 -9.408,-3.84 -21.12,-3.84 -11.712,0 -21.12,3.84 -9.408,3.648 -16.128,10.56 -6.72,6.72 -10.368,16.512 -3.648,9.6 -3.648,21.504 z"
         style="fill:#e6e6e6"
         id="path954" />
      <path
         d="m 287.29573,-2112.8401 v 99.264 h 27.264 v -52.032 q 0,-15.168 4.992,-21.696 4.992,-6.72 16.128,-6.72 9.792,0 13.632,6.144 3.84,5.952 3.84,18.24 v 56.064 h 27.264 v -61.056 q 0,-9.216 -1.728,-16.704 -1.536,-7.68 -5.568,-12.864 -4.032,-5.376 -11.136,-8.256 -6.912,-3.072 -17.856,-3.072 -8.64,0 -16.896,4.032 -8.256,3.84 -13.44,12.48 h -0.576 v -13.824 z"
         style="fill:#808080"
         id="path956" />
    </g>
    <g
       aria-label="engineer"
       transform="matrix(0.48671041,0,0,0.48671041,129.07733,555.60621)"
       style="font-style:normal;font-weight:normal;font-size:40px;line-height:1.25;font-family:sans-serif;letter-spacing:0px;word-spacing:0px;fill:#000000;fill-opacity:1;stroke:none"
       id="flowRoot829">
      <path
         d="m -271.38827,-2073.8641 h -44.352 q 0.192,-2.88 1.152,-6.528 1.152,-3.648 3.648,-6.912 2.688,-3.264 6.912,-5.376 4.416,-2.304 10.944,-2.304 9.984,0 14.784,5.376 4.992,5.376 6.912,15.744 z m -44.352,17.28 h 71.616 q 0.768,-11.52 -1.92,-22.08 -2.688,-10.56 -8.832,-18.816 -5.952,-8.256 -15.36,-13.056 -9.408,-4.992 -22.08,-4.992 -11.328,0 -20.736,4.032 -9.216,4.032 -15.936,11.136 -6.72,6.912 -10.368,16.512 -3.648,9.6 -3.648,20.736 0,11.52 3.456,21.12 3.648,9.6 10.176,16.512 6.528,6.912 15.936,10.752 9.408,3.648 21.12,3.648 16.896,0 28.8,-7.68 11.904,-7.68 17.664,-25.536 h -24 q -1.344,4.608 -7.296,8.832 -5.952,4.032 -14.208,4.032 -11.52,0 -17.664,-5.952 -6.144,-5.952 -6.72,-19.2 z"
         style="fill:#808080"
         id="path925" />
      <path
         d="m -227.95427,-2112.8401 v 99.264 h 27.264 v -52.032 q 0,-15.168 4.992,-21.696 4.992,-6.72 16.128,-6.72 9.792,0 13.632,6.144 3.84,5.952 3.84,18.24 v 56.064 h 27.264 v -61.056 q 0,-9.216 -1.728,-16.704 -1.536,-7.68 -5.568,-12.864 -4.032,-5.376 -11.136,-8.256 -6.912,-3.072 -17.856,-3.072 -8.64,0 -16.896,4.032 -8.256,3.84 -13.44,12.48 h -0.576 v -13.824 z"
         style="fill:#808080"
         id="path927" />
      <path
         d="m -67.682266,-2037.0001 q -6.336,0 -10.56,-2.688 -4.224,-2.688 -6.912,-6.912 -2.496,-4.224 -3.648,-9.408 -0.96,-5.376 -0.96,-10.752 0,-5.568 1.152,-10.56 1.344,-5.184 4.032,-9.024 2.88,-4.032 6.912,-6.336 4.224,-2.304 9.984,-2.304 6.72,0 11.136,2.496 4.416,2.496 7.104,6.72 2.688,4.224 3.84,9.792 1.152,5.376 1.152,11.52 0,5.376 -1.536,10.368 -1.344,4.8 -4.224,8.64 -2.88,3.84 -7.296,6.144 -4.416,2.304 -10.176,2.304 z m 49.152,17.088 v -92.928 h -25.92 v 13.248 h -0.384 q -4.992,-8.64 -12.48,-12.288 -7.296,-3.648 -17.088,-3.648 -10.368,0 -18.432,4.032 -7.872004,4.032 -13.248004,10.944 -5.376,6.72 -8.256,15.744 -2.688,8.832 -2.688,18.432 0,10.176 2.304,19.392 2.496,9.024 7.68,15.936 5.184,6.72 13.248004,10.752 8.064,3.84 19.2,3.84 9.024,0 17.088,-3.648 8.256,-3.84 12.672,-11.712 h 0.384 v 13.056 q 0.192,10.56 -5.184,17.472 -5.184,6.912 -16.704,6.912 -7.296,0 -12.864,-3.072 -5.568,-2.88 -7.488,-10.56 h -27.072004 q 0.576,8.448 4.608,14.4 4.224,6.144 10.368004,9.984 6.336,3.84 13.824,5.568 7.68,1.92 14.976,1.92 17.088,0 27.264,-4.608 10.176,-4.608 15.552,-11.328 5.376,-6.528 6.912,-14.208 1.728,-7.68 1.728,-13.632 z"
         style="font-style:normal;font-variant:normal;font-weight:bold;font-stretch:normal;font-size:192px;font-family:'Helvetica Neue';-inkscape-font-specification:'Helvetica Neue Bold'"
         id="path929" />
      <path
         d="m 31.452734,-2128.2001 v -22.464 H 4.1887344 v 22.464 z m -27.2639996,15.36 v 99.264 H 31.452734 v -99.264 z"
         style="font-style:normal;font-variant:normal;font-weight:bold;font-stretch:normal;font-size:192px;font-family:'Helvetica Neue';-inkscape-font-specification:'Helvetica Neue Bold'"
         id="path931" />
      <path
         d="m 52.920734,-2112.8401 v 99.264 h 27.264 v -52.032 q 0,-15.168 4.992,-21.696 4.992,-6.72 16.127996,-6.72 9.792,0 13.632,6.144 3.84,5.952 3.84,18.24 v 56.064 h 27.264 v -61.056 q 0,-9.216 -1.728,-16.704 -1.536,-7.68 -5.568,-12.864 -4.032,-5.376 -11.136,-8.256 -6.912,-3.072 -17.856,-3.072 -8.64,0 -16.895996,4.032 -8.256,3.84 -13.44,12.48 h -0.576 v -13.824 z"
         style="font-style:normal;font-variant:normal;font-weight:bold;font-stretch:normal;font-size:192px;font-family:'Helvetica Neue';-inkscape-font-specification:'Helvetica Neue Bold'"
         id="path933" />
      <path
         d="m 233.73673,-2073.8641 h -44.352 q 0.192,-2.88 1.152,-6.528 1.152,-3.648 3.648,-6.912 2.688,-3.264 6.912,-5.376 4.416,-2.304 10.944,-2.304 9.984,0 14.784,5.376 4.992,5.376 6.912,15.744 z m -44.352,17.28 h 71.616 q 0.768,-11.52 -1.92,-22.08 -2.688,-10.56 -8.832,-18.816 -5.952,-8.256 -15.36,-13.056 -9.408,-4.992 -22.08,-4.992 -11.328,0 -20.736,4.032 -9.216,4.032 -15.936,11.136 -6.72,6.912 -10.368,16.512 -3.648,9.6 -3.648,20.736 0,11.52 3.456,21.12 3.648,9.6 10.176,16.512 6.528,6.912 15.936,10.752 9.408,3.648 21.12,3.648 16.896,0 28.8,-7.68 11.904,-7.68 17.664,-25.536 h -24 q -1.344,4.608 -7.296,8.832 -5.952,4.032 -14.208,4.032 -11.52,0 -17.664,-5.952 -6.144,-5.952 -6.72,-19.2 z"
         style="font-style:normal;font-variant:normal;font-weight:bold;font-stretch:normal;font-size:192px;font-family:'Helvetica Neue';-inkscape-font-specification:'Helvetica Neue Bold'"
         id="path935" />
      <path
         d="m 343.98673,-2073.8641 h -44.352 q 0.192,-2.88 1.152,-6.528 1.152,-3.648 3.648,-6.912 2.688,-3.264 6.912,-5.376 4.416,-2.304 10.944,-2.304 9.984,0 14.784,5.376 4.992,5.376 6.912,15.744 z m -44.352,17.28 h 71.616 q 0.768,-11.52 -1.92,-22.08 -2.688,-10.56 -8.832,-18.816 -5.952,-8.256 -15.36,-13.056 -9.408,-4.992 -22.08,-4.992 -11.328,0 -20.736,4.032 -9.216,4.032 -15.936,11.136 -6.72,6.912 -10.368,16.512 -3.648,9.6 -3.648,20.736 0,11.52 3.456,21.12 3.648,9.6 10.176,16.512 6.528,6.912 15.936,10.752 9.408,3.648 21.12,3.648 16.896,0 28.8,-7.68 11.904,-7.68 17.664,-25.536 h -24 q -1.344,4.608 -7.296,8.832 -5.952,4.032 -14.208,4.032 -11.52,0 -17.664,-5.952 -6.144,-5.952 -6.72,-19.2 z"
         style="font-style:normal;font-variant:normal;font-weight:bold;font-stretch:normal;font-size:192px;font-family:'Helvetica Neue';-inkscape-font-specification:'Helvetica Neue Bold'"
         id="path937" />
      <path
         d="m 387.42073,-2112.8401 v 99.264 h 27.264 v -44.736 q 0,-6.72 1.344,-12.48 1.344,-5.76 4.416,-9.984 3.264,-4.416 8.448,-6.912 5.184,-2.496 12.672,-2.496 2.496,0 5.184,0.384 2.688,0.192 4.608,0.576 v -25.344 q -3.264,-0.96 -5.952,-0.96 -5.184,0 -9.984,1.536 -4.8,1.536 -9.024,4.416 -4.224,2.688 -7.488,6.72 -3.264,3.84 -5.184,8.448 h -0.384 v -18.432 z"
         style="font-style:normal;font-variant:normal;font-weight:bold;font-stretch:normal;font-size:192px;font-family:'Helvetica Neue';-inkscape-font-specification:'Helvetica Neue Bold'"
         id="path939" />
    </g>
    <path
       style="fill:#808080;fill-opacity:1;stroke:none;stroke-width:0.26458332px;stroke-linecap:butt;stroke-linejoin:miter;stroke-opacity:1"
       d="m -67.884523,-553.90005 14.340166,-29.20146 8.905368,11.43657 z"
       id="path831"
       inkscape:connector-curvature="0"
       sodipodi:nodetypes="cccc" />
    <g
       aria-label="a"
       transform="matrix(0.48671041,0,0,0.48671041,185.32278,480.8107)"
       style="font-style:normal;font-weight:normal;font-size:40px;line-height:1.25;font-family:sans-serif;letter-spacing:0px;word-spacing:0px;fill:#000000;fill-opacity:1;stroke:none"
       id="flowRoot849">
      <path
         d="m -339.35627,-2082.3121 q 0.576,-9.6 4.8,-15.936 4.224,-6.336 10.752,-10.176 6.528,-3.84 14.592,-5.376 8.256,-1.728 16.512,-1.728 7.488,0 15.168,1.152 7.68,0.96 14.016,4.032 6.336,3.072 10.368,8.64 4.032,5.376 4.032,14.4 v 51.648 q 0,6.72 0.768,12.864 0.768,6.144 2.688,9.216 h -27.648 q -0.768,-2.304 -1.344,-4.608 -0.384,-2.496 -0.576,-4.992 -6.528,6.72 -15.36,9.408 -8.832,2.688 -18.048,2.688 -7.104,0 -13.248,-1.728 -6.144,-1.728 -10.752,-5.376 -4.608,-3.648 -7.296,-9.216 -2.496,-5.568 -2.496,-13.248 0,-8.448 2.88,-13.824 3.072,-5.568 7.68,-8.832 4.8,-3.264 10.752,-4.8 6.144,-1.728 12.288,-2.688 6.144,-0.96 12.096,-1.536 5.952,-0.576 10.56,-1.728 4.608,-1.152 7.296,-3.264 2.688,-2.304 2.496,-6.528 0,-4.416 -1.536,-6.912 -1.344,-2.688 -3.84,-4.032 -2.304,-1.536 -5.568,-1.92 -3.072,-0.576 -6.72,-0.576 -8.064,0 -12.672,3.456 -4.608,3.456 -5.376,11.52 z m 62.976,20.16 q -1.728,1.536 -4.416,2.496 -2.496,0.768 -5.568,1.344 -2.88,0.576 -6.144,0.96 -3.264,0.384 -6.528,0.96 -3.072,0.576 -6.144,1.536 -2.88,0.96 -5.184,2.688 -2.112,1.536 -3.456,4.032 -1.344,2.496 -1.344,6.336 0,3.648 1.344,6.144 1.344,2.496 3.648,4.032 2.304,1.344 5.376,1.92 3.072,0.576 6.336,0.576 8.064,0 12.48,-2.688 4.416,-2.688 6.528,-6.336 2.112,-3.84 2.496,-7.68 0.576,-3.84 0.576,-6.144 z"
         style="font-style:normal;font-variant:normal;font-weight:bold;font-stretch:normal;font-size:192px;font-family:'Helvetica Neue';-inkscape-font-specification:'Helvetica Neue Bold'"
         id="path922" />
    </g>
    <g
       aria-label="m"
       transform="matrix(0.48671041,0,0,0.48671041,100.38681,480.7918)"
       style="font-style:normal;font-weight:normal;font-size:40px;line-height:1.25;font-family:sans-serif;letter-spacing:0px;word-spacing:0px;fill:#000000;fill-opacity:1;stroke:none"
       id="flowRoot861">
      <path
         d="m -337.43627,-2112.8401 v 99.264 h 27.264 v -57.6 q 0,-7.296 2.112,-11.712 2.112,-4.608 4.992,-6.912 3.072,-2.496 6.144,-3.264 3.264,-0.96 5.184,-0.96 6.528,0 9.792,2.304 3.456,2.112 4.8,5.76 1.536,3.648 1.728,8.064 0.192,4.224 0.192,8.64 v 55.68 h 27.264 v -55.296 q 0,-4.608 0.576,-9.024 0.768,-4.608 2.688,-8.064 2.112,-3.648 5.568,-5.76 3.648,-2.304 9.408,-2.304 5.76,0 9.024,1.92 3.456,1.92 5.184,5.184 1.728,3.264 2.112,7.68 0.384,4.416 0.384,9.408 v 56.256 h 27.264 v -66.432 q 0,-9.6 -2.688,-16.32 -2.688,-6.912 -7.488,-11.136 -4.8,-4.224 -11.52,-6.144 -6.72,-1.92 -14.592,-1.92 -10.368,0 -18.048,4.992 -7.488,4.992 -11.904,11.52 -4.032,-9.216 -11.904,-12.864 -7.68,-3.648 -17.088,-3.648 -9.792,0 -17.472,4.224 -7.488,4.224 -12.864,11.904 h -0.384 v -13.44 z"
         style="font-style:normal;font-variant:normal;font-weight:bold;font-stretch:normal;font-size:192px;font-family:'Helvetica Neue';-inkscape-font-specification:'Helvetica Neue Bold'"
         id="path919" />
    </g>
    <g
       aria-label="i"
       transform="matrix(0.48671041,0,0,0.48671041,75.709687,480.81542)"
       style="font-style:normal;font-weight:normal;font-size:40px;line-height:1.25;font-family:sans-serif;letter-spacing:0px;word-spacing:0px;fill:#000000;fill-opacity:1;stroke:none"
       id="flowRoot873">
      <path
         d="m -310.17227,-2128.2001 v -22.464 h -27.264 v 22.464 z m -27.264,15.36 v 99.264 h 27.264 v -99.264 z"
         style="font-style:normal;font-variant:normal;font-weight:bold;font-stretch:normal;font-size:192px;font-family:'Helvetica Neue';-inkscape-font-specification:'Helvetica Neue Bold'"
         id="path916" />
    </g>
    <flowRoot
       xml:space="preserve"
       id="flowRoot875"
       style="font-style:normal;font-weight:normal;font-size:40px;line-height:1.25;font-family:sans-serif;letter-spacing:0px;word-spacing:0px;fill:#000000;fill-opacity:1;stroke:none"
       transform="scale(0.26458333)"><flowRegion
         id="flowRegion877"><rect
           id="rect879"
           width="328.57144"
           height="45.714287"
           x="-314.28571"
           y="-2486.0518" /></flowRegion><flowPara
         id="flowPara881"></flowPara></flowRoot>  </g>
</svg>
