<svg xmlns:svg="http://www.w3.org/2000/svg" xmlns="http://www.w3.org/2000/svg" height="555.33557" width="542.28571" version="1.2"><style>.s0{fill:#666;}.s1{fill:#e9ddaf;}.s2{fill:#decd87;}.s3{fill:#d2427c;}.s4{fill:#bd3a6f;}.s5{fill:#f1eacc;stroke-width:2.20000005;stroke:#4b4b4b;}.s6{fill:#4d4d4d;}.s7{fill:#ff8080;}.s8{fill:#d35f5f;}.s9{fill:#e6e6e6;}.s10{fill:#3e6a92;}.s11{fill:#4776a1;}.s12{fill:#507ca3;}.s13{fill:#526372;}.s14{fill:#dce2e7;}.s15{fill:#788796;}.s16{fill:#ffc177;}.s17{fill:#60605f;}.s18{fill:#f1eacc;}.s19{fill:#454748;}</style><g transform="translate(-211.15944,-406.2055)"/><g transform="translate(-211.15944,-97.9375)"/><g transform="translate(-211.15944,-97.9375)"><path d="m488.25 106.9375c-17.78071 0-35.45381 8.66377-46.69954 22.28877-5.53495 6.70598-7.17486 15.72848-10.39151 24.52576-3.26407 8.92695-7.03395 17.31669-7.03395 27.62297 0 16.0251 4.52668 27.11229 9.71297 34.53317 3.89616 4.25641 6.76805 8.44226 17.59061 10.07397 9.71319 0.50011 9.75626-0.75609 16.07142-1.60714l37.5 0c8.10386 1.83162 10.05181 2.89087 18.39286 2.32143 8.96863-1.97427 11.51859-5.08035 17.52678-9.64286 7.60335-6.60944 11.45536-19.65347 11.45536-35.67857 0-7.77635-1.02794-15.27488-2.93471-22.32234-2.48653-9.19026-7.5991-15.98071-13.3981-22.7424-5.52412-6.44118-9.02971-13.84036-15.42514-19.20501C511.81372 109.72079 500.05546 106.9375 488.25 106.9375z" fill="#666"/></g><g transform="translate(-211.15944,-97.9375)"><rect y="213.25932" x="472.01331" height="24.243662" width="29.763803" fill="#e9ddaf"/></g><g transform="translate(-211.15944,-97.9375)"><path d="m472.05344 209.8125c-0.0447 0.12536-0.0837 0.24845-0.12276 0.375l0 5.125c2.05922 6.66426 11.95993 11.71875 23.89911 11.71875 2.08436 0 4.08502-0.17902 6.01571-0.46875l0-16.75-29.79206 0z" fill="#decd87"/></g><g transform="translate(-211.15944,-97.9375)"><rect transform="matrix(0.96117284,0.27594703,-0.39823215,0.91728466,0,0)" y="194.67365" x="492.68393" ry="13.217121" height="55.480072" width="60.974297" fill="#e9ddaf"/><rect transform="matrix(-0.96117284,0.27594703,0.39823215,0.91728466,0,0)" y="467.59256" x="-406.32529" ry="13.217121" height="55.480072" width="60.974297" fill="#e9ddaf"/></g><g transform="translate(-211.15944,-97.9375)"><rect y="232.95731" x="415.19302" ry="32.324871" height="111.11675" width="141.42133" fill="#e9ddaf"/><path d="m447.53125 232.96875c-17.90798 0-32.34375 14.40452-32.34375 32.3125l0 46.46875c0 17.90798 14.43577 32.3125 32.34375 32.3125l76.75 0c17.90798 0 32.34375-14.40452 32.34375-32.3125l0-46.46875c0-17.7215-14.13287-32.01655-31.78125-32.3125-0.70024 7.85142-17.36771 14.125-37.84375 14.125-20.47604 0-37.14351-6.27358-37.84375-14.125l-1.625 0zM431.0625 242.25 431.0625 242.25 431.0625 242.25 431.0625 242.25 431.0625 242.25" fill="#d2427c"/><path d="m431.0625 242.25c-5.64642 0.22616-10.95251 3.86171-13.21875 9.65625l-35.375 90.46875c-0.6509 1.66429-0.96365 3.35431-1.03125 5.03125 3.98323-2.26153 9.20503-3.65625 14.9375-3.65625 5.8017 0 11.06185 1.40824 15.0625 3.71875l33.25-85.0625c3.02165-7.72605-0.53294-16.31061-7.96875-19.21875-1.85895-0.72704-3.77411-1.01289-5.65625-0.9375z" fill="#d2427c"/><path d="m541.72579 244.51542c5.64642 0.22616 10.95251 3.86171 13.21875 9.65625l35.375 90.46875c0.6509 1.66429 0.96365 3.35431 1.03125 5.03125-3.98323-2.26153-9.20503-3.65625-14.9375-3.65625-5.8017 0-11.06185 1.40824-15.0625 3.71875l-33.25-85.0625c-3.02165-7.72605 0.53294-16.31061 7.96875-19.21875 1.85895-0.72704 3.77411-1.01289 5.65625-0.9375z" fill="#d2427c"/></g><g transform="translate(-211.15944,-97.9375)"><path d="m437.44477 271.56138-9.53985 41.05511 16.21282 2.74828zM532.84352 269.18394l9.53985 41.05511-16.21282 2.74828M532.84352 269.18394l9.53985 41.05511-16.21282 2.74828M532.84352 269.18394l9.53985 41.05511-16.21282 2.74828M532.84352 269.18394l9.53985 41.05511-16.21282 2.74828M532.84352 269.18394l9.53985 41.05511-16.21282 2.74828" fill="#bd3a6f"/><path d="m532.84352 269.18394 9.53985 41.05511-16.21282 2.74828z" fill="#bd3a6f"/></g><g transform="translate(-211.15944,-97.9375)"><path transform="translate(-1.4285714,14.285714)" d="m532.85714 156.23734a42.857143 45 0 1 1-85.71428 0 42.857143 45 0 1 1 85.71428 0z" fill="#e9ddaf"/></g><g transform="translate(-211.15944,-97.9375)"><path d="m485.35713 173.8885c-0.32735 3.6727-0.26021 8.06421-3.67427 10.16388-2.51196 1.54487-7.95091 1.32782-11.5043 1.32782-3.81463 0-9.88911 0.2663-12.55563-1.48321-3.19333-2.09517-2.62294-6.50572-2.62294-9.94536 0-4.70359-2.017-7.33334 3.43252-7.36946 1.91546-0.0127 9.6994 0.048 11.83534 0.048 2.63793 0 1.64918-0.0882 10.50273 0.15263 1.54386 0.042 2.46908 0.23056 3.34387 0.92547 0.71072 0.56459 1.00279 1.37505 1.08986 1.85915 0.29536 1.64216 0.37886 1.78507 0.15282 4.32105z" class="s5"/><path transform="translate(1.4285715,0.35714286)" d="m471.42858 175.34448a1.9642857 1.9642857 0 1 1-3.92857 0 1.9642857 1.9642857 0 1 1 3.92857 0zM486.42857 168.3802l1.09048-0.39401 1.3872-0.16403 1.46527 0.18057 1.05705 0.37747M486.42857 168.3802l1.09048-0.39401 1.3872-0.16403 1.46527 0.18057 1.05705 0.37747M486.42857 168.3802l1.09048-0.39401 1.3872-0.16403 1.46527 0.18057 1.05705 0.37747M486.42857 168.3802l1.09048-0.39401 1.3872-0.16403 1.46527 0.18057 1.05705 0.37747M486.42857 168.3802l1.09048-0.39401 1.3872-0.16403 1.46527 0.18057 1.05705 0.37747" fill="#4d4d4d"/><path d="m486.42857 168.3802 1.09048-0.39401 1.3872-0.16403 1.46527 0.18057 1.05705 0.37747c0.74533 0.26616 1.42857 0.63715 1.42857 1.42857 0 0.79143-0.63714 1.42858-1.42857 1.42858l-1.00446-0.53571-1.47322-0.2009-1.3616 0.24554-1.16072 0.49107C485.69969 171.54572 485 170.6002 485 169.80877c0-0.79142 1.42857-1.42857 1.42857-1.42857z" fill="#4d4d4d"/><rect y="187.66591" x="483.92856" ry="1.4285715" height="2.8571429" width="10.357142" fill="#decd87"/><rect y="199.45163" x="483.31891" ry="3.0357137" height="6.0714273" width="11.428572" fill="#ff8080"/><rect y="201.6732" x="483.23172" ry="0.82074893" height="1.6414979" width="11.743023" fill="#d35f5f"/><path d="m492.64154 173.89729c0.32735 3.6727 0.26021 8.06421 3.67427 10.16388 2.51196 1.54487 7.95091 1.32782 11.5043 1.32782 3.81463 0 7.99507 0.2663 10.66159-1.48321 3.19333-2.09517 4.51698-6.50572 4.51698-9.94536 0-4.70359 2.017-7.33334-3.43252-7.36946-1.91546-0.0127-9.6994 0.048-11.83534 0.048-2.63793 0-1.64918-0.0882-10.50273 0.15263-1.54386 0.042-2.46908 0.23056-3.34387 0.92547-0.71072 0.56459-1.00279 1.37505-1.08986 1.85915-0.29536 1.64216-0.37886 1.78507-0.15282 4.32105z" class="s5"/><path transform="matrix(-1,0,0,1,976.39154,0.36593495)" d="m471.42858 175.34448a1.9642857 1.9642857 0 1 1-3.92857 0 1.9642857 1.9642857 0 1 1 3.92857 0z" fill="#4d4d4d"/></g><g transform="translate(-211.15944,-97.9375)"><path d="m482.00502 121.21152c6.55566 5.25799 13.50476 9.99323 20.54013 14.57873 7.41064 4.7976 15.04096 9.28681 23.11607 12.87245 3.4396 1.61371 7.02964 2.79241 10.79654 3.28283 1.10246 0.0957 0.58291 0.0628 1.55811 0.10666 0 0-6.00753 4.28472-6.00753 4.28472l0 0c-0.93224-0.12367-0.43903-0.0486-1.47852-0.23241-3.65247-0.74955-7.12007-2.03568-10.4295-3.76687-7.7936-3.95662-15.23045-8.5645-22.54245-13.34494-6.82663-4.39909-2.63052-1.68063-9.3626-6.0759-3.50622-2.28915-6.99588-4.65137-10.61373-6.76478-0.57487-0.33582-1.17585-0.62481-1.76378-0.93721 0 0 6.18726-4.00328 6.18726-4.00328zM492.5518 121.86768 492.5518 121.86768 492.5518 121.86768 492.5518 121.86768 492.5518 121.86768" fill="#666"/><path d="m492.5518 121.86768c4.39114 1.56841 8.64399 3.48185 12.90231 5.37285 4.43031 1.95981 8.81025 4.05205 13.34961 5.75176 2.65834 1.11202 5.49222 1.72959 8.17981 2.73661 2.08782 0.72629 4.04109 1.7702 6.01728 2.75001 1.12783 0.70527 2.16766 1.53339 3.16901 2.40639 1.00045 0.79046 1.55924 1.88549 2.00053 3.05257 1.42706 4.13527-0.83001 2.96623-6.34204 6.23853-1.27842 0.14291-2.56813 0.11654-3.85238 0.11073-1.83735-0.28375-3.562-0.93632-5.19663-1.80332-1.95163-1.12035-3.91177-2.22429-5.89673-3.28459-1.78046-1.2926-3.65548-2.425-5.54076-3.5525-1.27825-0.68992-2.64684-1.17192-3.99415-1.70418-1.62743-0.78179-3.22745-1.59871-4.91775-2.23802-2.10532-0.65649-3.98208-1.72835-5.84288-2.87894-0.8974-0.37255-1.6148-1.04687-2.44344-1.52812-0.31696-0.18408-0.65436-0.33126-0.97195-0.51424-0.65839-0.35236-1.16683-0.92164-1.80137-1.31095-0.61848-0.31557-1.13236-0.78824-1.69255-1.1909-0.29204-0.23147-0.6361-0.36576-0.97602-0.50699 0 0 6.23324-4.12076 6.23324-4.12076l0 0c0.35613 0.18826 0.71249 0.37836 1.03336 0.62452 0.56326 0.3929 1.09972 0.82341 1.69808 1.16526 0.58548 0.4213 1.10542 0.92836 1.72546 1.2999 1.1463 0.66156 2.19139 1.46256 3.33385 2.13326 1.79232 1.17369 3.67259 2.12192 5.72193 2.77628 1.71354 0.63224 3.33254 1.47017 5.01181 2.18579 1.38491 0.52712 2.77142 1.06965 4.04668 1.83346 1.82022 1.17673 3.60662 2.40393 5.43685 3.5641 1.98129 1.06497 3.93249 2.18361 5.91272 3.25017 1.5993 0.7529 3.28119 1.38226 5.06454 1.47757 1.24525-0.0177 2.57752 0.0652 3.74192-0.43793-1.99942 1.21413-4.01844 2.39654-5.99825 3.64238-0.0774 0.0487 0.2028 0.0217 0.27145-0.0387 0.0651-0.0572 0.06-0.16617 0.0601-0.25277 0.00035-0.45679-0.20117-0.91251-0.29461-1.35082-0.37694-1.06352-0.90654-2.02449-1.8219-2.72115-0.96177-0.81827-1.9051-1.66762-2.99499-2.31588-1.89375-1.03656-3.83734-1.99286-5.86914-2.72972-2.69344-0.91886-5.42576-1.73051-8.04763-2.8532-4.43232-1.8427-8.71628-4.02376-13.11707-5.94004-4.33803-1.9066-8.69485-3.92459-13.36593-4.87051 0 0 6.06762-4.22795 6.06762-4.22795z" fill="#666"/><path d="m491.00208 130.99792c-2.22973-0.4955-4.36796-1.34567-6.45443-2.26229 0 0 6.05298-4.0225 6.05298-4.0225l0 0c2.0701 0.92907 4.19677 1.84066 6.49081 1.99129 0 0-6.08936 4.2935-6.08936 4.2935z" fill="#666"/><path d="m475.94023 122.00737c-1.76944 7.25299-2.8927 14.65523-4.57504 21.93522-1.4814 6.24341-3.2887 12.40439-5.87198 18.28453-1.62394 4.57829-4.07558 8.67118-6.81508 12.64223-2.54913 3.37798-5.00979 6.85711-7.75785 10.07258-2.03308 2.18862-1.03003 1.05096-3.00343 3.41801-42.29242 33.78207-17.94719-2.85158-20.65557-8.66227 2.68592-5.73145 5.02631-11.54825 6.46227-17.75742 2.01375-7.03312 3.36202-14.30407 3.93841-21.59598z" fill="#666"/><path d="m482.59318 121.23106c4.34016 3.93666 8.26076 8.31033 12.29699 12.55237 5.14643 5.15011 10.4806 10.11078 16.10862 14.73124 4.74036 3.71467 9.50965 7.43123 14.50086 10.8089 2.88051 2.04984 6.01646 3.73653 9.2372 5.18643 2.91371 1.05455 5.74922 2.32814 8.56111 3.62699 2.50393 0.8802 4.64801 2.46786 6.98739 3.67288-5.48674 4.16769 0.005-4.42664 4.00756 3.43512 1.94207 10.32613-3.35555 10.19688-4.26107 8.20088-1.93344-0.354-3.83995-0.84294-5.78695-1.12452-2.22244-0.51675-4.31913-1.36888-6.34746-2.41358-2.25858-1.26474-4.41592-2.71597-6.84626-3.65203-2.82534-1.27985-5.68937-2.46805-8.55738-3.64832-3.21692-1.57717-6.39568-3.28241-9.21217-5.51645-4.8023-3.61946-9.53396-7.34056-14.22641-11.09868-5.64852-4.67584-11.00996-9.6841-16.17143-14.89173-4.02755-4.2268-8.00605-8.68055-12.94661-11.86468z" fill="#666"/><path d="m523.29214 163.99035c-4.93664-2.6164-9.75438-5.46028-14.50927-8.39331-2.94539-1.95238-5.9603-3.80742-8.84048-5.85625-1.27119-0.83299-2.35244-1.88654-3.2677-3.09047-0.70456-1.07125-1.68426-1.84241-2.18798-3.04406 4.30551-2.68647 8.50793-5.54571 12.91653-8.05943 0.20978-0.11961 0.43339 0.21326 0.64714 0.32564 2.06745 1.08692 4.20258 2.03038 6.28261 3.09584 5.0302 2.19954 9.77119 4.90429 14.21148 8.12264 2.48059 1.94935 5.0073 3.84639 7.61825 5.61605 1.37303 1.14675 2.57996 2.43458 3.22751 4.11033 0.57062 1.41281 1.2648 2.77238 1.79537 4.20042 0.44136 1.31365 1.23583 2.61586 0.68359 4.00035-8.86741 5.59515-9.9079 9.62832-15.96038 6.41025 0 0 12.49951-8.24448 12.49951-8.24448l0 0c4.85504 2.12407 15.72527-8.2348-10.45973 7.4888 0.28879-0.0188 0.668 0.2266 0.86801 0.0174 0.2175-0.22743-0.61513-2.09983-0.67391-2.43753-0.51829-1.42996-1.24946-2.77178-1.79706-4.19225-0.49004-1.39014-1.60636-2.45009-2.69958-3.40265-2.47987-1.89207-4.9293-3.82264-7.32137-5.82578-4.32531-3.26166-9.01757-5.90174-14.06859-7.88889-1.79772-0.80506-3.60606-1.65738-5.49072-2.24839-0.32716-0.1026-0.65922-0.20952-1.00101-0.23665-0.15491-0.0123-0.58012 0.20653-0.45007 0.12147 4.14074-2.70832 8.33388-5.33566 12.50083-8.0035-0.47269 0.14101 1.55771 1.93707 1.7139 2.41055 0.86278 1.06379 1.83191 2.00426 2.94921 2.80388 2.74543 2.06406 5.446 4.18669 8.32466 6.06707 4.71596 3.03941 9.57431 5.96882 14.8735 7.87984 0 0-12.38425 8.25307-12.38425 8.25307z" fill="#666"/></g><g transform="translate(-211.15944,-97.9375)"><rect y="294.09448" x="404.85715" ry="8.5714283" height="104.28571" width="164.28572" fill="#e6e6e6"/><path transform="matrix(0.7,0,0,1,145.14285,2)" d="m505.71427 342.66592a14.285714 10 0 1 1-28.57143 0 14.285714 10 0 1 1 28.57143 0z" fill="#fff"/><rect y="395.62628" x="406.89032" ry="0.57399768" height="5.1658897" width="162.85713" fill="#ccc"/></g><g transform="translate(-211.15944,-97.9375)"><path d="m407.57946 408.71875c-0.30951 1.70737-0.47477 3.44657-0.47477 5.22735l0 6.45578c0 19.27756 18.7826 34.788 42.12708 34.788l75.32865 0c23.34448 0 42.12708-15.51044 42.12708-34.788l0-6.45578c0-1.78068-0.16528-3.52008-0.47476-5.22735l-158.63328 0z" fill="#3e6a92"/><path d="m451.4289 414.13545c-20.56994 0-37.28043 16.94605-37.28043 37.83741 0 1.42083 0.10967 2.81576 0.25992 4.19591l74.00389 0c0.15024-1.38015 0.25993-2.77508 0.25993-4.19591 0-20.89136-16.67336-37.83741-37.24331-37.83741z" fill="#4776a1"/><path d="m523.5762 415.32367c-20.56995 0-37.2433 16.90892-37.2433 37.80028 0 1.01673 0.0339 2.04833 0.11133 3.04482l74.26381 0c0.0775-0.99649 0.11134-2.02809 0.11134-3.04482 0-20.89136-16.67335-37.80028-37.2433-37.80028z" fill="#507ca3"/></g><g transform="translate(-211.15944,-97.9375)"><path d="m376.28125 444.59375 0 7.0625c0 6.99532 5.62968 12.625 12.625 12.625l193.4375 0c6.99532 0 12.625-5.62968 12.625-12.625l0-7.0625-218.6875 0z" fill="#526372"/></g><g transform="translate(-211.15944,-97.9375)"><path d="m464.84375 422.8125c-11.89989 0-21.46875 11.29063-21.46875 25.28125l0 157.5625c0 2.79477 0.38705 5.49094 1.09375 8l40.78125 0c0.7067-2.50906 1.09375-5.20523 1.09375-8l0-157.5625c0-13.99062-9.60011-25.28125-21.5-25.28125z" fill="#4776a1"/><path d="m509.53125 423.84375c-11.89989 0-21.46875 11.25938-21.46875 25.25l0 157.59375c0 2.42899 0.30421 4.74885 0.84375 6.96875l41.28125 0C530.72649 611.43738 531 609.11522 531 606.6875l0-157.59375c0-13.99062-9.56886-25.25-21.46875-25.25z" fill="#507ca3"/><rect y="613.66003" x="450.65433" ry="0" height="29.482368" width="32.829956" fill="#e9ddaf"/><rect y="613.60754" x="490.39212" ry="0" height="29.482368" width="32.829956" fill="#e9ddaf"/></g><g transform="translate(-211.15944,-97.9375)"><path d="m457.01548 637.28379c-7.2349 0-13.04673 6.12511-13.04673 13.75l0 1.375 42.16466 0 0-1.375c0-7.62489-5.81183-13.75-13.04673-13.75l-16.0712 0zM501.19154 637.28379 501.19154 637.28379 501.19154 637.28379 501.19154 637.28379 501.19154 637.28379" fill="#dce2e7"/><path d="m501.19154 637.28379c-7.36489 0-13.28115 6.12511-13.28115 13.75l0 1.375 42.92227 0 0-1.375c0-7.62489-5.91625-13.75-13.28115-13.75l-16.35997 0z" fill="#dce2e7"/></g><g transform="translate(-211.15944,-97.9375)"><rect y="411.23734" x="259.42859" ry="0" height="241.42857" width="17.142857" fill="#788796"/><rect y="405.52304" x="696" ry="0.65599734" height="247.32141" width="16.964312" fill="#788796"/><rect y="411.41592" x="305.14285" ry="0" height="241.25003" width="15.714279" fill="#526372"/><rect y="411.30878" x="650.57141" ry="0" height="241.96428" width="16.071411" fill="#526372"/></g><g transform="translate(-211.15944,-97.9375)"><rect y="400.73227" x="220.15944" ry="0.65599734" height="11.428572" width="524.28571" fill="#deaa87"/></g><g transform="translate(-211.15944,-97.9375)"><rect transform="matrix(0.96088931,-0.27693271,0.27693271,0.96088931,0,0)" y="485.29584" x="561.14258" height="50.348961" width="5.3431549" fill="#788796"/><rect transform="matrix(0.96088931,-0.27693271,0.27693271,0.96088931,0,0)" y="485.15863" x="562.89307" height="50.368793" width="1.7016735" fill="#e6e6e6"/><path d="m673.64588 310.93419 5.01336-1.45315-5.4493-8.50091z" fill="#ffc177"/><path d="m673.15326 300.8785 0.15055 2.80626 1.35956-0.44112z" fill="#60605f"/><rect transform="matrix(0.99558463,-0.09386819,0.09386819,0.99558463,0,0)" y="381.37048" x="656.02319" height="50.348961" width="5.3431549" fill="#3e6a92"/><rect transform="matrix(0.99558463,-0.09386819,0.09386819,0.99558463,0,0)" y="381.23328" x="657.77368" height="50.368793" width="1.7016735" fill="#507ca3"/><path d="m688.97664 318.13426 5.19592-0.49789-3.77768-9.36426z" fill="#ffc177"/><path d="m690.35804 308.16173-0.37266 2.78548 1.41779-0.18125z" fill="#60605f"/><rect transform="matrix(0.97399705,0.22656067,-0.22656067,0.97399705,0,0)" y="143.57283" x="779.92841" height="50.348961" width="5.3431549" fill="#d35f5f"/><rect transform="matrix(0.97399705,0.22656067,-0.22656067,0.97399705,0,0)" y="143.43562" x="781.67889" height="50.368793" width="1.7016735" fill="#526372"/><path d="m727.16012 316.58291 5.08579 1.17483-0.61451-10.07882z" fill="#ffc177"/><path d="m731.63145 307.56255-1.23641 2.52371 1.40213 0.27752z" fill="#60605f"/><rect y="308.21365" x="697.76288" height="56.568542" width="10.354064" style="fill:#e6e6e6;stroke-width:0.01;stroke:#000"/><path d="m712.38978 350.8926 0.89286-46.12519 1.91569-9.01741 0.71166 0.0893 0.71429 9.16534-2.46673 45.88797z" fill="#788796"/><path d="m714.8666 296.02482c0 0-3.05184-0.79122-1.43173-3.50396 1.62012-2.71275 2.41133-5.57621 2.41133-5.57621 0 0 2.26219 4.23614 2.26725 5.91528 0.00059 0.20928 0.0581 0.37708-0.007 0.73472-0.0921 0.50921-0.32126 1.09559-0.7639 1.55359-0.64028 0.66249-1.64743 0.91426-1.64743 0.91426z" fill="#526372"/><path d="m713.19409 359.73748 6.71397-45.64267 3.03975-8.70307 0.69468 0.17851-0.44955 9.18213-8.24525 45.20848z" fill="#507ca3"/><path d="m722.99613 305.70188c0 0-1.87093-1.25155-0.62473-3.91 1.24623-2.65845 1.97908-5.58877 1.97908-5.58877 0 0 1.09211 4.79882 0.95972 6.58052-0.0166 0.22206 0.007 0.40781-0.0639 0.77836-0.0995 0.52766-0.29215 1.11867-0.60977 1.54464-0.45944 0.61619-1.1183 0.74716-1.1183 0.74716z" fill="#526372"/></g><g transform="translate(-211.15944,-97.9375)"><rect y="360.4682" x="281.43942" ry="18.97427" height="37.94854" width="45.503448" fill="#dce2e7"/><rect y="359.63818" x="281.48859" ry="0" height="20.990852" width="45.444118" fill="#dce2e7"/><path d="m271.56209 396.40746c-0.0475 0.23314-0.0803 0.47545-0.0803 0.72301 0 0.2204 0.0425 0.43352 0.0803 0.64268l0-1.36569zm0 1.36569c0.30206 1.67044 1.74783 2.9456 3.50794 2.9456l58.91205 0c1.76011 0 3.1791-1.27516 3.48117-2.9456l-65.90116 0z" fill="#d3dce3"/><path d="m278.52825 362.143c-5.91568 0-10.71128 5.08477-10.71128 11.38074 0 6.29597 4.7956 11.40751 10.71128 11.40751 5.91568 0 10.71128-5.11154 10.71128-11.40751 0-6.29597-4.7956-11.38074-10.71128-11.38074zm1.44602 4.28451c4.18323 0 7.57824 3.28077 7.57824 7.33723 0 4.05647-3.39501 7.33723-7.57824 7.33723-4.18322 0-7.55145-3.28076-7.55145-7.33723 0-4.05646 3.36823-7.33723 7.55145-7.33723z" fill="#dce2e7"/><rect y="384.80878" x="591.65283" ry="2.7008936" height="15.714272" width="82.990089" fill="#788796"/><rect y="387.3187" x="591.39636" ry="0" height="10.590821" width="80.957726" fill="#f9f9f9"/><path d="m664.98893 392.00645 0 6.42395 1.88317-3.4724 2.35396 3.4724-0.2354-6.42395z" fill="#bd3a6f"/><rect y="387.89572" x="664.99603" height="4.9481707" width="4.0088754" fill="#bd3a6f"/><rect y="350.91019" x="685.18384" ry="8.6312504" height="49.732441" width="40.279171" fill="#ff8080"/><rect y="350.91019" x="685.18384" ry="0" height="33.291988" width="40.183689" fill="#ff8080"/><flowRoot xml:space="preserve" transform="matrix(2.5961471,0,0,3.2043867,-1133.1216,-845.07755)" style="fill:#d35f5f;font-family:Sans;font-size:40px;letter-spacing:0px;line-height:125%;word-spacing:0px"><flowRegion><rect y="375.16592" x="703.57141" height="16.160709" width="18.303589" fill="#d35f5f"/></flowRegion><flowPara style="-inkscape-font-specification:Arial Bold;fill:#d35f5f;font-family:Arial;font-size:8px;font-weight:bold">{;}</flowPara></flowRoot><path transform="translate(211.15944,97.9375)" d="m85.862966 242.18828c0 0 1.907423 1.84618 2.055847 4.76806 0.0621 1.22259-0.600403 2.68559-1.171963 4.19705-1.420527 3.7565-2.083439 4.73509-1.641498 7.70241 0.419654 2.81768 0.631345 2.77792 0.631345 2.77792 0 0-0.287455-2.87491 0.07926-5.25955 0.273602-1.77915 1.093287-2.9635 1.688507-4.21063 1.325825-2.77792 2.04197-5.89504 0.526741-7.88733-1.102404-1.44949 0.04147-0.2886-2.168239-2.08793zM299.29525 333.30725 299.29525 333.30725 299.29525 333.30725 299.29525 333.30725 299.29525 333.30725" fill="#f1eacc"/><path d="m299.29525 333.30725c0 0 7.5175 8.68062 5.11839 13.60512-2.39912 4.92449-2.71928 6.21913-2.08793 8.99705 0.63134 2.77792 0.63134 2.77792 0.63134 2.77792 0 0-0.25254-6.98944 1.76777-9.51482 2.0203-2.52538 1.29703-8.31182-0.25254-10.18316-1.653-1.99625-1.61721-2.01636-5.17703-5.68211z" fill="#f1eacc"/><path d="m309.90185 339.99951c0 0 3.50621 4.17454 1.1071 9.09904-2.39912 4.92449-2.49606 4.79056-1.86471 7.56848 0.63134 2.77792 0.63134 2.77792 0.63134 2.77792 0 0-1.36861-5.02516 0.6517-7.55054 2.0203-2.52538 2.13125-3.93075 2.26781-7.30697 0.0736-1.81959-1.91199-3.73468-2.79324-4.58793z" fill="#f1eacc"/><path d="m289.95134 338.98936c0 0 3.50621 4.17454 1.1071 9.09904-2.39912 4.92449-2.49606 4.79056-1.86471 7.56848 0.63134 2.77792 0.63134 2.77792 0.63134 2.77792 0 0-1.36861-5.02516 0.6517-7.55054 2.0203-2.52538 2.13125-3.93075 2.26781-7.30697 0.0736-1.81959-1.91199-3.73468-2.79324-4.58793z" fill="#f1eacc"/><path d="m317.22546 337.85294c0 0 1.90742 1.84618 2.05584 4.76806 0.0621 1.22259-0.6004 2.68559-1.17196 4.19705-1.42053 3.7565-2.08344 4.73509-1.6415 7.70241 0.41966 2.81768 0.63135 2.77792 0.63135 2.77792 0 0-0.28746-2.87491 0.0793-5.25955 0.2736-1.77915 1.09328-2.9635 1.6885-4.21063 1.32583-2.77792 2.04197-5.89504 0.52675-7.88733-1.10241-1.44949 0.0415-0.2886-2.16824-2.08793z" fill="#f1eacc"/></g><g transform="translate(-211.15944,-97.9375)"><rect y="395.07925" x="353.21429" ry="0.90901279" height="5.4438052" width="40" fill="#454748"/><rect y="396.85455" x="393.20187" ry="0.074179515" height="1.7844001" width="0.25253814" fill="#454748"/></g></svg>