<?xml version="1.0" encoding="UTF-8" standalone="no"?>
<svg
   xmlns:dc="http://purl.org/dc/elements/1.1/"
   xmlns:cc="http://creativecommons.org/ns#"
   xmlns:rdf="http://www.w3.org/1999/02/22-rdf-syntax-ns#"
   xmlns:svg="http://www.w3.org/2000/svg"
   xmlns="http://www.w3.org/2000/svg"
   height="50.840546"
   width="230.68182"
   xml:space="preserve"
   viewBox="0 0 230.68182 50.840546"
   y="0px"
   x="0px"
   id="Layer_1"
   version="1.1"><metadata
     id="metadata9"><rdf:RDF><cc:Work
         rdf:about=""><dc:format>image/svg+xml</dc:format><dc:type
           rdf:resource="http://purl.org/dc/dcmitype/StillImage" /><dc:title></dc:title></cc:Work></rdf:RDF></metadata><defs
     id="defs7" /><path
     id="path3"
     d="m 1.8181818,5.9614544 q 0.2454546,-0.09818 0.4172727,-0.147273 0.1718182,-0.04909 0.3681819,-0.04909 1.4236363,0 2.3072727,1.030909 0.4418182,0.54 0.6136363,1.104545 0.1718182,0.564546 0.27,1.202727 0.049091,0.54 0.1718182,1.0063636 0.1227273,0.466364 0.2209091,1.006364 0.098182,0.294545 0.098182,0.441818 0.098182,1.08 0.3436364,2.110909 0.2454543,1.030909 0.3436362,2.110909 0.049091,0.54 0.049091,1.030909 0,0.490909 0.049091,1.030909 l 0,1.08 q 0.049091,0 0.073636,0.02455 0.024546,0.02454 0.073636,0.02454 l 0.2945455,-0.589091 q 0.2454545,-0.54 0.4418181,-1.08 0.1963637,-0.54 0.4418182,-1.08 0.6872728,-1.521818 1.5463637,-2.920909 0.8590902,-1.399091 1.8409092,-2.773636 0.883637,-1.3254546 2.061818,-2.5036366 0.834546,-0.834545 1.816364,-1.35 0.981818,-0.515454 2.159999,-0.711818 0.441819,-0.09818 0.883637,-0.04909 0.441819,0.04909 0.932727,0.04909 0.54,0 1.055455,0.171818 0.515455,0.17182 1.006364,0.417274 1.129091,0.589091 1.669091,1.865455 0.392727,0.883636 0.638182,1.7918176 0.245454,0.908182 0.441818,1.840909 0.147273,0.834545 0.147273,1.669091 0,2.798182 -0.687273,5.694545 -0.392727,1.669091 -0.662727,3.338182 -0.27,1.669091 -0.662728,3.387273 -0.147272,0.687273 -0.343636,1.35 -0.196364,0.662727 -0.392727,1.35 -0.04909,0.196363 -0.07364,0.343636 -0.02454,0.147273 -0.07364,0.392727 0.147273,-0.09818 0.245455,-0.122727 0.09818,-0.02454 0.196363,-0.07364 1.227273,-0.834546 2.798182,-1.374546 0.441818,-0.147272 0.81,-0.392727 0.368182,-0.245454 0.760909,-0.441818 0.392727,-0.245455 0.785455,-0.417273 0.392734,-0.171814 0.785461,-0.368178 0.294546,-0.147272 0.736364,-0.147272 0.392727,-0.04909 0.54,0.392727 0.09818,0.245454 -0.02455,0.368182 -0.122727,0.122727 -0.27,0.171818 -0.687272,0.245454 -1.227272,0.613636 -0.54,0.368182 -1.08,0.760909 -0.245455,0.147273 -1.129091,0.687273 -0.883637,0.54 -1.89,1.104546 -1.006364,0.564545 -1.865455,1.055454 -0.859091,0.490909 -1.006363,0.589091 -0.09818,0.04909 -0.245455,0.294545 -0.245454,0.392728 -0.441818,0.711819 -0.196364,0.319091 -0.392727,0.711818 -0.245455,0.441818 -0.417273,0.908182 -0.171818,0.466363 -0.368182,0.908181 -0.09818,0.196364 -0.171818,0.368182 -0.07364,0.171818 -0.171818,0.319091 -0.245455,0.392727 -0.417273,0.736364 -0.171818,0.343636 -0.417273,0.736363 -0.196363,0.245455 -0.417272,0.49091 -0.22091,0.245454 -0.466364,0.490909 -0.392727,0.490909 -0.981818,0.883636 l -0.883637,0.687273 q 0,0 -0.981818,0.589091 -0.981818,0.589091 -1.055454,0.392727 -0.07364,-0.196364 -1.104546,0.04909 -0.883636,-0.245455 -1.08,-0.932727 -0.09818,-0.539999 -0.269996,-1.055454 -0.171818,-0.515455 -0.319091,-1.055455 -0.09818,-0.441818 0,-0.834545 0.09818,-0.392727 0.343637,-0.785455 0.392727,-0.687272 0.883636,-1.227272 0.490909,-0.54 1.030909,-1.08 0.687273,-0.687273 1.497273,-1.153637 0.81,-0.466363 1.693636,-0.81 0.392727,-0.147272 0.54,-0.490909 0.343637,-1.08 0.687273,-2.110909 0.343636,-1.030909 0.736364,-2.061818 0.490909,-1.227273 0.736363,-2.454545 0.245455,-1.227273 0.54,-2.503637 0.147273,-0.687273 0.245455,-1.325454 l 0.196363,-1.276364 q 0,-0.245455 -0.04909,-0.343636 -0.245454,-0.687273 -0.147272,-1.423637 l 0.196362,-1.472727 q 0.04909,-0.589091 0.04909,-1.153636 0,-0.564546 -0.09818,-1.153637 -0.09818,-0.54 -0.122727,-1.129091 -0.02454,-0.589091 -0.122727,-1.129091 l -0.09818,-0.785454 -0.09818,-0.785455 q -0.04909,-0.294545 -0.07364,-0.564545 -0.02455,-0.2699996 -0.122727,-0.5645456 -0.09818,-0.294545 -0.147274,-0.613636 -0.04909,-0.319091 -0.147273,-0.613636 -0.196363,-0.54 -0.736363,-0.343637 -0.392728,0.196364 -0.81,0.368182 -0.417273,0.171818 -0.81,0.417273 -0.441819,0.294545 -0.883637,0.638182 -0.441818,0.343636 -0.736363,0.8345446 -0.245455,0.343637 -0.515455,0.613637 -0.27,0.27 -0.515455,0.613636 -0.392727,0.441818 -0.760909,0.908182 -0.368181,0.466363 -0.711818,0.957272 -0.294545,0.49091 -0.564545,0.981819 -0.27,0.490909 -0.515455,0.981818 -0.441818,0.981818 -0.8836363,1.914545 -0.4418182,0.932728 -0.8345454,1.865455 -0.1963637,0.441818 -0.3190909,0.908182 -0.1227273,0.466363 -0.319091,0.957272 -0.2454545,0.687273 -0.4663636,1.325455 -0.2209091,0.638182 -0.4663636,1.325454 -0.1472728,0.294546 -0.1472728,0.638182 l 0,1.08 q 0,0 -0.049091,1.08 0,0.196364 -0.024545,0.368182 -0.024546,0.171818 -0.073636,0.417273 -0.098182,0.392727 -0.1718182,0.834545 -0.073636,0.441818 -0.1718181,0.883637 -0.049091,0.196363 -0.098182,0.368181 -0.049091,0.171819 -0.049091,0.368182 -0.098182,0.392728 -0.1472727,0.834546 -0.049091,0.441818 -0.098182,0.834545 -0.049091,0.687273 -0.073636,1.374546 -0.024545,0.687272 -0.073636,1.374545 -0.049091,0.441818 -0.1227273,0.859091 -0.073636,0.417273 -0.1227273,0.81 0,0.490909 0.049091,0.736364 0.049091,0.392727 0.073636,0.736363 0.024545,0.343637 -0.2209091,0.736364 0,0.04909 -0.049091,0.09818 -0.049091,0.589091 -0.098182,1.153636 -0.049091,0.564546 -0.1472728,1.104546 -0.049091,0.294545 -0.049091,0.58909 0,0.294546 -0.098182,0.54 -0.1472727,0.785455 -0.27,1.521819 -0.1227274,0.736365 -0.319091,1.52182 -0.098182,0.490909 -0.2454545,0.981818 -0.1472728,0.490909 -0.2454546,0.981818 l -0.2945454,1.276364 q 0,0 -0.3436364,1.325454 -0.098182,0.490909 -0.3927273,0.834546 -0.2945454,0.343636 -0.6381818,0.638182 -0.2454545,0.245454 -0.54,0.196363 -0.2945455,-0.04909 -0.54,-0.196363 -1.27636363,-0.736364 -1.42363635,-2.16 -0.0981818,-0.736364 -0.0981818,-1.472728 l 0,-1.423636 q -0.0490909,-0.981818 -0.0490909,-1.914545 l 0,-1.914546 -0.0981818,-2.356364 q 0,0 0.0490909,-2.356363 0.0981818,-0.687273 0.0736364,-1.399091 -0.0245454,-0.711818 -0.0245454,-1.448182 0,-1.178182 0.12272727,-2.356364 0.12272727,-1.178181 0.27,-2.307272 0.14727273,-1.423637 0.29454546,-2.871818 0.14727274,-1.448182 0.19636364,-2.871819 0.049091,-1.718181 0.1718182,-3.436363 0.1227272,-1.718182 0.2209091,-3.436364 0.049091,-0.687273 0.073636,-1.325454 0.024545,-0.638182 0.1227271,-1.325455 L 1.8672727,12.392363 2.0636364,10.625091 2.3581818,8.4160004 q 0.1472727,-1.276364 -0.54,-2.454546 z M 11.930909,38.557818 q 0.09818,0.04909 0.196364,0.04909 0.687273,-0.343637 1.178182,-0.859091 0.490909,-0.515455 0.883636,-1.104546 0.196364,-0.294545 -0.245455,-0.54 -1.227272,0.883637 -2.012727,2.454546 z m 19.145455,2.405454 q 0.04909,-0.441818 0.04909,-0.932727 0,-0.490909 0.09818,-0.932727 0.09818,-0.589091 0.147273,-1.153637 0.04909,-0.564545 0.147273,-1.153636 0.04909,-0.245454 0.07364,-0.417273 0.02455,-0.171818 0.02455,-0.368181 0.09818,-0.785455 0.319091,-1.497273 0.220909,-0.711818 0.417272,-1.399091 0.147273,-0.441818 0.220909,-0.81 0.07364,-0.368182 0.171819,-0.760909 0.04909,-0.147273 0.04909,-0.294546 0.147272,-0.981818 -0.834546,-1.472727 -0.441818,-0.245454 -0.932727,-0.466364 -0.490909,-0.220909 -0.932727,-0.466363 -0.49091,-0.343637 -0.957273,-0.613637 -0.466364,-0.27 -0.908182,-0.662727 -0.736364,-0.54 -1.300909,-1.227273 -0.564546,-0.687272 -0.81,-1.62 -0.04909,-0.245454 -0.07364,-0.466363 -0.02455,-0.220909 -0.07364,-0.417273 -0.147273,-1.472727 0.147273,-2.945454 0.09818,-0.392728 0.27,-0.81 0.171818,-0.417273 0.368182,-0.81 0.09818,-0.147273 0.147272,-0.294546 0.04909,-0.147273 0.147273,-0.294545 0.196364,-0.392728 0.245455,-0.589091 0.09818,-0.294546 0.294545,-0.490909 0.196364,-0.196364 0.392727,-0.441819 0.245455,-0.245454 0.294546,-0.392727 0.343636,-0.343636 0.687273,-0.490909 0.392727,-0.09818 0.81,-0.09818 0.417272,0 0.81,0.09818 0.392727,0.04909 0.711818,0.122727 0.319091,0.07364 0.662727,0.171819 0.294546,0.04909 0.638182,0.343636 0.09818,0.147273 0.220909,0.245454 0.122727,0.09818 0.220909,0.196364 0.343636,0.245455 0.490909,0.54 0.147273,0.392727 0.09818,0.638182 0,0.343636 0.04909,0.54 0.04909,0.147273 0,0.294545 l -0.09818,0.294546 q -0.04909,0.196363 -0.07364,0.319091 -0.02455,0.122727 -0.02455,0.27 0,0.196363 -0.196363,0.687272 -0.09818,0.245455 -0.220909,0.466364 -0.122728,0.220909 -0.22091,0.466364 -0.09818,0.245454 -0.245454,0.490909 -0.147273,0.245454 -0.343636,0.490909 -0.54,0.981818 -1.374546,1.570909 l -0.343636,0.343636 q -0.196364,0.196364 -0.04909,0.392728 0.392727,0.589091 0.834545,1.104545 0.441818,0.515455 1.08,0.81 0.490909,0.245455 0.908182,0.417273 0.417283,0.171818 0.859101,0.417273 0.687273,0.245454 1.521818,0.834545 l 0.490909,0.392727 q 0,0 0.392728,0.490909 0.147272,0.245455 0.27,0.490909 0.122727,0.245455 0.07364,0.49091 -0.09818,0.04909 -0.04909,0.09818 0.04909,0.04909 0.04909,0.147273 0.09818,0.343636 0.09818,0.711818 0,0.368182 -0.09818,0.760909 l 0,0.04909 q 0.09818,0.343637 -0.07364,0.638182 -0.171819,0.294546 -0.171819,0.638182 -0.04909,0.196364 -0.171818,0.441818 -0.122727,0.245455 -0.220909,0.490909 -0.04909,0.245455 -0.09818,0.515455 -0.04909,0.27 -0.147272,0.515454 -0.09818,0.589091 -0.22091,1.153637 -0.122727,0.564545 -0.220909,1.104545 -0.196363,0.638182 -0.220909,1.300909 -0.02455,0.662727 -0.07364,1.300909 0,0.294546 -0.02455,0.589091 -0.02454,0.294546 -0.02454,0.589091 0.04909,0.343636 0.122727,0.613636 0.07364,0.27 0.171818,0.564546 0.09818,0.54 0.147273,0.957273 0.04909,0.417272 0.294546,0.859091 0.245454,0.490909 0.687272,0.932727 0.441819,0.441818 0.981819,0.196363 0.245454,-0.147272 0.392727,-0.31909 0.147273,-0.171819 0.343636,-0.368182 0.09818,-0.09818 0.196364,-0.343637 l 0.392727,-0.687272 q 0,0 0.441818,-0.687273 0,-0.09818 0.09818,-0.294546 0.294546,-0.54 0.564546,-1.12909 0.27,-0.589091 0.515454,-1.129091 0.04909,-0.09818 0.04909,-0.171819 0,-0.07364 0.04909,-0.171818 0.196364,-0.54 0.392727,-1.055454 0.196364,-0.515455 0.441818,-1.055455 0.09818,-0.392727 0.27,-0.711818 0.171819,-0.319091 0.27,-0.760909 0.09818,-0.294546 0.196364,-0.54 0.09818,-0.245455 0.196364,-0.54 0.147272,-0.54 0.319091,-1.030909 0.171818,-0.490909 0.368181,-1.030909 0.09818,-0.392728 0.171819,-0.834546 0.07364,-0.441818 0.171818,-0.834545 0.09818,-0.245455 0.171818,-0.466364 0.07364,-0.220909 0.122727,-0.466363 0.09819,-0.245453 0.147278,-0.466362 0.04909,-0.220909 0.147273,-0.466364 0.245454,-0.687272 0.490909,-1.300909 0.245454,-0.613636 0.490909,-1.153636 0.294545,-0.638182 0.638182,-1.08 0.09818,-0.147273 0.343636,-0.122727 0.245455,0.02455 0.343636,0.171818 l 0.04909,0.09818 q -0.09818,0.245454 -0.07364,0.466363 0.02455,0.220909 0.02455,0.417273 l 0,0.27 q 0,0 -0.09818,0.27 -0.04909,0.09818 -0.04909,0.245454 0,0.392728 -0.09818,0.711819 -0.09818,0.319091 -0.196364,0.662727 -0.147273,0.392727 -0.343636,0.736364 -0.245455,0.736363 -0.515455,1.423636 -0.27,0.687273 -0.466363,1.374545 -0.04909,0.245455 -0.343637,1.055455 -0.294545,0.81 -0.687272,1.840909 l -0.785459,2.06182 q 0,0 -0.638182,1.62 -0.196363,0.392727 -0.319091,0.760909 -0.122727,0.368182 -0.27,0.711818 -0.04909,0.294546 -0.343636,0.687273 -0.245455,0.441818 -0.441818,0.908182 Q 40.6,43.516 40.354546,44.006909 q -0.04909,0.147272 -0.09818,0.27 -0.04909,0.122727 -0.147273,0.27 -0.04909,0.09818 -0.07364,0.196363 -0.02455,0.09818 -0.122728,0.196364 -0.147272,0.245455 -0.319091,0.392727 -0.171818,0.147273 -0.31909,0.343637 -0.245455,0.196363 -0.417273,0.417272 -0.171818,0.220909 -0.417273,0.417273 -0.147273,0.09818 -0.245454,0.147273 -0.09818,0.04909 -0.196364,0.147273 -0.294546,0.147272 -0.736364,0.294545 -0.245454,0.245455 -0.54,0.245455 -0.09818,0.04909 -0.147272,0.04909 -0.04909,0 -0.147273,0.09818 -0.441818,0.490909 -1.08,0.245455 -0.392727,0 -0.736364,-0.147273 -0.294545,0 -0.564545,-0.122727 -0.27,-0.122727 -0.515455,-0.220909 -1.62,-0.932728 -2.061818,-2.749091 -0.09818,-0.54 -0.147273,-1.08 -0.04909,-0.54 -0.147272,-1.030909 -0.04909,-0.392728 -0.07364,-0.711818 -0.02454,-0.319091 -0.02454,-0.711819 z M 30.143636,24.076 q 0.245455,-0.147273 0.515455,-0.417273 0.27,-0.27 0.417273,-0.515455 l 0.196363,-0.392727 q 0,0 0.245455,-0.294545 0.196364,-0.245455 0.319091,-0.515455 0.122727,-0.27 0.27,-0.564545 0.196363,-0.343637 0.196363,-0.687273 0.04909,-0.490909 0.122728,-1.006364 0.07364,-0.515454 0.171818,-1.055454 0,-0.196364 -0.04909,-0.343637 -0.343636,-0.589091 -1.030909,-0.932727 l -0.147273,0 q -0.147273,0 -0.147273,0.09818 0,0.147273 -0.122727,0.27 -0.122728,0.122729 -0.171819,0.220911 -0.245455,0.343636 -0.245455,0.638182 0,0.196363 -0.147272,0.392727 -0.245455,0.392727 -0.368182,0.908182 -0.122727,0.515454 -0.171818,1.006364 -0.04909,0.09818 -0.02455,0.147272 0.02455,0.04909 0.02455,0.147273 l 0,0.490909 0,0.515455 q 0,0 -0.04909,0.564545 0,0.294546 0.04909,0.638182 0.04909,0.343636 0.147272,0.687273 z m 20.618182,7.756363 q -0.09818,0.09818 -0.196363,0.171818 -0.09818,0.07364 -0.196364,0.171819 -0.441818,0.392727 -0.957273,0.711818 -0.515454,0.319091 -1.202727,0.368182 -0.441818,0.04909 -0.859091,0.171818 -0.417273,0.122727 -0.859091,0.171818 -0.834545,0.04909 -1.570909,-0.196364 -0.736364,-0.245454 -1.276364,-1.030909 -0.294545,-0.392727 -0.490909,-1.08 -0.441818,-1.669091 -0.09818,-3.289091 0.09818,-0.392727 0.122727,-0.736363 0.02454,-0.343637 0.122727,-0.736364 l 0.441818,-1.472727 q 0.147272,-0.441818 0.31909,-0.883637 0.171818,-0.441818 0.27,-0.883636 0.490909,-1.767273 1.718182,-3.190909 0.392727,-0.392727 0.785455,-0.932727 0.294545,-0.392728 0.711818,-0.638182 0.417272,-0.245455 0.859091,-0.392727 l 1.178181,-0.441819 q 0.54,-0.196363 1.055455,-0.220909 0.515455,-0.02454 1.055455,-0.122727 0.294545,0 0.441818,-0.04909 0.441818,-0.147273 0.859091,-0.122727 0.417272,0.02454 0.859091,0.122727 0.343636,0.04909 0.613636,0.27 0.27,0.220909 0.515454,0.515455 0.147273,0.245454 0.319091,0.466363 0.171819,0.220909 0.27,0.466364 0.441819,0.834545 -0.196363,1.423636 -0.147273,0.147272 -0.490909,0.147272 -0.196364,0.04909 -0.294546,-0.245454 -0.09818,-0.589091 -0.441818,-1.006364 -0.343636,-0.417273 -0.736364,-0.859091 l -0.147272,-0.147273 q -0.883637,-0.294545 -1.669091,-0.09818 -0.687273,0.147273 -1.276364,0.441819 -0.589091,0.294545 -0.981818,0.932727 -0.54,0.932727 -0.883636,1.988182 -0.343637,1.055454 -0.736364,2.037272 -0.196364,0.49091 -0.343636,0.981819 -0.147273,0.490909 -0.343637,0.981818 -0.392727,1.178182 -0.613636,2.307273 -0.220909,1.12909 0.07364,2.356363 0.147273,0.687273 0.932727,1.129091 0.785455,0.441818 1.423637,0.147273 0.834545,-0.392727 1.546363,-1.472727 0.711819,-1.08 1.153637,-1.865455 0.09818,-0.245455 0.147273,-0.54 0.04909,-0.294545 0.147272,-0.589091 0.09818,-0.294545 0.147273,-0.613636 0.04909,-0.319091 0.147273,-0.564546 0.09818,-0.441818 0.27,-0.883636 0.171818,-0.441818 0.319091,-0.883636 0.147272,-0.49091 0.319091,-0.932728 0.171818,-0.441818 0.27,-0.932727 0.245454,-0.785455 0.834545,-0.834545 0.245455,-0.09818 0.466364,-0.122728 0.220909,-0.02454 0.466363,-0.07364 0.589087,-0.04909 0.73636,0.490911 l 0.147273,0.294545 q 0.09818,0.392728 -0.09818,0.711819 -0.196364,0.319091 0,0.711818 0.04909,0.196363 0.02455,0.368182 -0.02455,0.171818 -0.02455,0.368181 0,0.785455 -0.220909,1.742728 -0.220909,0.957272 -0.368182,1.742727 -0.147273,0.883636 -0.196364,1.570909 -0.04909,0.687273 -0.196363,1.570909 -0.09818,0.294546 -0.147273,0.564546 -0.04909,0.27 -0.09818,0.564545 -0.09818,0.54 -0.147273,1.104546 -0.04909,0.564545 -0.147272,1.153636 -0.04909,0.245454 -0.07364,0.466364 -0.02454,0.220909 -0.02454,0.466363 0,0.147273 -0.04909,0.564546 -0.04909,0.417272 -0.02455,0.834545 0.02455,0.417273 0.245455,0.638182 0.220909,0.220909 0.760909,-0.02455 0.294546,-0.147272 0.908182,-0.711818 0.613636,-0.564545 0.81,-0.81 0.392727,-0.54 0.932727,-1.35 0.54,-0.81 0.834546,-1.448182 0.589091,-1.227272 1.35,-2.920909 0.760909,-1.693636 1.35,-2.920909 0.09818,-0.196363 0.09818,-0.417272 0,-0.22091 0.245455,-0.22091 0.147273,-0.04909 0.294545,-0.04909 0.147273,0 0.343637,-0.04909 0.343636,0 0.294545,0.294545 -0.04909,0.245455 -0.07364,0.466364 -0.02455,0.220909 -0.122727,0.417272 -0.147273,0.245455 -0.392728,0.76091 -0.245454,0.515454 -0.490909,1.08 -0.245454,0.564545 -0.466363,1.08 -0.220909,0.515454 -0.319091,0.760909 -0.490909,1.129091 -1.08,2.380909 -0.589091,1.251818 -1.35,2.43 -0.760909,1.178182 -1.718182,2.110909 -0.957273,0.932727 -2.184546,1.374545 -0.58909,0.196364 -1.472727,0.09818 -0.883636,-0.09818 -1.374545,-0.54 -0.294546,-0.196364 -0.441818,-0.54 -0.49091,-0.785454 -0.589091,-1.644545 -0.09818,-0.859091 -0.04909,-1.742728 l 0.09818,-1.374545 q 0,0 0.147272,-1.374546 l 0,-0.441818 z m 18.261818,2.650909 q -0.54,-0.638181 -1.030909,-1.178181 -0.638181,-0.589091 -1.251818,-1.202728 -0.613636,-0.613636 -1.251818,-1.202727 -1.178182,-1.030909 -2.012727,-2.061818 -0.687273,-0.834546 -1.300909,-1.644546 -0.613637,-0.81 -1.153637,-1.742727 -0.687272,-1.374545 -0.834545,-3.092727 0,-0.54 0.147273,-1.08 0.294545,-1.718182 1.521818,-3.092727 0.54,-0.687273 1.472727,-0.981819 0.54,-0.147272 1.030909,-0.171818 0.490909,-0.02455 0.981818,0.171818 0.392728,0.09818 0.54,0.147273 0.490909,0.09818 0.859091,0.319091 0.368182,0.220909 0.760909,0.466364 0.687273,0.441818 -0.04909,0.785454 -0.343636,0.09818 -0.687272,0.245455 -0.343637,0.147272 -0.736364,0.196363 -0.245455,0.09818 -0.490909,0.245455 -0.245455,0.294545 -0.490909,0.564545 -0.245455,0.27 -0.343637,0.662728 -0.04909,0.147272 -0.09818,0.27 -0.04909,0.122727 -0.147273,0.27 -0.245455,0.54 -0.09818,1.276363 0.09818,0.245455 0.171818,0.441818 0.07364,0.196364 0.27,0.392728 0.04909,0.04909 0.04909,0.09818 0.196364,0.441818 0.54,0.785454 0.343637,0.343636 0.638182,0.736364 0.09818,0.09818 0.245455,0.220909 0.147272,0.122727 0.245454,0.220909 0.687273,0.638182 1.399091,1.202727 0.711818,0.564546 1.399091,1.251818 0.392727,0.392728 0.736364,0.785455 0.343636,0.392727 0.736363,0.785454 0.245455,0.245455 0.441818,0.54 0.196364,0.294546 0.441819,0.54 0.147272,0.147273 0.294545,0.27 0.147273,0.122728 0.294545,0.27 0.392728,-0.196363 0.736364,-0.54 0.147273,-0.09818 0.343636,-0.294545 0.392728,-0.245455 0.662728,-0.564545 0.27,-0.319091 0.564545,-0.662728 0.245455,-0.245454 0.490909,-0.441818 0.245455,-0.196364 0.490909,-0.441818 0.392728,-0.392727 0.81,-0.760909 0.417271,-0.36818 0.711817,-0.859089 l 0.171818,-0.171818 0.171818,-0.171818 q 0.245454,-0.245455 0.589091,-0.09818 0.196363,0.09818 0.392727,0.122727 0.196364,0.02455 0.441818,0.07364 0.392728,0.147273 0.147273,0.490909 l -0.147273,0.147273 q -0.147272,0.147273 -0.171818,0.368182 -0.02455,0.220909 -0.27,0.319091 -0.196364,0.04909 -0.343636,0.196364 -0.147273,0.147266 -0.343637,0.294539 -0.245454,0.147273 -0.392727,0.392727 -0.147273,0.245455 -0.343636,0.441818 L 76.78,29.230545 76.583636,29.426909 q -0.147272,0.196363 -0.441818,0.490909 -0.196363,0.343636 -0.589091,0.687273 -0.147272,0.09818 -0.27,0.220909 -0.122727,0.122727 -0.171818,0.368181 0,0.04909 -0.07364,0.09818 -0.07364,0.04909 -0.122727,0.09818 -0.245455,0.147273 -0.294546,0.196364 -0.245454,0.245454 -0.441818,0.466363 -0.196364,0.220909 -0.441818,0.466364 -0.294546,0.196364 0,0.54 l 0.196363,0.294545 0.196364,0.294546 q 0.09818,0.09818 0.122727,0.196364 0.02455,0.09818 0.122728,0.196363 0.392727,0.441818 0.564545,0.957273 0.171818,0.515454 0.417273,1.055454 0.147272,0.589091 0.09818,1.03091 -0.04909,0.490909 0.147272,0.981818 0.343637,0.687272 0.417273,1.521818 0.07364,0.834545 -0.02455,1.669091 -0.09818,0.834545 -0.27,1.669091 -0.171819,0.834545 -0.368182,1.521818 -0.490898,1.570913 -1.472717,2.479095 -0.981818,0.908182 -2.110909,1.939091 -0.687272,0.687272 -1.865454,0.883636 -1.178182,0.196364 -2.061818,0.147273 -1.08,-0.09818 -1.89,-0.589091 -0.81,-0.490909 -1.546364,-1.227273 Q 64.310911,47.885091 64.114546,47.836 63.967273,47.73782 63.82,47.615091 63.672727,47.492363 63.574546,47.296 63.427273,47.050545 63.181818,46.903272 62.985455,46.756 62.887273,46.363272 62.543636,44.497818 63.181818,42.509636 63.82,40.521454 65.096364,38.950545 65.292727,38.754181 65.44,38.533272 65.587273,38.312363 65.734546,38.066909 65.98,37.821454 66.151818,37.576 q 0.171818,-0.245455 0.417273,-0.490909 0.54,-0.54 1.055455,-1.08 0.515454,-0.54 1.006363,-1.129091 l 0.196364,-0.196364 z m 0.981819,1.374546 q -0.343637,0.147273 -0.589091,0.417273 -0.245455,0.27 -0.490909,0.515454 -0.196364,0.245455 -0.343637,0.417273 -0.147272,0.171818 -0.392727,0.368182 -0.147273,0.147272 -0.319091,0.294545 -0.171818,0.147273 -0.319091,0.343636 -0.04909,0.147273 -0.343636,0.343637 -0.54,0.392727 -0.932727,0.834545 -0.392728,0.441818 -0.785455,0.932728 -0.196364,0.245454 -0.368182,0.466363 -0.171818,0.220909 -0.27,0.515455 l 0,0.04909 q -0.196363,0.196363 -0.245454,0.441818 -0.04909,0.245454 -0.147273,0.490909 -0.09818,0.294545 -0.147273,0.564545 -0.04909,0.27 -0.147273,0.564546 -0.147272,0.54 -0.147272,1.104545 0,0.564546 0.04909,1.104546 0.04909,0.392728 0.343637,0.613637 0.294545,0.220909 0.687273,0.122727 0.245454,0 0.54,-0.09818 0.09818,-0.04909 0.196363,-0.04909 0.09818,0 0.196364,-0.04909 0.883636,-0.147276 1.570909,-0.638185 0.392727,-0.245455 0.760909,-0.490909 0.368182,-0.245455 0.760909,-0.490909 0.245455,-0.196364 0.638182,-0.294546 0.294546,-0.09818 0.515455,-0.245454 0.220909,-0.147273 0.466363,-0.343637 0.147273,-0.147272 0.343637,-0.441818 0.392727,-1.08 0.343636,-2.061818 0,-0.785455 -0.07364,-1.570909 -0.07364,-0.785455 -0.319091,-1.521818 -0.04909,-0.09818 -0.04909,-0.196364 0,-0.09818 -0.04909,-0.196364 Q 70.741816,36.790545 70.152725,35.956 Z m 22.532727,-9.572727 q 0.04909,0.09818 0.294545,0.343636 -0.09818,0.294545 -0.196363,0.392727 -0.54,0.687273 -0.932728,1.62 -0.09818,0.09818 -0.09818,0.196364 0,0.441818 -0.245455,0.760909 -0.245454,0.319091 -0.343636,0.711818 -0.245455,0.245455 -0.368182,0.589091 -0.122727,0.343636 -0.368182,0.638182 -0.54,0.687273 -0.981818,1.423636 -0.441818,0.736364 -0.908182,1.472727 -0.466364,0.736364 -1.030909,1.399091 -0.564545,0.662728 -1.300909,1.202728 -0.589091,0.441818 -1.178182,0.908181 -0.589091,0.466364 -1.202727,0.834546 -0.613637,0.368182 -1.300909,0.589091 -0.687274,0.220909 -1.472729,0.171818 -0.54,-0.04909 -1.08,-0.220909 -0.54,-0.171818 -1.08,-0.319091 l -0.196363,-0.09818 Q 78.105455,38.606911 77.712727,38.28782 77.32,37.968729 76.976364,37.526911 q -0.883637,-1.325455 -0.981818,-3.043637 -0.04909,-0.981818 -0.02455,-1.89 0.02455,-0.908181 0.122727,-1.89 0.09818,-0.589091 0.147273,-1.202727 0.04909,-0.613636 0.09818,-1.202727 0,-0.147273 0.02455,-0.27 0.02455,-0.122727 0.07364,-0.27 0.147272,-0.589091 0.27,-1.178182 0.122727,-0.589091 0.220909,-1.227273 0.196363,-0.785454 0.466363,-1.497272 0.27,-0.711819 0.564546,-1.448182 l 0.09818,-0.196364 0.09818,-0.196364 q 0.245454,-0.245454 0.368181,-0.490909 0.122728,-0.245454 0.220909,-0.490909 0,-0.04909 0.02455,-0.07364 0.02454,-0.02455 0.02454,-0.07364 0.147273,-0.54 0.490909,-0.957273 0.343637,-0.417273 0.736364,-0.81 0.147273,-0.147273 0.343636,-0.245455 0.638182,-0.343636 1.276364,-0.589091 0.638182,-0.245454 1.325455,-0.343636 0.392727,-0.09818 0.785454,-0.171818 0.392727,-0.07364 0.785455,0.02454 0.343636,0 0.834545,0.09818 0.09818,0 0.147273,0.02455 0.04909,0.02455 0.147273,0.02455 1.178181,0.04909 1.595454,0.981818 0.417273,0.932727 0.294546,2.16 -0.122728,1.227273 -0.638182,2.380909 -0.515455,1.153637 -1.153637,1.644546 -0.196363,0.09818 -0.392727,0.220909 -0.196363,0.122727 -0.343636,0.319091 -0.09818,0.147272 -0.245455,0.147272 -0.196363,0.09818 -0.368182,0.196364 -0.171818,0.09818 -0.417272,0.196364 -0.441818,0.147272 -0.859091,0.294545 -0.417273,0.147273 -0.81,0.245455 -0.687273,0.09818 -0.785455,0.196363 -0.09818,0.09818 -0.245454,0.638182 -0.04909,0.196364 -0.07364,0.343637 -0.02455,0.147272 -0.02455,0.294545 0,0.932727 -0.171818,2.110909 -0.171818,1.178182 -0.294546,2.356364 -0.122716,1.178186 -0.04908,2.282731 0.07364,1.104545 0.662728,1.89 0.343636,0.490909 0.981818,0.736364 0.196363,0.147272 0.638182,0.04909 0.785454,-0.245455 1.276363,-0.638182 0.441818,-0.294546 0.859091,-0.589091 0.417273,-0.294546 0.81,-0.589091 0.343637,-0.294546 0.638182,-0.638182 0.441818,-0.589091 0.859091,-1.153636 0.417273,-0.564546 0.760909,-1.251818 0.09818,-0.147273 0.171818,-0.27 0.07364,-0.122728 0.171818,-0.22091 0.589091,-0.687272 1.030909,-1.472727 0.441819,-0.785454 0.932728,-1.521818 0.196363,-0.294545 0.245454,-0.441818 0.245455,-0.589091 0.564546,-1.104546 0.319091,-0.515454 0.711818,-1.055454 0.196364,-0.392727 0.54,-0.392727 z M 86.549091,20.639636 Q 86.205455,20.246909 86.058182,19.756 q 0,-0.147273 -0.147273,-0.245455 -0.392727,-0.392727 -0.81,-0.589091 -0.417273,-0.196363 -0.957273,-0.09818 -0.883636,0.147273 -1.12909,0.883637 -0.147273,0.392727 -0.319091,0.81 -0.171819,0.417272 -0.220909,0.908182 0,0.294545 -0.147273,0.490909 -0.196364,0.392727 -0.245455,0.834545 -0.04909,0.441818 -0.147272,0.834546 -0.04909,0.343636 -0.09818,0.638181 -0.04909,0.294544 -0.147275,0.589089 -0.09818,0.245455 -0.147273,0.417273 -0.04909,0.171818 0.04909,0.417273 1.276364,-0.147273 2.307273,-0.638182 0.785454,-0.392727 1.178182,-0.981818 0.343636,-0.441818 0.613636,-0.883637 0.27,-0.441818 0.564546,-0.932727 0.147272,-0.245454 0.04909,-0.392727 -0.04909,-0.294546 0.09818,-0.687273 0.04909,-0.09818 0.07364,-0.245454 0.02455,-0.147273 0.07364,-0.245455 z m 20.127269,5.645455 q 0.0491,0.09818 0.29455,0.343636 -0.0982,0.294545 -0.19637,0.392727 -0.54,0.687273 -0.93272,1.62 -0.0982,0.09818 -0.0982,0.196364 0,0.441818 -0.24546,0.760909 -0.24545,0.319091 -0.34364,0.711818 -0.24545,0.245455 -0.36818,0.589091 -0.12272,0.343636 -0.36818,0.638182 -0.54,0.687273 -0.98182,1.423636 -0.44182,0.736364 -0.90818,1.472727 -0.46636,0.736364 -1.03091,1.399091 -0.56454,0.662728 -1.30091,1.202728 -0.589087,0.441818 -1.178178,0.908181 -0.589091,0.466364 -1.202727,0.834546 -0.613637,0.368182 -1.300909,0.589091 -0.687273,0.220909 -1.472728,0.171818 -0.54,-0.04909 -1.08,-0.220909 -0.54,-0.171818 -1.08,-0.319091 l -0.196363,-0.09818 q -0.441819,-0.294545 -0.834546,-0.613636 -0.392727,-0.319091 -0.736363,-0.760909 -0.883637,-1.325455 -0.981819,-3.043637 -0.04909,-0.981818 -0.02455,-1.89 0.02455,-0.908181 0.122727,-1.89 0.09818,-0.589091 0.147273,-1.202727 0.04909,-0.613636 0.09818,-1.202727 0,-0.147273 0.02455,-0.27 0.02455,-0.122727 0.07364,-0.27 0.147272,-0.589091 0.27,-1.178182 0.122727,-0.589091 0.220909,-1.227273 0.196363,-0.785454 0.466363,-1.497272 0.27,-0.711819 0.564546,-1.448182 l 0.09818,-0.196364 0.09818,-0.196364 q 0.245455,-0.245454 0.368182,-0.490909 0.122727,-0.245454 0.220909,-0.490909 0,-0.04909 0.02455,-0.07364 0.02454,-0.02455 0.02454,-0.07364 0.147273,-0.54 0.490909,-0.957273 0.343637,-0.417273 0.736364,-0.81 0.147273,-0.147273 0.343636,-0.245455 0.638182,-0.343636 1.276364,-0.589091 0.638182,-0.245454 1.325454,-0.343636 0.392728,-0.09818 0.785455,-0.171818 0.392727,-0.07364 0.785455,0.02454 0.343636,0 0.834545,0.09818 0.09818,0 0.147273,0.02455 0.04909,0.02455 0.147272,0.02455 1.178187,0.04909 1.595457,0.981818 0.41727,0.932727 0.29455,2.16 -0.12273,1.227273 -0.63819,2.380909 -0.51545,1.153637 -1.153635,1.644546 -0.196363,0.09818 -0.392727,0.220909 -0.196364,0.122727 -0.343636,0.319091 -0.09818,0.147272 -0.245455,0.147272 -0.196364,0.09818 -0.368182,0.196364 -0.171818,0.09818 -0.417272,0.196364 -0.441819,0.147272 -0.859091,0.294545 -0.417273,0.147273 -0.81,0.245455 -0.687273,0.09818 -0.785455,0.196363 -0.09818,0.09818 -0.245454,0.638182 -0.04909,0.196364 -0.07364,0.343637 -0.02455,0.147272 -0.02455,0.294545 0,0.932727 -0.171818,2.110909 -0.171819,1.178182 -0.294546,2.356364 -0.122727,1.178182 -0.04909,2.282727 0.07364,1.104545 0.662727,1.89 0.343637,0.490909 0.981819,0.736364 0.196363,0.147272 0.638181,0.04909 0.785485,-0.24545 1.276394,-0.638177 0.441818,-0.294546 0.859091,-0.589091 0.417273,-0.294546 0.809999,-0.589091 0.34364,-0.294546 0.63818,-0.638182 0.44182,-0.589091 0.85909,-1.153636 0.41728,-0.564546 0.76091,-1.251818 0.0982,-0.147273 0.17182,-0.27 0.0736,-0.122728 0.17182,-0.22091 0.58909,-0.687272 1.03091,-1.472727 0.44182,-0.785454 0.93272,-1.521818 0.19637,-0.294545 0.24546,-0.441818 0.24545,-0.589091 0.56454,-1.104546 0.3191,-0.515454 0.71182,-1.055454 0.19637,-0.392727 0.54,-0.392727 z m -5.98909,-5.645455 q -0.34363,-0.392727 -0.49091,-0.883636 0,-0.147273 -0.14727,-0.245455 -0.392726,-0.392727 -0.809999,-0.589091 -0.417273,-0.196363 -0.957273,-0.09818 -0.883636,0.147273 -1.129091,0.883637 -0.147272,0.392727 -0.319091,0.81 -0.171818,0.417272 -0.220909,0.908182 0,0.294545 -0.147272,0.490909 -0.196364,0.392727 -0.245455,0.834545 -0.04909,0.441818 -0.147273,0.834546 -0.04909,0.343636 -0.09818,0.638181 -0.04909,0.294546 -0.147273,0.589091 -0.09818,0.245453 -0.147274,0.417271 -0.04909,0.171818 0.04909,0.417273 1.276364,-0.147273 2.307273,-0.638182 0.785454,-0.392727 1.178182,-0.981818 0.343636,-0.441818 0.613636,-0.883637 0.269998,-0.441818 0.564548,-0.932727 0.14727,-0.245454 0.0491,-0.392727 -0.0491,-0.294546 0.0982,-0.687273 0.0491,-0.09818 0.0736,-0.245454 0.0245,-0.147273 0.0736,-0.245455 z m 5.74364,-4.32 q -0.19637,-0.04909 -0.34364,-0.122727 -0.14727,-0.07364 -0.29454,-0.171818 -0.39273,-0.09818 -0.76091,-0.22091 -0.36818,-0.122727 -0.71182,-0.220909 -0.24546,-0.09818 -0.54,-0.147272 -0.29455,-0.04909 -0.54,-0.147273 -0.24546,-0.147273 -0.49091,-0.245455 -1.03091,-0.392727 -2.01273,-0.441818 -0.19636,-0.04909 -0.41727,-0.122727 -0.22091,-0.07364 -0.417272,-0.171818 -0.392727,-0.09818 -0.687272,-0.147273 -0.294546,-0.04909 -0.687273,0.04909 -0.245455,0 -0.466364,0.02454 -0.220909,0.02455 -0.417273,0.02455 -0.147272,0 -0.31909,-0.02455 -0.171819,-0.02454 -0.319091,-0.02454 -0.245455,-0.09818 -0.04909,-0.196364 0.09818,-0.09818 0.09818,-0.147272 0.245454,-0.09818 0.490909,-0.245455 0.245454,-0.147273 0.490909,-0.245455 0.441818,-0.245454 0.859091,-0.294545 0.417272,-0.04909 0.859091,-0.09818 0.441815,0 0.908185,0.02455 0.46636,0.02455 0.90818,0.07364 0.34363,0 0.66273,0.02454 0.31909,0.02455 0.66272,0.07364 0.19637,0.04909 0.36818,0.04909 0.17182,0 0.3191,0.04909 0.54,0.147272 1.0309,0.04909 0.78546,-0.04909 1.62,0 0.34364,0.09818 0.54,0.04909 0.0982,-0.09818 0.12273,-0.220909 0.0246,-0.122727 0.0246,-0.220909 l 0.19636,-1.178182 0.19636,-1.178181 q 0.0491,-0.6381816 0.39273,-1.3745456 l 0.0491,-0.09818 q 0.58909,0 0.83455,0.343637 0.0982,0.147272 0.14727,0.27 0.0491,0.122727 0.0982,0.220909 0.24546,0.4909086 0.0491,0.8836356 -0.0491,0.09818 -0.0491,0.27 l 0,0.27 q 0.0491,0.343637 0.0736,0.687273 0.0245,0.343636 0.12273,0.687273 l 0,0.245454 q 0,0.09818 0.0245,0.220909 0.0246,0.122728 -0.0245,0.220909 0,0.490909 0.49091,0.687273 0.39272,0.196364 0.85909,0.319091 0.46636,0.122727 0.85909,0.27 0.19636,0.09818 0.34363,0.09818 1.17819,0.09818 2.11091,-0.245455 0.68728,-0.245454 1.37455,-0.515454 0.68727,-0.27 1.37454,-0.515455 0.14728,-0.09818 0.34364,-0.122727 0.19636,-0.02455 0.34364,-0.122727 0.44181,-0.196364 0.88363,0.09818 0.0491,0.245455 -0.0491,0.392728 -0.0982,0.147272 0,0.343636 -0.19636,0.245455 -0.39273,0.392727 l -0.39272,0.294546 q -0.0491,0.04909 -0.24546,0.147273 -0.24545,0.09818 -0.54,0.220909 -0.29454,0.122727 -0.54,0.27 l -0.14727,0 q -0.24545,0.09818 -0.41727,0.147272 -0.17182,0.04909 -0.36818,0.196364 -0.0982,0.04909 -0.14728,0.04909 -0.0491,0 -0.14727,0.04909 l -0.19636,0.09818 q 0,0 -0.19637,0.147272 -0.0982,0.04909 -0.17182,0.09818 -0.0736,0.04909 -0.17181,0.04909 -0.29455,0 -0.39273,0.245455 0,0.09818 -0.0491,0.09818 -0.0982,0.196364 -0.17182,0.196364 -0.0736,0 -0.31909,-0.147273 -0.0982,0.04909 -0.22091,0.09818 -0.12273,0.04909 -0.27,0.147273 -0.14727,0.147273 -0.44182,0.147273 l -0.0491,0.04909 q -0.24545,0.09818 -0.51545,0.122727 -0.27,0.02454 -0.51546,-0.02455 l -0.49091,0 q 0,0 -0.49091,-0.04909 l -0.29454,0 -0.39273,0 q -0.0491,0.245455 -0.0245,0.54 0.0245,0.294546 0.0245,0.54 -0.0491,0.49091 -0.0245,1.006364 0.0245,0.515455 -0.0245,1.055455 l 0,0.589091 0,0.245454 q -0.14727,0.294546 -0.0491,0.687273 0.14727,2.16 0.12273,4.344545 -0.0246,2.184546 -0.12273,4.369091 -0.0982,2.184546 -0.22091,4.369091 -0.12273,2.184546 -0.12273,4.393636 l 0,0.49091 q 0.0491,0.147272 0.0245,0.294545 -0.0245,0.147273 -0.0245,0.294545 l 0,0.196364 q 0.0491,0.147273 0.0245,0.319091 -0.0245,0.171818 -0.0245,0.368182 -0.0982,0.294545 0.0491,0.564545 0.14728,0.27 0.44182,0.368182 0.24546,0.04909 0.49091,-0.09818 0.14727,-0.147272 0.27,-0.245454 0.12273,-0.09818 0.31909,-0.294546 0.24546,-0.294545 0.46637,-0.613636 0.2209,-0.319091 0.46636,-0.613636 0.78545,-1.08 1.49727,-2.135455 0.71182,-1.055455 1.39909,-2.086364 0.0982,-0.294545 0.19637,-0.343636 0.24545,-0.392727 0.49091,-0.760909 0.24545,-0.368182 0.4909,-0.760909 0.24546,-0.392727 0.51546,-0.785455 0.27,-0.392727 0.51545,-0.785454 l 0.39273,-0.589091 q 0,0 0.44182,-0.589091 0.39273,-0.638182 0.81,-1.227273 0.41727,-0.589091 0.81,-1.178182 0.0491,-0.09818 0.0491,-0.147272 0,-0.04909 0.0491,-0.09818 0.14727,-0.245455 0.29455,-0.466364 0.14727,-0.220909 0.29454,-0.466363 0.34364,-0.392728 0.58909,-1.08 l 0.19637,-0.392728 q 0,0 0.24545,-0.392727 0.19636,-0.196364 0.49091,-0.09818 0.63818,0.196364 0.34364,0.785455 l -0.0982,0.09818 q -0.0491,0.09818 -0.0982,0.147272 -0.0491,0.04909 -0.0491,0.09818 -0.0982,0.294546 -0.19636,0.490909 -0.0982,0.196364 -0.22091,0.368182 -0.12273,0.171818 -0.22091,0.417273 -0.49091,0.834545 -0.93273,1.718182 -0.44182,0.883636 -0.98182,1.718181 -0.98181,1.374546 -1.86545,2.724546 -0.88364,1.35 -1.57091,2.871818 -0.39273,0.687273 -0.73636,1.374545 -0.34364,0.687273 -0.78546,1.374546 -0.44182,0.687273 -1.05545,1.129091 -0.61364,0.441818 -1.15364,0.981818 -0.39273,0.54 -0.88363,0.687273 -0.0982,0 -0.12273,0.04909 -0.0246,0.04909 -0.0736,0.04909 -0.34363,0.196363 -0.63818,0.196363 -0.49091,0 -0.98182,-0.02455 -0.49091,-0.02455 -1.03091,-0.171818 -1.66909,-0.294546 -2.25818,-2.012728 -0.24545,-0.54 -0.31909,-1.055454 -0.0736,-0.515455 -0.12273,-1.055455 -0.0491,-0.245454 -0.0736,-0.466363 -0.0245,-0.22091 -0.0736,-0.466364 0,-0.294546 -0.0491,-0.490909 -0.0491,-0.343637 -0.0736,-0.662727 -0.0245,-0.319091 -0.0245,-0.662728 l 0,-0.736363 0,-1.423637 q 0,-0.392727 0.0245,-0.785454 0.0246,-0.392728 0.0246,-0.785455 0.0491,-0.245454 0.0491,-0.392727 l 0,-0.392727 q 0,-0.294546 0.0245,-0.589091 0.0246,-0.294546 0.0246,-0.589091 l 0.14727,-2.650909 q 0.0491,-0.196364 0.0491,-0.589091 0.0491,-0.785455 0.14728,-1.546364 0.0982,-0.760909 0.24545,-1.497273 0.0491,-0.490909 0.0736,-1.006363 0.0245,-0.515455 0.0736,-1.055455 0.14728,-0.834545 0.22091,-1.718182 0.0736,-0.883636 0.27,-1.718181 0.0982,-0.392728 0.12273,-0.81 0.0246,-0.417273 0.0736,-0.81 0.0491,-0.196364 0.0491,-0.343637 0,-0.147272 0.0491,-0.392727 z m 23.56363,11.781818 q -0.39272,0.147273 -0.83454,0.490909 -0.44182,0.343637 -0.58909,0.736364 -0.0982,0.343636 -0.27,0.638182 -0.17182,0.294545 -0.51546,0.490909 -0.14727,0.147273 -0.14727,0.245454 -0.19636,0.490909 -0.46636,0.908182 -0.27,0.417273 -0.41728,0.957273 -0.0491,0.147273 -0.17181,0.294545 -0.12273,0.147273 -0.22091,0.294546 -0.19637,0.343636 -0.36818,0.662727 -0.17182,0.319091 -0.17182,0.760909 0,0.04909 -0.0982,0.245455 -0.24546,0.638182 -0.34364,1.300909 -0.0982,0.662727 -0.14727,1.35 0,0.392727 -0.0982,0.760909 -0.0982,0.368182 -0.19636,0.760909 -0.24545,0.638182 -0.0491,1.178182 0.0491,0.245454 -0.0491,0.736363 -0.19636,0.54 -0.36818,1.006364 -0.17182,0.466364 -0.27,0.957273 -0.0982,0.294545 -0.22091,0.564545 -0.12273,0.27 -0.27,0.564546 0,0.04909 -0.0736,0.07364 -0.0736,0.02455 -0.12273,0.07364 -0.29454,0 -0.54,-0.147272 -0.24545,-0.147273 -0.4909,-0.196364 -0.0982,0.09818 -0.29455,0.392727 -0.19636,0 -0.39273,-0.196363 -0.24545,-0.294546 -0.68727,-0.196364 -0.0491,0 -0.0736,0.02455 -0.0245,0.02455 -0.0736,0.02455 -0.39273,0.04909 -0.49091,-0.294545 0,-0.04909 -0.0245,-0.07364 -0.0245,-0.02454 -0.0245,-0.07364 0.0491,-0.392727 -0.0736,-0.687273 -0.12273,-0.294545 -0.22091,-0.687273 -0.0982,-0.392727 -0.14727,-0.834545 -0.0491,-0.441818 -0.0982,-0.834546 -0.0491,-0.54 -0.0245,-1.08 0.0245,-0.54 -0.0736,-1.08 l 0,-0.04909 q 0,-0.785455 -0.0491,-1.521819 l -0.0982,-1.472727 q -0.0491,-0.392727 0,-0.736364 l 0.0982,-0.687272 q 0,-0.294546 0.0245,-0.564546 0.0246,-0.27 0.0246,-0.564545 l 0,-1.030909 q 0,0 0.0982,-0.981818 0.0491,-0.883637 0,-1.669091 -0.0982,-1.325455 0.14727,-2.650909 0.0982,-0.392728 0.12273,-0.736364 0.0245,-0.343636 0.12272,-0.736364 0.0982,-0.687272 0.22091,-1.423636 0.12273,-0.736364 0.22091,-1.423636 0.14728,-0.687273 0.24546,-1.399091 0.0982,-0.711819 0.24545,-1.399091 0,-0.343637 0.14727,-0.736364 0.14728,-0.687273 0.3191,-1.325454 0.17181,-0.638182 0.36818,-1.276364 0,-0.04909 0.0245,-0.09818 0.0246,-0.04909 0.0246,-0.09818 l 1.1779,-3.829105 q 0.24545,-0.785454 0.54,-1.546363 0.29455,-0.7609086 0.58909,-1.4972726 0.14727,-0.392727 0.31909,-0.760909 0.17182,-0.368182 0.36818,-0.760909 0.0982,-0.343637 0.27,-0.638182 0.17182,-0.294545 0.36819,-0.54 0.14727,-0.245455 0.29454,-0.515455 0.14727,-0.27 0.24546,-0.564545 l 0.39272,-0.785455 q 0,0 0.58909,-0.687272 0.34364,-0.294546 0.68728,-0.981818 0.34363,-0.6381823 0.83454,-1.0309095 0.83455,-0.63818194 1.76727,-0.93272734 0.93273,-0.2945455 1.96364,-0.3927273 0.24546,0 0.44182,-0.024545 0.19636,-0.0245459 0.44182,-0.0245459 0.39272,-0.049091 0.83454,0.024546 0.44182,0.073636 0.83455,0.1718181 0.73636,0.1472728 1.42363,0.3681819 0.68728,0.220909 1.32546,0.61363634 0.39273,0.2454546 0.71182,0.5645455 0.31909,0.3190902 0.61363,0.7118172 0.39273,0.589091 0.63819,1.472728 0.0491,0.09818 0.0736,0.196363 0.0246,0.09818 0.0736,0.196364 0.19636,0.490909 0.19636,0.834545 0,0.147273 0.0246,0.27 0.0245,0.122728 0.0245,0.27 0.0982,0.49091 0.0491,0.736364 -0.0982,0.638182 -0.0982,1.251818 0,0.613637 -0.0982,1.202728 -0.0982,0.687272 -0.22091,1.3499996 -0.12273,0.662727 -0.27,1.300909 -0.29454,1.030909 -0.81,1.988181 -0.51545,0.957273 -1.17818,1.84091 -0.66273,0.883636 -1.35,1.718182 -0.68727,0.834546 -1.32546,1.669091 -0.58909,0.785455 -1.12909,1.423637 -0.54,0.638181 -1.27636,1.227272 -0.68727,0.54 -1.42364,1.055454 -0.73636,0.515454 -1.42363,1.055455 -1.22728,0.981818 -2.35637,1.865455 -1.12909,0.883636 -2.7,1.276364 -0.58909,0.147272 -0.66272,0.27 -0.0736,0.122727 -0.17182,0.662727 -0.14727,0.589091 -0.14727,1.129091 -0.0491,0.294545 -0.0246,0.564545 0.0246,0.27 0.0246,0.515455 0.0491,0.245454 0.0245,0.417273 -0.0245,0.171818 -0.0245,0.368181 -0.0491,0.245455 -0.0491,0.466364 0,0.220909 -0.0491,0.466364 -0.0982,0.490909 -0.0982,0.957272 l 0,0.957273 q -0.0491,0.343636 -0.0736,0.662727 -0.0246,0.319091 0.0245,0.662728 0.0491,0.09818 0.0491,0.147272 0,0.04909 0.0491,0.147273 0.0982,-0.147273 0.19637,-0.343636 0.29454,-0.785455 0.71181,-1.521818 0.41728,-0.736364 0.81,-1.521819 0.19637,-0.392727 0.41728,-0.687272 0.22091,-0.294546 0.46636,-0.687273 0.14727,-0.245455 0.31909,-0.490909 0.17182,-0.245455 0.36818,-0.490909 0.14728,-0.147273 0.29455,-0.319091 0.14727,-0.171818 0.29454,-0.319091 0.39273,-0.392727 0.8591,-0.736364 0.46636,-0.343636 0.95727,-0.638182 0.93273,-0.54 1.96363,-0.392727 0.39273,0 0.73637,0.441818 0.0982,0.196364 0.39273,0.589091 0.24545,0.245455 0.34363,0.736364 0.29455,1.276364 0.66273,2.405454 0.36818,1.129091 0.36818,2.503637 -0.0491,2.209091 -0.46636,4.369091 -0.41728,2.159999 -0.27,4.36909 0.0982,0.638182 0.12272,1.251818 0.0246,0.613636 0.0736,1.251818 0,0.245455 -0.0245,0.417274 -0.0245,0.171818 -0.0245,0.368181 0,0.785454 0.54,1.570909 0.14727,0.196363 0.44182,0.196363 0.34363,0 0.61363,-0.122727 0.27,-0.122726 0.51546,-0.319091 0.39273,-0.294545 0.68727,-0.687272 0.24546,-0.392727 0.49091,-0.736363 0.24546,-0.343637 0.49091,-0.736364 0.58909,-0.981818 1.08,-1.988182 0.49091,-1.006364 0.93273,-2.037273 0.0982,-0.09818 0.12272,-0.245455 0.0246,-0.147272 0.0736,-0.245455 0.0491,-0.09818 0.0736,-0.245454 0.0245,-0.147273 0.0736,-0.245455 0.39273,-0.785454 0.61364,-1.570909 0.22091,-0.785454 0.61364,-1.570909 0.19636,-0.490909 0.24545,-0.736363 0.0982,-0.392727 0.27,-0.736364 0.17182,-0.343635 0.31909,-0.736364 0.39273,-0.785454 0.68727,-1.62 0.29455,-0.834545 0.49091,-1.669091 0.14728,-0.687272 0.31909,-1.35 0.17182,-0.662727 0.36819,-1.35 0.0982,-0.294545 0.24545,-0.589091 l 0.29455,-0.58909 q 0.0982,-0.245455 0.24545,-0.417273 0.14727,-0.171818 0.29455,-0.417273 0.29454,-0.441818 0.83454,-0.392727 0.14727,0.245454 0.12273,0.466363 -0.0246,0.22091 -0.12273,0.466364 -0.0491,0.245455 -0.12273,0.441818 -0.0736,0.196364 -0.17181,0.441818 -0.14728,0.245455 -0.0982,0.49091 0.0491,0.196363 -0.0491,0.392727 -0.0982,0.392727 -0.22091,0.81 -0.12272,0.417273 -0.2209,0.859091 -0.0982,0.245454 -0.17182,0.466363 -0.0736,0.220909 -0.17182,0.466364 -0.88364,2.209091 -1.22727,4.516364 -0.29455,1.767272 -1.00637,3.411818 -0.71182,1.644545 -1.54636,3.215454 -0.34364,0.638182 -0.66273,1.35 -0.31909,0.711819 -0.71182,1.399091 -0.39272,0.687273 -0.85909,1.276364 -0.46636,0.589091 -1.10454,0.981818 -0.44182,0.245455 -0.85909,0.490909 -0.41728,0.245455 -0.90819,0.343637 l -0.19636,0.09818 -0.19636,0.09818 q -0.19637,0.09818 -0.36818,0.147273 -0.17182,0.04909 -0.41728,0 -0.0982,0 -0.19636,0.02455 -0.0982,0.02455 -0.19636,0.02455 -0.83436,0.245448 -1.69345,-0.19637 -0.85909,-0.441818 -1.30091,-1.227273 -0.24545,-0.392727 -0.41727,-0.81 -0.17182,-0.417272 -0.27,-0.908181 -0.19637,-1.178182 -0.19637,-2.356364 0,-1.178182 -0.14727,-2.405455 -0.0491,-0.687272 -0.0245,-1.39909 0.0245,-0.711819 0.0245,-1.399091 0.0982,-1.914546 0.41727,-3.730909 0.31909,-1.816364 0.41728,-3.73091 0,-0.54 0.0491,-1.08 0.0491,-0.54 0,-1.08 0,-0.294545 -0.14728,-0.392727 z m -5.94,-2.110909 q 0.29455,-0.09818 0.39273,-0.147273 0.44182,-0.294545 0.90818,-0.589091 0.46637,-0.294545 0.85909,-0.58909 0.63819,-0.49091 1.22728,-0.957273 0.58909,-0.466364 1.17818,-0.908182 0.83454,-0.687273 1.57091,-1.399091 0.73636,-0.711818 1.42363,-1.497273 0.0982,-0.147272 0.24546,-0.294545 0.14727,-0.147273 0.24545,-0.294546 0.44182,-0.441818 0.88364,-0.908181 0.44182,-0.466364 0.88364,-0.908182 0.0982,-0.09818 0.19636,-0.220909 0.0982,-0.122728 0.19636,-0.220909 0.34364,-0.392728 0.61364,-0.81 0.27,-0.417273 0.51545,-0.859091 1.08,-1.767273 1.91455,-3.681818 0.0982,-0.294546 0.19636,-0.564546 0.0982,-0.27 0.19637,-0.564545 0.0491,-0.245455 0.0736,-0.466364 0.0245,-0.2209086 0.0736,-0.4663636 0.0982,-0.392727 0.12273,-0.785454 0.0245,-0.392727 0.0736,-0.785455 l 0,-0.589091 q 0,0 0.0491,-0.589091 0.0982,-0.294545 0,-0.638181 -0.0982,-0.245455 -0.0491,-0.392728 0,-0.638181 -0.29454,-1.227272 -0.0982,-0.196364 -0.0982,-0.294546 -0.0491,-0.490909 -0.49091,-1.08 -0.0982,-0.196363 -0.19637,-0.368182 -0.0982,-0.171818 -0.19636,-0.417272 -0.0982,-0.441819 -0.58909,-0.736364 -0.14727,-0.098182 -0.29455,-0.1472727 -0.14727,-0.049091 -0.24545,-0.1472728 -0.54,-0.3436363 -1.22727,-0.1472727 -0.44182,0.098182 -0.83455,0.2945455 -0.39273,0.1963636 -0.78545,0.4418177 l -0.44182,0.441819 -0.29455,0.392727 -0.29454,0.392727 -0.19637,0.294546 q 0,0 -0.0982,0.392727 0,0.147273 -0.0982,0.245454 -0.29455,0.49091 -0.49091,0.957273 -0.19636,0.466364 -0.44182,1.006364 l -0.0982,0.196363 q 0,0 -0.0491,0.245455 0,0.09818 -0.0491,0.171818 -0.0491,0.07364 -0.0982,0.171818 -0.14728,0.196364 -0.24546,0.589091 -0.14727,0.932728 -0.63818,1.718182 -0.0982,0.147273 -0.12273,0.294546 -0.0245,0.147272 -0.12272,0.245454 -0.14728,0.4418176 -0.29455,0.9081816 -0.14727,0.466364 -0.29454,0.859091 -0.19637,0.392727 -0.29455,0.834545 -0.0982,0.441818 -0.24545,0.834546 -0.14728,0.245454 -0.22091,0.564545 -0.0736,0.319091 -0.17182,0.613637 l -0.39273,1.08 -0.39273,1.08 q -0.0982,0.245454 -0.14727,0.417272 -0.0491,0.171818 -0.0982,0.417273 -0.0982,0.638182 -0.31909,1.202727 -0.22091,0.564546 -0.51546,1.104546 l -0.19612,0.490909 q 0,0 -0.14727,0.490909 -0.0982,0.392727 -0.17182,0.760909 -0.0736,0.368182 -0.17182,0.760909 -0.0491,0.196364 -0.0982,0.368182 -0.0491,0.171818 -0.0982,0.417273 -0.0982,0.343636 -0.12273,0.662727 -0.0246,0.319091 -0.22091,0.613636 -0.0491,0.04909 -0.0491,0.196364 0,0.54 -0.24545,0.834545 -0.14728,0.343637 -0.0491,0.687273 z m -0.73636,9.376364 0,0.04909 0,-0.04909 z M 149.68,31.832363 q -0.0982,0.09818 -0.19636,0.171818 -0.0982,0.07364 -0.19637,0.171819 -0.44182,0.392727 -0.95727,0.711818 -0.51546,0.319091 -1.20273,0.368182 -0.44182,0.04909 -0.85909,0.171818 -0.41727,0.122727 -0.85909,0.171818 -0.83455,0.04909 -1.57091,-0.196364 -0.73636,-0.245454 -1.27636,-1.030909 -0.29455,-0.392727 -0.49091,-1.08 -0.44182,-1.669091 -0.0982,-3.289091 0.0982,-0.392727 0.12272,-0.736363 0.0246,-0.343637 0.12273,-0.736364 l 0.44182,-1.472727 q 0.14727,-0.441818 0.31909,-0.883637 0.17182,-0.441818 0.27,-0.883636 0.49091,-1.767273 1.71818,-3.190909 0.39273,-0.392727 0.78546,-0.932727 0.29454,-0.392728 0.71181,-0.638182 0.41728,-0.245455 0.8591,-0.392727 l 1.17818,-0.441819 q 0.54,-0.196363 1.05545,-0.220909 0.51546,-0.02454 1.05546,-0.122727 0.29454,0 0.44181,-0.04909 0.44182,-0.147273 0.8591,-0.122727 0.41727,0.02454 0.85909,0.122727 0.34363,0.04909 0.61363,0.27 0.27,0.220909 0.51546,0.515455 0.14727,0.245454 0.31909,0.466363 0.17182,0.220909 0.27,0.466364 0.44182,0.834545 -0.19637,1.423636 -0.14727,0.147273 -0.4909,0.147273 -0.19637,0.04909 -0.29455,-0.245454 -0.0982,-0.589091 -0.44182,-1.006364 -0.34363,-0.417273 -0.73636,-0.859091 l -0.14727,-0.147273 q -0.88364,-0.294545 -1.6691,-0.09818 -0.68727,0.147273 -1.27636,0.441819 -0.58909,0.294545 -0.98182,0.932727 -0.54,0.932727 -0.88363,1.988182 -0.34364,1.055454 -0.73637,2.037272 -0.19636,0.49091 -0.34363,0.981819 -0.14728,0.490909 -0.34364,0.981818 -0.39273,1.178182 -0.61364,2.307273 -0.22091,1.12909 0.0736,2.356363 0.14727,0.687273 0.93273,1.129091 0.78545,0.441818 1.42363,0.147273 0.83455,-0.392727 1.54637,-1.472727 0.71182,-1.08 1.15363,-1.865455 0.0982,-0.245455 0.14728,-0.54 0.0491,-0.294545 0.14727,-0.589091 0.0982,-0.294545 0.14727,-0.613636 0.0491,-0.319091 0.14727,-0.564546 0.0982,-0.441818 0.27,-0.883636 0.17182,-0.441818 0.3191,-0.883636 0.14727,-0.49091 0.31909,-0.932728 0.17181,-0.441818 0.27,-0.932727 0.24545,-0.785455 0.83454,-0.834545 0.24546,-0.09818 0.46637,-0.122728 0.2209,-0.02454 0.46636,-0.07364 0.58915,-0.04909 0.73642,0.49091 l 0.14728,0.294545 q 0.0982,0.392728 -0.0982,0.711819 -0.19636,0.319091 0,0.711818 0.0491,0.196363 0.0246,0.368182 -0.0246,0.171818 -0.0246,0.368181 0,0.785455 -0.22091,1.742728 -0.2209,0.957272 -0.36818,1.742727 -0.14727,0.883636 -0.19636,1.570909 -0.0491,0.687273 -0.19636,1.570909 -0.0982,0.294546 -0.14728,0.564546 -0.0491,0.27 -0.0982,0.564545 -0.0982,0.54 -0.14727,1.104546 -0.0491,0.564545 -0.14727,1.153636 -0.0491,0.245454 -0.0736,0.466364 -0.0246,0.220909 -0.0246,0.466363 0,0.147273 -0.0491,0.564546 -0.0491,0.417272 -0.0245,0.834545 0.0245,0.417273 0.24545,0.638182 0.22091,0.220909 0.76091,-0.02455 0.29455,-0.147272 0.90818,-0.711818 0.61364,-0.564545 0.81,-0.81 0.39273,-0.54 0.93273,-1.35 0.54,-0.81 0.83455,-1.448182 0.58909,-1.227272 1.35,-2.920909 0.7609,-1.693636 1.35,-2.920909 0.0982,-0.196363 0.0982,-0.417272 0,-0.22091 0.24545,-0.22091 0.14727,-0.04909 0.29455,-0.04909 0.14727,0 0.34363,-0.04909 0.34364,0 0.29455,0.294545 -0.0491,0.245455 -0.0736,0.466364 -0.0245,0.220909 -0.12272,0.417272 -0.14728,0.245455 -0.39273,0.76091 -0.24546,0.515454 -0.49091,1.08 -0.24546,0.564545 -0.46636,1.08 -0.22091,0.515454 -0.3191,0.760909 -0.4909,1.129091 -1.08,2.380909 -0.58909,1.251818 -1.35,2.43 -0.7609,1.178182 -1.71818,2.110909 -0.95727,0.932727 -2.18454,1.374545 -0.58909,0.196364 -1.47273,0.09818 -0.88364,-0.09818 -1.37455,-0.54 -0.29454,-0.196364 -0.44181,-0.54 -0.49091,-0.785454 -0.58909,-1.644545 -0.0982,-0.859091 -0.0491,-1.742728 l 0.0982,-1.374545 q 0,0 0.14727,-1.374546 l 0,-0.441818 z m 24.20182,-6.038182 q -0.0491,0.245455 -0.0491,0.417273 l 0,0.319091 q -0.0491,0.638182 -0.0491,1.251818 0,0.613637 -0.0491,1.251818 0,0.245455 -0.0245,0.54 -0.0245,0.294546 -0.0736,0.54 -0.0491,0.392728 -0.0491,0.736364 0,0.343636 -0.0491,0.736364 -0.0491,0.245454 -0.0982,0.417272 -0.0491,0.171819 -0.0982,0.417273 -0.0491,0.294546 -0.0982,0.564546 -0.0491,0.27 0,0.515454 0.0982,0.490909 0.0245,0.957273 -0.0736,0.466364 -0.17182,0.908182 -0.0982,0.54 -0.17182,1.006363 -0.0736,0.466364 0.0246,1.006364 0.0982,0.54 0.0736,1.08 -0.0246,0.54 -0.0736,1.08 0,0.343636 -0.0982,0.662727 -0.0982,0.319091 -0.19637,0.613637 -0.29454,0.834545 -0.58909,1.62 -0.29454,0.785454 -0.54,1.62 -0.14727,0.441818 -0.54,0.638181 -0.14727,0.09818 -0.27,0.196364 -0.12272,0.09818 -0.27,0.196364 -0.63818,0.441818 -1.12909,-0.147273 -0.39272,-0.54 -0.61363,-1.08 -0.22091,-0.54 -0.22091,-1.227273 0,-0.834545 -0.0736,-1.644545 -0.0736,-0.81 -0.17182,-1.644546 -0.0491,-0.54 -0.0982,-1.129091 -0.0491,-0.58909 -0.14727,-1.12909 -0.0982,-0.834546 -0.12273,-1.669091 -0.0245,-0.834546 -0.12273,-1.669091 l 0,-0.245455 q 0.14728,-1.276363 0.0491,-2.552727 -0.0982,-1.276364 -0.0982,-2.552727 0,-0.883637 -0.0245,-1.767273 -0.0246,-0.883636 -0.0736,-1.816364 0,-0.196363 0.0491,-0.294545 0.19637,-1.963637 0.39273,-3.902727 0.19636,-1.939091 0.44182,-3.902728 0.19636,-1.325454 0.41727,-2.650909 0.22091,-1.325454 0.51545,-2.601818 0.14728,-0.687273 0.24546,-1.35 0.0982,-0.6627266 0.14727,-1.3499996 0.0491,-0.294545 0.14727,-0.613636 0.0982,-0.319091 0.19637,-0.564546 0.24545,-0.54 0.27,-1.104545 0.0245,-0.564546 0.22091,-1.202728 -0.49091,0.294546 -0.88364,0.54 -0.39273,0.245455 -0.73636,0.54 -0.78546,0.638182 -1.62,0.883637 -0.39273,0.147273 -0.81,0.319091 -0.41728,0.171818 -0.85909,0.368182 -0.14728,0.09818 -0.34364,0.07364 -0.19636,-0.02455 -0.34364,-0.27 l 0.29455,-0.294546 q 0.49091,-0.245454 0.95727,-0.490909 0.46637,-0.245454 0.95727,-0.54 0.54,-0.392727 1.00637,-0.760909 0.46636,-0.368182 1.00636,-0.760909 0.0982,-0.09818 0.22091,-0.196363 0.12273,-0.09818 0.27,-0.196364 0.88364,-0.687273 1.17818,-1.718182 0.14728,-0.638182 0.93273,-0.736364 0.73636,-0.098181 0.88364,0.589091 0.0491,0.343637 0.0491,0.662728 l 0,0.613636 q 0,0.245455 -0.0246,0.441818 -0.0245,0.196364 0.0246,0.441818 0,0.490909 0.0245,0.957273 0.0246,0.466364 0.0736,0.908182 0.0491,0.245454 0.0736,0.490909 0.0245,0.245455 0.12272,0.490909 0.29455,0.736364 0.19637,1.767273 -0.0491,0.392727 -0.0491,0.7363626 0,0.343637 0.24545,0.736364 0.0491,0.09818 0.0491,0.392727 l -0.0982,0.785455 q 0,0 0,0.785454 0.0982,1.325455 0.34364,2.405455 0.24545,1.08 0.0982,1.963636 -0.0491,0.343637 -0.0491,0.662728 0,0.319091 0.24545,0.662727 0.0982,0.09818 0.0736,0.245454 -0.0246,0.147273 -0.0246,0.294546 -0.0491,0.343636 -0.0736,0.638182 -0.0246,0.294545 -0.0246,0.638182 0,0.245454 0.14727,0.392727 0.14728,0.147273 0.44182,0.294545 0.39273,-0.392727 0.83455,-0.785454 0.44181,-0.392728 0.88363,-0.834546 0.14728,-0.147272 0.22091,-0.392727 0.0736,-0.245455 0.22091,-0.441818 0.39273,-0.54 0.76091,-1.030909 0.36818,-0.490909 0.61364,-1.08 0.0982,-0.196364 0.24545,-0.343637 0.49091,-0.343636 0.63818,-0.981818 0.24546,-0.834545 0.73637,-1.08 0.14727,-0.04909 0.19636,-0.196363 0.54,-0.834546 1.08,-1.963637 l 0.29455,-0.589091 q 0,0 0.39272,-0.54 l 0.0982,-0.09818 q 0.24546,-0.490909 0.49091,-0.9572716 0.24546,-0.466364 0.58909,-0.908182 0.24546,-0.392727 0.44182,-0.834546 0.19637,-0.441818 0.39273,-0.932727 0.39273,-0.981818 0.83455,-1.963636 0.44181,-0.981818 0.58909,-2.110909 0.14727,-0.54 0.83454,-0.54 0.68727,0.09818 0.73637,0.638182 0,0.09818 -0.0246,0.196363 -0.0246,0.09818 -0.0246,0.196364 -0.14727,0.883636 -0.41727,1.693636 -0.27,0.81 -0.56454,1.644546 -0.24546,0.834545 -0.51546,1.595454 -0.27,0.760909 -0.51545,1.595455 -0.0491,0.09818 -0.0736,0.1227266 -0.0245,0.02454 -0.0736,0.122727 -0.0982,0.147273 -0.17181,0.245455 -0.0736,0.09818 -0.17182,0.245454 -0.19637,0.343637 -0.34364,0.711819 -0.14727,0.368181 -0.39273,0.613636 -0.24545,0.294545 -0.46636,0.589091 -0.22091,0.294545 -0.31909,0.687273 0,0.245454 -0.14727,0.294545 -0.63818,0.589091 -0.98182,1.35 -0.34364,0.760909 -0.88364,1.448182 -0.39272,0.490909 -0.78545,1.006363 -0.39257,0.515449 -0.7853,1.055449 l -0.14727,0.147273 q -0.58909,0.392727 -0.98182,0.932727 -0.39272,0.54 -0.88363,1.08 -0.49091,0.589091 -1.32546,1.227273 -0.39273,0.294545 -0.73636,0.638182 -0.34364,0.343636 -0.68727,0.834545 0.29454,0.04909 0.51545,0.07364 0.22091,0.02455 0.46636,0.07364 0.24546,0.04909 0.44182,0.09818 0.19637,0.04909 0.44182,0.09818 1.12909,0.196364 2.13545,0.564546 1.00637,0.368182 1.89,1.006363 0.54,0.392728 1.03091,0.859091 0.49091,0.466364 0.88364,1.055455 0.29455,0.490909 0.58909,0.932727 0.29455,0.441818 0.58909,0.981818 0.24546,0.392728 0.46637,0.834546 0.2209,0.441818 0.46636,0.834545 0.0982,0.245455 0.29454,0.441818 0.19637,0.196364 0.0982,0.54 0.14727,0.147273 0.17181,0.343637 l 0.0491,0.392727 q 0,0 0.0736,0.392727 0.0736,0.392728 0.24546,0.343637 l 0,0.196363 0.0982,0.294546 q 0,0 0,0.245454 -0.14727,0.245455 -0.0491,0.343637 0.0982,0.09818 0.19636,0.245454 0.0491,0.147273 0.0491,0.319091 l 0,0.319091 q 0.0491,0.196364 0.0246,0.368182 -0.0246,0.171818 0.0245,0.319091 0.14728,0.441818 0.29455,0.908182 0.14727,0.466363 0.39273,0.859091 0.24545,0.490909 0.34363,1.006363 0.0982,0.515455 0.34364,0.957273 0.29454,0.54 0.41727,1.030909 0.12273,0.490909 0.31909,1.030909 0.14727,0.343636 0.34364,0.662727 0.19636,0.319091 0.34363,0.613637 0.29455,0.54 0.76091,0.760909 0.46637,0.220909 1.00637,0.466363 l 0.58909,-0.883636 q 0,0 0.54,-0.883636 0.54,-1.030909 0.93273,-2.110909 0.39272,-1.08 0.73636,-2.209091 0.39273,-1.374546 0.81,-2.724546 0.41727,-1.35 0.81,-2.724545 0.24545,-0.687273 0.34364,-1.399091 0.0982,-0.711818 0.29454,-1.399091 0.19636,-0.687273 0.39273,-1.35 0.19636,-0.662727 0.44182,-1.35 0.0491,-0.09818 0.0982,-0.220909 0.0491,-0.122727 0.0491,-0.27 0.0491,-0.294546 0.24545,-0.392727 0.19637,-0.09818 0.44182,-0.147273 0.29455,0.392727 0.29455,0.834545 0,0.441819 0.0491,0.883637 0,1.08 -0.19637,2.110909 -0.19636,1.030909 -0.44181,2.012727 -0.34364,1.129091 -0.78546,2.233636 -0.44182,1.104546 -0.83454,2.233637 -0.0982,0.392727 -0.24546,0.785454 l -0.29454,0.785455 q -0.29455,0.883636 -0.58909,1.791818 -0.29455,0.908182 -0.63819,1.840909 -0.19636,0.441818 -0.49091,0.859091 -0.29454,0.417273 -0.58909,0.81 -0.39272,0.54 -0.76091,1.055455 -0.36818,0.515454 -0.7609,1.055454 -0.34364,0.490909 -0.98182,0.638182 -0.14728,0 -0.54,0.09818 -1.71818,0.490909 -3.14182,-0.02455 -1.42364,-0.515454 -2.60182,-1.742727 -0.63818,-0.687273 -1.05545,-1.448182 -0.41728,-0.760909 -0.81,-1.595454 -0.39273,-0.736364 -0.71182,-1.497273 -0.31909,-0.760909 -0.71182,-1.497273 -0.49091,-1.08 -0.85909,-2.16 -0.36818,-1.08 -0.66273,-2.209091 -0.88363,-3.289091 -2.50363,-6.283636 -0.63819,-1.129091 -2.06182,-1.865455 z m 0.0491,-4.418181 q 0.0491,0 0.0491,0.02454 0,0.02455 0.0491,0.02455 0.0491,-0.09818 0.0982,-0.147273 0.0491,-0.04909 0.0491,-0.147273 0.0491,0 0,-0.02454 -0.0491,-0.02455 -0.0982,-0.02455 z m 54.98182,5.007272 q 0.63818,-0.392727 1.15363,-0.466363 0.51546,-0.07364 0.51546,0.613636 -0.0491,0 -0.29455,0.515455 -0.24545,0.515454 -0.58909,1.276363 -0.34364,0.760909 -0.76091,1.693637 -0.41727,0.932727 -0.76091,1.767272 -0.34363,0.834546 -0.61363,1.448182 -0.27,0.613637 -0.31909,0.760909 -0.54,1.374546 -0.76091,2.847273 -0.22091,1.472727 -0.90819,2.798182 -0.34363,0.687273 -0.68727,1.300909 -0.34363,0.613636 -0.68727,1.300909 -0.24546,0.490909 -0.56455,0.859091 -0.31909,0.368182 -0.71181,0.711818 -0.83455,0.785455 -1.79182,1.276364 -0.95728,0.490909 -2.13546,0.54 -0.14727,0 -0.24545,0.04909 -1.47273,0.589091 -2.89637,0 -0.24545,-0.09818 -0.54,-0.196364 -1.08,-0.245455 -1.8409,-0.834545 -0.76091,-0.589091 -1.30091,-1.472728 -0.63819,-1.08 -1.10455,-2.184545 -0.46636,-1.104546 -0.90818,-2.233637 -0.73636,-1.816363 -1.25182,-3.657272 -0.51545,-1.840909 -1.05545,-3.706364 -0.39273,-1.276364 -1.05546,-2.356364 -0.66273,-1.08 -1.69363,-1.914545 -0.39273,-0.343636 -0.83455,-0.564545 -0.44182,-0.22091 -0.98182,-0.466364 l -0.14727,0.294545 -0.29455,1.669091 q 0,0 -0.24545,1.669091 -0.14727,1.08 -0.49091,1.963637 -0.54,1.423636 -0.63818,3.141818 -0.0982,1.718182 -0.19637,3.24 -0.0982,1.423636 -0.2209,2.896363 -0.12273,1.472728 -0.27,2.896364 0,0.392727 -0.0246,0.736364 -0.0246,0.343636 -0.0736,0.736363 -0.0982,0.638182 -0.14727,1.251818 -0.0491,0.613637 -0.0982,1.251819 0,0.245454 -0.0982,0.343636 -0.0982,0.09818 -0.24546,0.196364 -0.24545,0.147272 -0.39272,-0.147273 -0.19637,-0.294546 -0.34364,-0.490909 -0.0491,0.392727 -0.34364,0.417273 -0.29454,0.02454 -0.34363,0.368181 -0.54,-0.392727 -0.93273,-0.81 -0.39273,-0.417272 -0.54,-1.055454 -0.54,-2.601818 -0.61364,-5.326364 -0.0736,-2.724545 -0.0245,-5.375454 0,-2.503637 -0.0491,-5.007273 -0.0491,-2.503636 -0.0736,-5.007273 -0.0246,-2.503636 0.0491,-5.007273 0.0736,-2.503636 0.31909,-5.007272 0.14727,-1.276364 0.34364,-2.552728 0.19636,-1.276363 0.34363,-2.552727 0.0982,-0.687273 0.14728,-1.4236356 0.0491,-0.736364 0.14727,-1.472727 0.0982,-0.834546 0.36818,-1.62 0.27,-0.785455 0.61364,-1.57091 0.14727,-0.343636 0.27,-0.392727 0.12273,-0.04909 0.51545,0 1.12909,0.245455 1.91455,1.423637 0.24545,0.392727 0.34363,0.85909 0.0982,0.466364 0.19637,0.908182 l 0.58909,2.5036366 0.14727,0.883636 q 0.0491,0.245455 0.0982,0.417273 0.0491,0.171818 0.14728,0.368182 0.0491,0.04909 0.14727,0.04909 0,-0.09818 0.0982,-0.196363 0.58909,-1.227273 1.54636,-2.0863636 0.95728,-0.859091 2.08637,-1.497273 0.78545,-0.441818 1.59545,-0.81 0.81,-0.368181 1.69364,-0.613636 0.93273,-0.245454 2.16,-0.09818 0.24545,0.04909 0.54,0.09818 0.29454,0.04909 0.58909,0.04909 0.68727,0 1.17818,0.319091 0.49091,0.319091 0.98182,0.711818 0.78545,0.54 1.22727,1.472727 0.19637,0.294546 0.31909,0.638182 0.12273,0.3436366 0.22091,0.6872726 0.63818,1.570909 0.36818,3.166364 -0.27,1.595454 -0.81,3.166363 -0.68727,1.865455 -1.71818,3.559091 -1.03091,1.693636 -2.60182,2.97 -0.29454,0.245455 -0.54,0.343636 -1.12909,0.638182 -2.30727,1.178182 -1.17818,0.54 -2.45454,0.834546 -0.0982,0.09818 -0.29455,0.147272 0.88364,0.54 1.62,1.03091 0.49091,0.392727 0.93273,0.760909 0.44182,0.368181 0.93273,0.760909 0.29454,0.245454 0.58909,0.564545 0.29454,0.319091 0.58909,0.613637 0.0491,0 0.0982,0.04909 0.73636,0.981819 1.35,1.963637 0.61364,0.981818 1.00636,2.110909 0.0982,0.392727 0.24546,0.736364 0.14727,0.343636 0.24545,0.736363 0.0491,0.147273 0.0491,0.392727 0.0982,0.392728 0.19637,0.711819 0.0982,0.319091 0.19636,0.711818 l 0.73636,2.356363 0.19637,0.589091 0.19636,0.589091 q 0,0 0.14727,0.589091 0.14728,0.589091 0,0.589091 0,0.883636 0.63819,1.374546 0.14727,0.147272 0.31909,0.294545 0.17181,0.147273 0.36818,0.294545 0.39273,0.294546 0.93273,0.196364 0.0982,-0.04909 0.34363,-0.04909 0.58909,0.04909 1.00637,-0.220909 0.41727,-0.27 0.81,-0.662727 1.5709,-1.816364 2.45454,-3.829091 1.32546,-3.043636 2.67546,-6.013636 1.35,-2.97 2.72454,-5.964546 0.19636,-0.490909 0.29455,-0.687273 z m -25.33092,-0.883636 q 0.83454,-0.392727 1.62,-0.760909 0.78545,-0.368182 1.57091,-0.760909 0.83454,-0.392727 1.64454,-0.908182 0.81,-0.515455 1.39909,-1.251818 0.63818,-0.785455 1.17818,-1.570909 0.54,-0.785455 1.08,-1.62 0.24546,-0.294546 0.3191,-0.613637 0.0736,-0.319091 0.12272,-0.711818 0.0982,-0.932727 0.17182,-1.840909 0.0736,-0.908182 0.17182,-1.89 0.0491,-0.196364 0.0491,-0.368182 0,-0.171818 0.0491,-0.368182 0.39273,-1.62 0.24546,-2.9945446 -0.14728,-1.030909 -0.73637,-1.914545 -0.39273,-0.49091 -0.88363,-0.343637 -0.29455,0.09818 -0.5891,0.147273 -0.29454,0.04909 -0.54,0.147273 -0.4909,0.196363 -0.95727,0.392727 -0.46636,0.196364 -0.90818,0.392727 -1.91455,0.883637 -2.89636,2.7490906 -0.24546,0.490909 -0.39273,0.981818 -0.14727,0.490909 -0.34364,1.030909 -0.0491,0.09818 -0.0982,0.220909 -0.0491,0.122728 -0.0982,0.22091 l -0.58909,1.276363 -0.58909,1.276364 q -0.0982,0.147273 -0.0982,0.490909 0.0491,0.981818 -0.0491,1.914545 -0.0982,0.932728 -0.19636,1.914546 -0.0982,0.687273 -0.0245,1.399091 0.0736,0.711818 -0.0736,1.399091 -0.0982,0.490909 0,0.981818 0.0982,0.490909 0.14727,1.030909 0.0982,0 0.14727,-0.02455 0.0491,-0.02455 0.14728,-0.02455 z"
     style="fill:#000000" /></svg>