<?xml version="1.0" encoding="UTF-8" standalone="no"?>
<svg
   xmlns:dc="http://purl.org/dc/elements/1.1/"
   xmlns:cc="http://creativecommons.org/ns#"
   xmlns:rdf="http://www.w3.org/1999/02/22-rdf-syntax-ns#"
   xmlns:svg="http://www.w3.org/2000/svg"
   xmlns="http://www.w3.org/2000/svg"
   version="1.1"
   id="svg2"
   viewBox="0 0 68.782063 68.123263"
   height="0.75692517in"
   width="0.76424515in">
  <defs
     id="defs4" />
  <metadata
     id="metadata7">
    <rdf:RDF>
      <cc:Work
         rdf:about="">
        <dc:format>image/svg+xml</dc:format>
        <dc:type
           rdf:resource="http://purl.org/dc/dcmitype/StillImage" />
        <dc:title></dc:title>
      </cc:Work>
    </rdf:RDF>
  </metadata>
  <g
     transform="translate(-2439.1122,1568.5155)"
     id="layer1">
    <path
       id="rect4204"
       transform="translate(2439.1122,-1568.5155)"
       d="M 34.435547 0.29101562 A 33.852001 33.852001 0 0 0 0.58398438 34.144531 A 33.852001 33.852001 0 0 0 34.435547 67.996094 A 33.852001 33.852001 0 0 0 68.287109 34.144531 A 33.852001 33.852001 0 0 0 34.435547 0.29101562 z M 34.435547 2.0585938 A 32.084232 32.084232 0 0 1 66.519531 34.144531 A 32.084232 32.084232 0 0 1 65.505859 41.984375 L 3.3535156 41.984375 A 32.084232 32.084232 0 0 1 2.3515625 34.144531 A 32.084232 32.084232 0 0 1 34.435547 2.0585938 z M 34.074219 10.333984 L 33.958984 17.623047 L 35.150391 17.640625 L 35.265625 10.353516 L 34.074219 10.333984 z M 39.550781 10.720703 L 37.132812 17.597656 L 38.152344 17.957031 L 39.410156 14.382812 C 39.579981 13.899954 39.745044 13.358395 39.90625 12.759766 L 39.990234 12.445312 L 40.027344 12.458984 L 41.482422 19.126953 L 42.861328 19.611328 L 45.279297 12.736328 L 44.248047 12.373047 L 42.982422 15.976562 C 42.893098 16.230534 42.777801 16.587572 42.636719 17.048828 C 42.49674 17.506947 42.417532 17.773331 42.398438 17.847656 L 42.369141 17.837891 L 40.914062 11.201172 L 39.550781 10.720703 z M 29.564453 10.824219 C 29.013406 10.816144 28.465223 10.894225 27.917969 11.056641 C 26.783629 11.393298 25.986992 11.975451 25.529297 12.804688 C 25.070651 13.630734 25.007979 14.605689 25.341797 15.730469 C 25.680338 16.871181 26.230399 17.671413 26.990234 18.128906 C 27.749125 18.583211 28.656978 18.6538 29.714844 18.339844 C 30.164118 18.206506 30.572882 18.052639 30.941406 17.880859 C 31.313119 17.708135 31.688424 17.492308 32.068359 17.230469 L 31.027344 13.720703 L 28.457031 14.484375 L 28.748047 15.464844 L 30.195312 15.035156 L 30.730469 16.835938 C 30.337293 17.053165 29.955554 17.216475 29.585938 17.326172 C 28.85308 17.543671 28.224539 17.490648 27.701172 17.164062 C 27.180048 16.833346 26.792499 16.240661 26.539062 15.386719 C 26.297917 14.5742 26.324808 13.868483 26.619141 13.271484 C 26.913473 12.674481 27.434081 12.266204 28.179688 12.044922 C 28.746855 11.876599 29.353335 11.838686 29.998047 11.931641 L 30.117188 10.861328 C 29.933082 10.839693 29.748135 10.82691 29.564453 10.824219 z M 49.310547 15.404297 L 44.423828 20.810547 L 47.482422 23.576172 L 48.162109 22.824219 L 45.986328 20.859375 L 47.521484 19.162109 L 49.558594 21.003906 L 50.226562 20.263672 L 48.189453 18.421875 L 49.519531 16.949219 L 51.695312 18.916016 L 52.369141 18.167969 L 49.310547 15.404297 z M 18.933594 15.677734 L 17.943359 16.513672 L 20.578125 23.865234 L 21.539062 23.054688 L 20.779297 21.048828 L 22.908203 19.251953 L 24.771484 20.328125 L 25.738281 19.511719 L 18.933594 15.677734 z M 19.097656 16.882812 C 19.208796 16.962993 19.390251 17.08531 19.640625 17.248047 C 19.893543 17.408643 20.081242 17.524291 20.205078 17.59375 L 22.005859 18.669922 L 20.382812 20.039062 L 19.662109 18.162109 C 19.481275 17.679774 19.292701 17.253139 19.097656 16.882812 z M 54.818359 21.341797 L 48.441406 24.871094 L 50.4375 28.478516 L 51.324219 27.988281 L 49.904297 25.423828 L 51.90625 24.314453 L 53.236328 26.71875 L 54.109375 26.236328 L 52.779297 23.832031 L 54.513672 22.871094 L 55.933594 25.435547 L 56.814453 24.949219 L 54.818359 21.341797 z M 13.162109 21.822266 L 12.503906 23.373047 L 17.025391 27.556641 L 17.013672 27.583984 L 10.884766 27.181641 L 10.228516 28.728516 L 16.9375 31.576172 L 17.359375 30.582031 L 14.097656 29.195312 C 13.369564 28.886067 12.578799 28.580718 11.724609 28.279297 L 11.740234 28.242188 L 18.169922 28.677734 L 18.580078 27.708984 L 13.841797 23.318359 L 13.857422 23.28125 C 13.965418 23.341566 14.282987 23.494496 14.810547 23.740234 C 15.339411 23.982917 15.772012 24.174773 16.105469 24.316406 L 19.421875 25.726562 L 19.871094 24.671875 L 13.162109 21.822266 z M 34.798828 25.554688 L 33.042969 29.052734 L 29.287109 29.560547 L 31.929688 32.34375 L 31.199219 36.207031 L 34.589844 34.431641 L 37.892578 36.310547 L 37.345703 32.427734 L 40.117188 29.728516 L 36.388672 29.105469 L 34.798828 25.554688 z M 58.175781 28.919922 L 50.96875 30.009766 L 51.146484 31.1875 L 54.025391 30.751953 L 54.201172 31.916016 L 51.582031 34.076172 L 51.785156 35.416016 L 54.666016 32.898438 C 55.188234 33.774192 55.89968 34.145298 56.796875 34.009766 C 57.500167 33.903523 57.990644 33.601147 58.271484 33.101562 C 58.552331 32.601985 58.622924 31.887086 58.482422 30.957031 L 58.175781 28.919922 z M 57.357422 30.248047 L 57.474609 31.027344 C 57.555532 31.563033 57.527878 31.978477 57.390625 32.271484 C 57.253372 32.564492 56.981736 32.741172 56.574219 32.802734 C 56.173278 32.863305 55.852321 32.786016 55.611328 32.570312 C 55.370335 32.354611 55.207914 31.972659 55.125 31.423828 L 55 30.605469 L 57.357422 30.248047 z M 9.7851562 33.339844 L 9.7402344 34.53125 L 17.025391 34.802734 L 17.068359 33.611328 L 9.7851562 33.339844 z M 3.8203125 43.630859 L 65.083984 43.630859 A 32.084232 32.084232 0 0 1 34.435547 66.228516 A 32.084232 32.084232 0 0 1 3.8203125 43.630859 z M 43.285156 50.578125 C 42.725802 50.578125 42.309259 50.797259 42.035156 51.236328 C 41.763281 51.673007 41.626953 52.351916 41.626953 53.275391 C 41.626953 54.155913 41.76804 54.825479 42.048828 55.28125 C 42.329621 55.737026 42.741405 55.964844 43.285156 55.964844 C 43.846732 55.964844 44.263281 55.744193 44.535156 55.302734 C 44.809264 54.861281 44.947266 54.184548 44.947266 53.275391 C 44.947266 52.392484 44.806184 51.721833 44.525391 51.263672 C 44.244603 50.805517 43.831134 50.578125 43.285156 50.578125 z M 23.109375 50.583984 C 22.621339 50.583984 22.233064 50.710377 21.943359 50.960938 C 21.653654 51.211491 21.507812 51.55355 21.507812 51.990234 C 21.507814 52.338625 21.598512 52.63855 21.78125 52.886719 C 21.963983 53.134888 22.278908 53.355544 22.724609 53.548828 C 23.156935 53.734954 23.441911 53.895235 23.580078 54.03125 C 23.718245 54.167265 23.787109 54.333623 23.787109 54.529297 C 23.787109 54.746441 23.712085 54.919966 23.560547 55.048828 C 23.411236 55.177684 23.177775 55.242188 22.861328 55.242188 C 22.645168 55.242188 22.411976 55.208959 22.160156 55.144531 C 21.910564 55.080103 21.674018 54.991061 21.451172 54.878906 L 21.451172 55.689453 C 21.803273 55.873194 22.25593 55.964844 22.808594 55.964844 C 23.361257 55.964844 23.795155 55.831283 24.109375 55.566406 C 24.42359 55.301535 24.580078 54.937976 24.580078 54.472656 C 24.580078 54.23642 24.540889 54.029661 24.462891 53.855469 C 24.384898 53.681271 24.262844 53.525118 24.095703 53.386719 C 23.928568 53.248314 23.665427 53.099328 23.306641 52.939453 C 22.987967 52.798664 22.767096 52.685513 22.644531 52.599609 C 22.521962 52.513705 22.434343 52.423578 22.380859 52.328125 C 22.327376 52.230288 22.300781 52.112578 22.300781 51.976562 C 22.300781 51.778504 22.366292 51.619313 22.5 51.5 C 22.633708 51.378303 22.831339 51.318359 23.089844 51.318359 C 23.430806 51.318359 23.817401 51.415654 24.251953 51.611328 L 24.505859 50.914062 C 24.042333 50.694528 23.57736 50.583984 23.109375 50.583984 z M 39.369141 50.583984 C 39.079441 50.583984 38.805106 50.63567 38.548828 50.738281 C 38.29255 50.840887 38.029689 51.015934 37.757812 51.261719 L 38.181641 51.816406 C 38.411177 51.623122 38.613288 51.48804 38.787109 51.414062 C 38.963162 51.340091 39.144839 51.304688 39.332031 51.304688 C 39.566021 51.304688 39.747425 51.371798 39.878906 51.507812 C 40.012615 51.643828 40.080078 51.830164 40.080078 52.066406 C 40.080078 52.238214 40.051804 52.398496 39.996094 52.548828 C 39.940378 52.69916 39.85108 52.861395 39.728516 53.033203 C 39.608178 53.202627 39.362391 53.490387 38.990234 53.898438 L 37.730469 55.255859 L 37.730469 55.892578 L 41.042969 55.892578 L 41.042969 55.152344 L 38.722656 55.152344 L 38.722656 55.115234 L 39.572266 54.236328 C 39.953335 53.852144 40.22599 53.546569 40.388672 53.322266 C 40.553581 53.095572 40.673955 52.876439 40.751953 52.664062 C 40.832178 52.451687 40.873047 52.226471 40.873047 51.990234 C 40.873047 51.560708 40.735045 51.21974 40.460938 50.966797 C 40.186834 50.711469 39.823755 50.583984 39.369141 50.583984 z M 17.9375 50.660156 L 17.9375 55.892578 L 20.703125 55.892578 L 20.703125 55.166016 L 18.736328 55.166016 L 18.736328 53.523438 L 20.578125 53.523438 L 20.578125 52.806641 L 18.736328 52.806641 L 18.736328 51.382812 L 20.703125 51.382812 L 20.703125 50.660156 L 17.9375 50.660156 z M 24.984375 50.660156 L 24.984375 51.392578 L 26.421875 51.392578 L 26.421875 55.892578 L 27.220703 55.892578 L 27.220703 51.392578 L 28.658203 51.392578 L 28.658203 50.660156 L 24.984375 50.660156 z M 29.410156 50.660156 L 29.410156 55.892578 L 30.777344 55.892578 C 31.619712 55.892578 32.264967 55.664755 32.712891 55.208984 C 33.160819 54.750824 33.384766 54.090384 33.384766 53.226562 C 33.384766 52.412858 33.168654 51.780643 32.736328 51.332031 C 32.303997 50.883414 31.699616 50.660156 30.921875 50.660156 L 29.410156 50.660156 z M 47.189453 50.660156 L 45.751953 51.869141 L 46.146484 52.402344 C 46.57213 52.032477 46.822945 51.813343 46.896484 51.744141 C 46.972251 51.674944 47.03468 51.611963 47.085938 51.554688 C 47.068107 51.790929 47.060547 52.110396 47.060547 52.513672 L 47.060547 55.892578 L 47.845703 55.892578 L 47.845703 50.660156 L 47.189453 50.660156 z M 51.09375 50.660156 L 49.65625 51.869141 L 50.050781 52.402344 C 50.476422 52.032477 50.727242 51.813343 50.800781 51.744141 C 50.876553 51.674944 50.938978 51.611963 50.990234 51.554688 C 50.972405 51.790929 50.964844 52.110396 50.964844 52.513672 L 50.964844 55.892578 L 51.75 55.892578 L 51.75 50.660156 L 51.09375 50.660156 z M 43.285156 51.283203 C 43.586 51.283203 43.807145 51.440878 43.945312 51.755859 C 44.085707 52.068457 44.154297 52.573835 44.154297 53.275391 C 44.154297 53.97933 44.085707 54.486662 43.945312 54.796875 C 43.807145 55.107088 43.586 55.263672 43.285156 55.263672 C 42.984307 55.263672 42.76512 55.110126 42.626953 54.804688 C 42.491018 54.499248 42.423828 53.988879 42.423828 53.275391 C 42.423828 52.561908 42.491018 52.051969 42.626953 51.744141 C 42.76512 51.436318 42.984307 51.283203 43.285156 51.283203 z M 30.208984 51.375 L 30.900391 51.375 C 31.994578 51.375 32.542969 52.001133 32.542969 53.253906 C 32.542969 54.53293 31.953983 55.173828 30.777344 55.173828 L 30.208984 55.173828 L 30.208984 51.375 z M 34.71875 54.904297 C 34.5583 54.904297 34.436247 54.951859 34.351562 55.044922 C 34.266879 55.137985 34.224609 55.271114 34.224609 55.445312 C 34.224609 55.617122 34.266879 55.751772 34.351562 55.849609 C 34.436247 55.947446 34.5583 55.996094 34.71875 55.996094 C 34.8792 55.996094 35.001253 55.947446 35.085938 55.849609 C 35.172848 55.749388 35.216797 55.614737 35.216797 55.445312 C 35.216797 55.278273 35.174528 55.146228 35.089844 55.050781 C 35.00516 54.952944 34.881427 54.904297 34.71875 54.904297 z "
       style="opacity:1;fill:#cbced1;fill-opacity:1;fill-rule:evenodd;stroke:none;stroke-width:19.5;stroke-linejoin:round;stroke-miterlimit:4;stroke-dasharray:none;stroke-opacity:1" />
    <ellipse
       ry="17.234837"
       rx="17.234838"
       cy="-1533.1852"
       cx="2473.209"
       id="path4218"
       style="opacity:1;fill:none;fill-opacity:1;fill-rule:evenodd;stroke:none;stroke-width:19.5;stroke-linejoin:round;stroke-miterlimit:4;stroke-dasharray:none;stroke-opacity:1" />
    <g
       id="text4220"
       style="font-style:normal;font-weight:normal;font-size:55.66960526px;line-height:125%;font-family:Sans;letter-spacing:0px;word-spacing:0px;fill:#cbced1;fill-opacity:1;stroke:none;stroke-width:1px;stroke-linecap:butt;stroke-linejoin:miter;stroke-opacity:1"
       transform="matrix(-0.08140525,0.00425011,-0.00425011,-0.08140525,2697.8852,-1700.62)" />
    <flowRoot
       style="font-style:normal;font-weight:normal;font-size:40px;line-height:125%;font-family:Sans;letter-spacing:0px;word-spacing:0px;fill:#000000;fill-opacity:1;stroke:none;stroke-width:1px;stroke-linecap:butt;stroke-linejoin:miter;stroke-opacity:1"
       id="flowRoot4230"
       xml:space="preserve"><flowRegion
         id="flowRegion4232"><rect
           y="-1731.6182"
           x="2634.4778"
           height="452.54834"
           width="715.18799"
           id="rect4234" /></flowRegion><flowPara
         id="flowPara4236"></flowPara></flowRoot>    <g
       id="text4246"
       style="font-style:normal;font-weight:normal;font-size:86.90405273px;line-height:125%;font-family:Sans;letter-spacing:0px;word-spacing:0px;fill:#cbced1;fill-opacity:1;stroke:none;stroke-width:1px;stroke-linecap:butt;stroke-linejoin:miter;stroke-opacity:1"
       transform="matrix(0.07877559,0,0,0.08435199,2240.3059,-1378.1479)" />
  </g>
</svg>
