<?xml version="1.0" standalone="no"?>
<!DOCTYPE svg PUBLIC "-//W3C//DTD SVG 20010904//EN"
 "http://www.w3.org/TR/2001/REC-SVG-20010904/DTD/svg10.dtd">
<svg version="1.0" xmlns="http://www.w3.org/2000/svg"
 width="512.000000pt" height="512.000000pt" viewBox="0 0 512.000000 512.000000"
 preserveAspectRatio="xMidYMid meet">
<metadata>
Created by potrace 1.14, written by Peter Selinger 2001-2017
</metadata>
<g transform="translate(0.000000,512.000000) scale(0.100000,-0.100000)"
fill="#000000" stroke="none">
<path d="M2562 4460 c-1388 -351 -2525 -640 -2526 -642 -4 -5 3268 -3781 3280
-3785 5 -1 380 1058 834 2354 1022 2918 950 2713 942 2712 -4 0 -1142 -288
-2530 -639z m364 -371 c692 -96 1142 -787 948 -1458 -177 -609 -815 -961
-1423 -785 -546 159 -898 700 -820 1260 53 383 302 720 651 884 201 94 429
129 644 99z"/>
</g>
</svg>
